%TF.GenerationSoftware,KiCad,Pcbnew,10.0.5*%
%TF.CreationDate,2026-09-26T15:00:44-04:00*%
%TF.ProjectId,SWAFarmNodeV1,53574146-6172-46d4-9e6f-646556312e6b,POC-R1*%
%TF.SameCoordinates,Original*%
%TF.FileFunction,Drillmap*%
%TF.FilePolarity,Positive*%
%FSLAX45Y45*%
G04 Gerber Fmt 4.5, Leading zero omitted, Abs format (unit mm)*
G04 Created by KiCad (PCBNEW 10.0.5) date 2026-09-26 15:00:44*
%MOMM*%
%LPD*%
G01*
G04 APERTURE LIST*
%ADD10C,0.050000*%
%ADD11C,0.200000*%
%ADD12C,0.100000*%
%ADD13C,0.320000*%
G04 APERTURE END LIST*
D10*
X0Y0D02*
X20000000Y0D01*
X0Y-16000000D02*
X0Y0D01*
X20000000Y0D02*
X20000000Y-16000000D01*
X20000000Y-16000000D02*
X0Y-16000000D01*
D11*
D12*
X3078500Y-528000D02*
X3143500Y-593000D01*
X3143500Y-528000D02*
X3078500Y-593000D01*
X3656500Y-528000D02*
X3721500Y-593000D01*
X3721500Y-528000D02*
X3656500Y-593000D01*
D13*
X660000Y-500000D02*
G75*
G02*
X340000Y-500000I-160000J0D01*
G01*
X340000Y-500000D02*
G75*
G02*
X660000Y-500000I160000J0D01*
G01*
X660000Y-15500000D02*
G75*
G02*
X340000Y-15500000I-160000J0D01*
G01*
X340000Y-15500000D02*
G75*
G02*
X660000Y-15500000I160000J0D01*
G01*
X19660000Y-500000D02*
G75*
G02*
X19340000Y-500000I-160000J0D01*
G01*
X19340000Y-500000D02*
G75*
G02*
X19660000Y-500000I160000J0D01*
G01*
X19660000Y-15500000D02*
G75*
G02*
X19340000Y-15500000I-160000J0D01*
G01*
X19340000Y-15500000D02*
G75*
G02*
X19660000Y-15500000I160000J0D01*
G01*
D11*
X258277Y-16313984D02*
X258277Y-16113984D01*
X258277Y-16113984D02*
X305896Y-16113984D01*
X305896Y-16113984D02*
X334467Y-16123508D01*
X334467Y-16123508D02*
X353515Y-16142555D01*
X353515Y-16142555D02*
X363039Y-16161603D01*
X363039Y-16161603D02*
X372562Y-16199698D01*
X372562Y-16199698D02*
X372562Y-16228269D01*
X372562Y-16228269D02*
X363039Y-16266365D01*
X363039Y-16266365D02*
X353515Y-16285412D01*
X353515Y-16285412D02*
X334467Y-16304460D01*
X334467Y-16304460D02*
X305896Y-16313984D01*
X305896Y-16313984D02*
X258277Y-16313984D01*
X458277Y-16313984D02*
X458277Y-16180650D01*
X458277Y-16218746D02*
X467801Y-16199698D01*
X467801Y-16199698D02*
X477324Y-16190174D01*
X477324Y-16190174D02*
X496372Y-16180650D01*
X496372Y-16180650D02*
X515420Y-16180650D01*
X582086Y-16313984D02*
X582086Y-16180650D01*
X582086Y-16113984D02*
X572563Y-16123508D01*
X572563Y-16123508D02*
X582086Y-16133031D01*
X582086Y-16133031D02*
X591610Y-16123508D01*
X591610Y-16123508D02*
X582086Y-16113984D01*
X582086Y-16113984D02*
X582086Y-16133031D01*
X705896Y-16313984D02*
X686848Y-16304460D01*
X686848Y-16304460D02*
X677324Y-16285412D01*
X677324Y-16285412D02*
X677324Y-16113984D01*
X810658Y-16313984D02*
X791610Y-16304460D01*
X791610Y-16304460D02*
X782086Y-16285412D01*
X782086Y-16285412D02*
X782086Y-16113984D01*
X1039229Y-16313984D02*
X1039229Y-16113984D01*
X1039229Y-16113984D02*
X1105896Y-16256841D01*
X1105896Y-16256841D02*
X1172563Y-16113984D01*
X1172563Y-16113984D02*
X1172563Y-16313984D01*
X1353515Y-16313984D02*
X1353515Y-16209222D01*
X1353515Y-16209222D02*
X1343991Y-16190174D01*
X1343991Y-16190174D02*
X1324944Y-16180650D01*
X1324944Y-16180650D02*
X1286848Y-16180650D01*
X1286848Y-16180650D02*
X1267801Y-16190174D01*
X1353515Y-16304460D02*
X1334467Y-16313984D01*
X1334467Y-16313984D02*
X1286848Y-16313984D01*
X1286848Y-16313984D02*
X1267801Y-16304460D01*
X1267801Y-16304460D02*
X1258277Y-16285412D01*
X1258277Y-16285412D02*
X1258277Y-16266365D01*
X1258277Y-16266365D02*
X1267801Y-16247317D01*
X1267801Y-16247317D02*
X1286848Y-16237793D01*
X1286848Y-16237793D02*
X1334467Y-16237793D01*
X1334467Y-16237793D02*
X1353515Y-16228269D01*
X1448753Y-16180650D02*
X1448753Y-16380650D01*
X1448753Y-16190174D02*
X1467801Y-16180650D01*
X1467801Y-16180650D02*
X1505896Y-16180650D01*
X1505896Y-16180650D02*
X1524943Y-16190174D01*
X1524943Y-16190174D02*
X1534467Y-16199698D01*
X1534467Y-16199698D02*
X1543991Y-16218746D01*
X1543991Y-16218746D02*
X1543991Y-16275888D01*
X1543991Y-16275888D02*
X1534467Y-16294936D01*
X1534467Y-16294936D02*
X1524943Y-16304460D01*
X1524943Y-16304460D02*
X1505896Y-16313984D01*
X1505896Y-16313984D02*
X1467801Y-16313984D01*
X1467801Y-16313984D02*
X1448753Y-16304460D01*
X1629705Y-16294936D02*
X1639229Y-16304460D01*
X1639229Y-16304460D02*
X1629705Y-16313984D01*
X1629705Y-16313984D02*
X1620182Y-16304460D01*
X1620182Y-16304460D02*
X1629705Y-16294936D01*
X1629705Y-16294936D02*
X1629705Y-16313984D01*
X1629705Y-16190174D02*
X1639229Y-16199698D01*
X1639229Y-16199698D02*
X1629705Y-16209222D01*
X1629705Y-16209222D02*
X1620182Y-16199698D01*
X1620182Y-16199698D02*
X1629705Y-16190174D01*
X1629705Y-16190174D02*
X1629705Y-16209222D01*
D12*
X-67500Y-16610000D02*
X-2500Y-16675000D01*
X-2500Y-16610000D02*
X-67500Y-16675000D01*
D11*
X296372Y-16533984D02*
X315420Y-16533984D01*
X315420Y-16533984D02*
X334467Y-16543508D01*
X334467Y-16543508D02*
X343991Y-16553031D01*
X343991Y-16553031D02*
X353515Y-16572079D01*
X353515Y-16572079D02*
X363039Y-16610174D01*
X363039Y-16610174D02*
X363039Y-16657793D01*
X363039Y-16657793D02*
X353515Y-16695888D01*
X353515Y-16695888D02*
X343991Y-16714936D01*
X343991Y-16714936D02*
X334467Y-16724460D01*
X334467Y-16724460D02*
X315420Y-16733984D01*
X315420Y-16733984D02*
X296372Y-16733984D01*
X296372Y-16733984D02*
X277324Y-16724460D01*
X277324Y-16724460D02*
X267801Y-16714936D01*
X267801Y-16714936D02*
X258277Y-16695888D01*
X258277Y-16695888D02*
X248753Y-16657793D01*
X248753Y-16657793D02*
X248753Y-16610174D01*
X248753Y-16610174D02*
X258277Y-16572079D01*
X258277Y-16572079D02*
X267801Y-16553031D01*
X267801Y-16553031D02*
X277324Y-16543508D01*
X277324Y-16543508D02*
X296372Y-16533984D01*
X448753Y-16714936D02*
X458277Y-16724460D01*
X458277Y-16724460D02*
X448753Y-16733984D01*
X448753Y-16733984D02*
X439229Y-16724460D01*
X439229Y-16724460D02*
X448753Y-16714936D01*
X448753Y-16714936D02*
X448753Y-16733984D01*
X629705Y-16533984D02*
X591610Y-16533984D01*
X591610Y-16533984D02*
X572563Y-16543508D01*
X572563Y-16543508D02*
X563039Y-16553031D01*
X563039Y-16553031D02*
X543991Y-16581603D01*
X543991Y-16581603D02*
X534467Y-16619698D01*
X534467Y-16619698D02*
X534467Y-16695888D01*
X534467Y-16695888D02*
X543991Y-16714936D01*
X543991Y-16714936D02*
X553515Y-16724460D01*
X553515Y-16724460D02*
X572563Y-16733984D01*
X572563Y-16733984D02*
X610658Y-16733984D01*
X610658Y-16733984D02*
X629705Y-16724460D01*
X629705Y-16724460D02*
X639229Y-16714936D01*
X639229Y-16714936D02*
X648753Y-16695888D01*
X648753Y-16695888D02*
X648753Y-16648269D01*
X648753Y-16648269D02*
X639229Y-16629222D01*
X639229Y-16629222D02*
X629705Y-16619698D01*
X629705Y-16619698D02*
X610658Y-16610174D01*
X610658Y-16610174D02*
X572563Y-16610174D01*
X572563Y-16610174D02*
X553515Y-16619698D01*
X553515Y-16619698D02*
X543991Y-16629222D01*
X543991Y-16629222D02*
X534467Y-16648269D01*
X829705Y-16533984D02*
X734467Y-16533984D01*
X734467Y-16533984D02*
X724943Y-16629222D01*
X724943Y-16629222D02*
X734467Y-16619698D01*
X734467Y-16619698D02*
X753515Y-16610174D01*
X753515Y-16610174D02*
X801134Y-16610174D01*
X801134Y-16610174D02*
X820182Y-16619698D01*
X820182Y-16619698D02*
X829705Y-16629222D01*
X829705Y-16629222D02*
X839229Y-16648269D01*
X839229Y-16648269D02*
X839229Y-16695888D01*
X839229Y-16695888D02*
X829705Y-16714936D01*
X829705Y-16714936D02*
X820182Y-16724460D01*
X820182Y-16724460D02*
X801134Y-16733984D01*
X801134Y-16733984D02*
X753515Y-16733984D01*
X753515Y-16733984D02*
X734467Y-16724460D01*
X734467Y-16724460D02*
X724943Y-16714936D01*
X963039Y-16533984D02*
X982086Y-16533984D01*
X982086Y-16533984D02*
X1001134Y-16543508D01*
X1001134Y-16543508D02*
X1010658Y-16553031D01*
X1010658Y-16553031D02*
X1020182Y-16572079D01*
X1020182Y-16572079D02*
X1029705Y-16610174D01*
X1029705Y-16610174D02*
X1029705Y-16657793D01*
X1029705Y-16657793D02*
X1020182Y-16695888D01*
X1020182Y-16695888D02*
X1010658Y-16714936D01*
X1010658Y-16714936D02*
X1001134Y-16724460D01*
X1001134Y-16724460D02*
X982086Y-16733984D01*
X982086Y-16733984D02*
X963039Y-16733984D01*
X963039Y-16733984D02*
X943991Y-16724460D01*
X943991Y-16724460D02*
X934467Y-16714936D01*
X934467Y-16714936D02*
X924943Y-16695888D01*
X924943Y-16695888D02*
X915420Y-16657793D01*
X915420Y-16657793D02*
X915420Y-16610174D01*
X915420Y-16610174D02*
X924943Y-16572079D01*
X924943Y-16572079D02*
X934467Y-16553031D01*
X934467Y-16553031D02*
X943991Y-16543508D01*
X943991Y-16543508D02*
X963039Y-16533984D01*
X1115420Y-16733984D02*
X1115420Y-16600650D01*
X1115420Y-16619698D02*
X1124944Y-16610174D01*
X1124944Y-16610174D02*
X1143991Y-16600650D01*
X1143991Y-16600650D02*
X1172563Y-16600650D01*
X1172563Y-16600650D02*
X1191610Y-16610174D01*
X1191610Y-16610174D02*
X1201134Y-16629222D01*
X1201134Y-16629222D02*
X1201134Y-16733984D01*
X1201134Y-16629222D02*
X1210658Y-16610174D01*
X1210658Y-16610174D02*
X1229705Y-16600650D01*
X1229705Y-16600650D02*
X1258277Y-16600650D01*
X1258277Y-16600650D02*
X1277325Y-16610174D01*
X1277325Y-16610174D02*
X1286848Y-16629222D01*
X1286848Y-16629222D02*
X1286848Y-16733984D01*
X1382086Y-16733984D02*
X1382086Y-16600650D01*
X1382086Y-16619698D02*
X1391610Y-16610174D01*
X1391610Y-16610174D02*
X1410658Y-16600650D01*
X1410658Y-16600650D02*
X1439229Y-16600650D01*
X1439229Y-16600650D02*
X1458277Y-16610174D01*
X1458277Y-16610174D02*
X1467801Y-16629222D01*
X1467801Y-16629222D02*
X1467801Y-16733984D01*
X1467801Y-16629222D02*
X1477324Y-16610174D01*
X1477324Y-16610174D02*
X1496372Y-16600650D01*
X1496372Y-16600650D02*
X1524943Y-16600650D01*
X1524943Y-16600650D02*
X1543991Y-16610174D01*
X1543991Y-16610174D02*
X1553515Y-16629222D01*
X1553515Y-16629222D02*
X1553515Y-16733984D01*
X1943991Y-16524460D02*
X1772563Y-16781603D01*
X2201134Y-16533984D02*
X2220182Y-16533984D01*
X2220182Y-16533984D02*
X2239229Y-16543508D01*
X2239229Y-16543508D02*
X2248753Y-16553031D01*
X2248753Y-16553031D02*
X2258277Y-16572079D01*
X2258277Y-16572079D02*
X2267801Y-16610174D01*
X2267801Y-16610174D02*
X2267801Y-16657793D01*
X2267801Y-16657793D02*
X2258277Y-16695888D01*
X2258277Y-16695888D02*
X2248753Y-16714936D01*
X2248753Y-16714936D02*
X2239229Y-16724460D01*
X2239229Y-16724460D02*
X2220182Y-16733984D01*
X2220182Y-16733984D02*
X2201134Y-16733984D01*
X2201134Y-16733984D02*
X2182087Y-16724460D01*
X2182087Y-16724460D02*
X2172563Y-16714936D01*
X2172563Y-16714936D02*
X2163039Y-16695888D01*
X2163039Y-16695888D02*
X2153515Y-16657793D01*
X2153515Y-16657793D02*
X2153515Y-16610174D01*
X2153515Y-16610174D02*
X2163039Y-16572079D01*
X2163039Y-16572079D02*
X2172563Y-16553031D01*
X2172563Y-16553031D02*
X2182087Y-16543508D01*
X2182087Y-16543508D02*
X2201134Y-16533984D01*
X2353515Y-16714936D02*
X2363039Y-16724460D01*
X2363039Y-16724460D02*
X2353515Y-16733984D01*
X2353515Y-16733984D02*
X2343991Y-16724460D01*
X2343991Y-16724460D02*
X2353515Y-16714936D01*
X2353515Y-16714936D02*
X2353515Y-16733984D01*
X2486848Y-16533984D02*
X2505896Y-16533984D01*
X2505896Y-16533984D02*
X2524944Y-16543508D01*
X2524944Y-16543508D02*
X2534468Y-16553031D01*
X2534468Y-16553031D02*
X2543991Y-16572079D01*
X2543991Y-16572079D02*
X2553515Y-16610174D01*
X2553515Y-16610174D02*
X2553515Y-16657793D01*
X2553515Y-16657793D02*
X2543991Y-16695888D01*
X2543991Y-16695888D02*
X2534468Y-16714936D01*
X2534468Y-16714936D02*
X2524944Y-16724460D01*
X2524944Y-16724460D02*
X2505896Y-16733984D01*
X2505896Y-16733984D02*
X2486848Y-16733984D01*
X2486848Y-16733984D02*
X2467801Y-16724460D01*
X2467801Y-16724460D02*
X2458277Y-16714936D01*
X2458277Y-16714936D02*
X2448753Y-16695888D01*
X2448753Y-16695888D02*
X2439229Y-16657793D01*
X2439229Y-16657793D02*
X2439229Y-16610174D01*
X2439229Y-16610174D02*
X2448753Y-16572079D01*
X2448753Y-16572079D02*
X2458277Y-16553031D01*
X2458277Y-16553031D02*
X2467801Y-16543508D01*
X2467801Y-16543508D02*
X2486848Y-16533984D01*
X2629706Y-16553031D02*
X2639229Y-16543508D01*
X2639229Y-16543508D02*
X2658277Y-16533984D01*
X2658277Y-16533984D02*
X2705896Y-16533984D01*
X2705896Y-16533984D02*
X2724944Y-16543508D01*
X2724944Y-16543508D02*
X2734468Y-16553031D01*
X2734468Y-16553031D02*
X2743991Y-16572079D01*
X2743991Y-16572079D02*
X2743991Y-16591127D01*
X2743991Y-16591127D02*
X2734468Y-16619698D01*
X2734468Y-16619698D02*
X2620182Y-16733984D01*
X2620182Y-16733984D02*
X2743991Y-16733984D01*
X2924944Y-16533984D02*
X2829706Y-16533984D01*
X2829706Y-16533984D02*
X2820182Y-16629222D01*
X2820182Y-16629222D02*
X2829706Y-16619698D01*
X2829706Y-16619698D02*
X2848753Y-16610174D01*
X2848753Y-16610174D02*
X2896372Y-16610174D01*
X2896372Y-16610174D02*
X2915420Y-16619698D01*
X2915420Y-16619698D02*
X2924944Y-16629222D01*
X2924944Y-16629222D02*
X2934467Y-16648269D01*
X2934467Y-16648269D02*
X2934467Y-16695888D01*
X2934467Y-16695888D02*
X2924944Y-16714936D01*
X2924944Y-16714936D02*
X2915420Y-16724460D01*
X2915420Y-16724460D02*
X2896372Y-16733984D01*
X2896372Y-16733984D02*
X2848753Y-16733984D01*
X2848753Y-16733984D02*
X2829706Y-16724460D01*
X2829706Y-16724460D02*
X2820182Y-16714936D01*
X3105896Y-16533984D02*
X3067801Y-16533984D01*
X3067801Y-16533984D02*
X3048753Y-16543508D01*
X3048753Y-16543508D02*
X3039229Y-16553031D01*
X3039229Y-16553031D02*
X3020182Y-16581603D01*
X3020182Y-16581603D02*
X3010658Y-16619698D01*
X3010658Y-16619698D02*
X3010658Y-16695888D01*
X3010658Y-16695888D02*
X3020182Y-16714936D01*
X3020182Y-16714936D02*
X3029706Y-16724460D01*
X3029706Y-16724460D02*
X3048753Y-16733984D01*
X3048753Y-16733984D02*
X3086848Y-16733984D01*
X3086848Y-16733984D02*
X3105896Y-16724460D01*
X3105896Y-16724460D02*
X3115420Y-16714936D01*
X3115420Y-16714936D02*
X3124944Y-16695888D01*
X3124944Y-16695888D02*
X3124944Y-16648269D01*
X3124944Y-16648269D02*
X3115420Y-16629222D01*
X3115420Y-16629222D02*
X3105896Y-16619698D01*
X3105896Y-16619698D02*
X3086848Y-16610174D01*
X3086848Y-16610174D02*
X3048753Y-16610174D01*
X3048753Y-16610174D02*
X3029706Y-16619698D01*
X3029706Y-16619698D02*
X3020182Y-16629222D01*
X3020182Y-16629222D02*
X3010658Y-16648269D01*
X3201134Y-16533984D02*
X3201134Y-16572079D01*
X3277325Y-16533984D02*
X3277325Y-16572079D01*
X3572563Y-16810174D02*
X3563039Y-16800650D01*
X3563039Y-16800650D02*
X3543991Y-16772079D01*
X3543991Y-16772079D02*
X3534468Y-16753031D01*
X3534468Y-16753031D02*
X3524944Y-16724460D01*
X3524944Y-16724460D02*
X3515420Y-16676841D01*
X3515420Y-16676841D02*
X3515420Y-16638746D01*
X3515420Y-16638746D02*
X3524944Y-16591127D01*
X3524944Y-16591127D02*
X3534468Y-16562555D01*
X3534468Y-16562555D02*
X3543991Y-16543508D01*
X3543991Y-16543508D02*
X3563039Y-16514936D01*
X3563039Y-16514936D02*
X3572563Y-16505412D01*
X3639229Y-16553031D02*
X3648753Y-16543508D01*
X3648753Y-16543508D02*
X3667801Y-16533984D01*
X3667801Y-16533984D02*
X3715420Y-16533984D01*
X3715420Y-16533984D02*
X3734468Y-16543508D01*
X3734468Y-16543508D02*
X3743991Y-16553031D01*
X3743991Y-16553031D02*
X3753515Y-16572079D01*
X3753515Y-16572079D02*
X3753515Y-16591127D01*
X3753515Y-16591127D02*
X3743991Y-16619698D01*
X3743991Y-16619698D02*
X3629706Y-16733984D01*
X3629706Y-16733984D02*
X3753515Y-16733984D01*
X3991610Y-16733984D02*
X3991610Y-16533984D01*
X4077325Y-16733984D02*
X4077325Y-16629222D01*
X4077325Y-16629222D02*
X4067801Y-16610174D01*
X4067801Y-16610174D02*
X4048753Y-16600650D01*
X4048753Y-16600650D02*
X4020182Y-16600650D01*
X4020182Y-16600650D02*
X4001134Y-16610174D01*
X4001134Y-16610174D02*
X3991610Y-16619698D01*
X4201134Y-16733984D02*
X4182087Y-16724460D01*
X4182087Y-16724460D02*
X4172563Y-16714936D01*
X4172563Y-16714936D02*
X4163039Y-16695888D01*
X4163039Y-16695888D02*
X4163039Y-16638746D01*
X4163039Y-16638746D02*
X4172563Y-16619698D01*
X4172563Y-16619698D02*
X4182087Y-16610174D01*
X4182087Y-16610174D02*
X4201134Y-16600650D01*
X4201134Y-16600650D02*
X4229706Y-16600650D01*
X4229706Y-16600650D02*
X4248753Y-16610174D01*
X4248753Y-16610174D02*
X4258277Y-16619698D01*
X4258277Y-16619698D02*
X4267801Y-16638746D01*
X4267801Y-16638746D02*
X4267801Y-16695888D01*
X4267801Y-16695888D02*
X4258277Y-16714936D01*
X4258277Y-16714936D02*
X4248753Y-16724460D01*
X4248753Y-16724460D02*
X4229706Y-16733984D01*
X4229706Y-16733984D02*
X4201134Y-16733984D01*
X4382087Y-16733984D02*
X4363039Y-16724460D01*
X4363039Y-16724460D02*
X4353515Y-16705412D01*
X4353515Y-16705412D02*
X4353515Y-16533984D01*
X4534468Y-16724460D02*
X4515420Y-16733984D01*
X4515420Y-16733984D02*
X4477325Y-16733984D01*
X4477325Y-16733984D02*
X4458277Y-16724460D01*
X4458277Y-16724460D02*
X4448753Y-16705412D01*
X4448753Y-16705412D02*
X4448753Y-16629222D01*
X4448753Y-16629222D02*
X4458277Y-16610174D01*
X4458277Y-16610174D02*
X4477325Y-16600650D01*
X4477325Y-16600650D02*
X4515420Y-16600650D01*
X4515420Y-16600650D02*
X4534468Y-16610174D01*
X4534468Y-16610174D02*
X4543992Y-16629222D01*
X4543992Y-16629222D02*
X4543992Y-16648269D01*
X4543992Y-16648269D02*
X4448753Y-16667317D01*
X4620182Y-16724460D02*
X4639230Y-16733984D01*
X4639230Y-16733984D02*
X4677325Y-16733984D01*
X4677325Y-16733984D02*
X4696373Y-16724460D01*
X4696373Y-16724460D02*
X4705896Y-16705412D01*
X4705896Y-16705412D02*
X4705896Y-16695888D01*
X4705896Y-16695888D02*
X4696373Y-16676841D01*
X4696373Y-16676841D02*
X4677325Y-16667317D01*
X4677325Y-16667317D02*
X4648753Y-16667317D01*
X4648753Y-16667317D02*
X4629706Y-16657793D01*
X4629706Y-16657793D02*
X4620182Y-16638746D01*
X4620182Y-16638746D02*
X4620182Y-16629222D01*
X4620182Y-16629222D02*
X4629706Y-16610174D01*
X4629706Y-16610174D02*
X4648753Y-16600650D01*
X4648753Y-16600650D02*
X4677325Y-16600650D01*
X4677325Y-16600650D02*
X4696373Y-16610174D01*
X4772563Y-16810174D02*
X4782087Y-16800650D01*
X4782087Y-16800650D02*
X4801134Y-16772079D01*
X4801134Y-16772079D02*
X4810658Y-16753031D01*
X4810658Y-16753031D02*
X4820182Y-16724460D01*
X4820182Y-16724460D02*
X4829706Y-16676841D01*
X4829706Y-16676841D02*
X4829706Y-16638746D01*
X4829706Y-16638746D02*
X4820182Y-16591127D01*
X4820182Y-16591127D02*
X4810658Y-16562555D01*
X4810658Y-16562555D02*
X4801134Y-16543508D01*
X4801134Y-16543508D02*
X4782087Y-16514936D01*
X4782087Y-16514936D02*
X4772563Y-16505412D01*
X5134468Y-16810174D02*
X5124944Y-16800650D01*
X5124944Y-16800650D02*
X5105896Y-16772079D01*
X5105896Y-16772079D02*
X5096373Y-16753031D01*
X5096373Y-16753031D02*
X5086849Y-16724460D01*
X5086849Y-16724460D02*
X5077325Y-16676841D01*
X5077325Y-16676841D02*
X5077325Y-16638746D01*
X5077325Y-16638746D02*
X5086849Y-16591127D01*
X5086849Y-16591127D02*
X5096373Y-16562555D01*
X5096373Y-16562555D02*
X5105896Y-16543508D01*
X5105896Y-16543508D02*
X5124944Y-16514936D01*
X5124944Y-16514936D02*
X5134468Y-16505412D01*
X5210658Y-16600650D02*
X5210658Y-16733984D01*
X5210658Y-16619698D02*
X5220182Y-16610174D01*
X5220182Y-16610174D02*
X5239230Y-16600650D01*
X5239230Y-16600650D02*
X5267801Y-16600650D01*
X5267801Y-16600650D02*
X5286849Y-16610174D01*
X5286849Y-16610174D02*
X5296373Y-16629222D01*
X5296373Y-16629222D02*
X5296373Y-16733984D01*
X5420182Y-16733984D02*
X5401134Y-16724460D01*
X5401134Y-16724460D02*
X5391611Y-16714936D01*
X5391611Y-16714936D02*
X5382087Y-16695888D01*
X5382087Y-16695888D02*
X5382087Y-16638746D01*
X5382087Y-16638746D02*
X5391611Y-16619698D01*
X5391611Y-16619698D02*
X5401134Y-16610174D01*
X5401134Y-16610174D02*
X5420182Y-16600650D01*
X5420182Y-16600650D02*
X5448754Y-16600650D01*
X5448754Y-16600650D02*
X5467801Y-16610174D01*
X5467801Y-16610174D02*
X5477325Y-16619698D01*
X5477325Y-16619698D02*
X5486849Y-16638746D01*
X5486849Y-16638746D02*
X5486849Y-16695888D01*
X5486849Y-16695888D02*
X5477325Y-16714936D01*
X5477325Y-16714936D02*
X5467801Y-16724460D01*
X5467801Y-16724460D02*
X5448754Y-16733984D01*
X5448754Y-16733984D02*
X5420182Y-16733984D01*
X5543992Y-16600650D02*
X5620182Y-16600650D01*
X5572563Y-16533984D02*
X5572563Y-16705412D01*
X5572563Y-16705412D02*
X5582087Y-16724460D01*
X5582087Y-16724460D02*
X5601134Y-16733984D01*
X5601134Y-16733984D02*
X5620182Y-16733984D01*
X5839230Y-16600650D02*
X5839230Y-16800650D01*
X5839230Y-16610174D02*
X5858277Y-16600650D01*
X5858277Y-16600650D02*
X5896373Y-16600650D01*
X5896373Y-16600650D02*
X5915420Y-16610174D01*
X5915420Y-16610174D02*
X5924944Y-16619698D01*
X5924944Y-16619698D02*
X5934468Y-16638746D01*
X5934468Y-16638746D02*
X5934468Y-16695888D01*
X5934468Y-16695888D02*
X5924944Y-16714936D01*
X5924944Y-16714936D02*
X5915420Y-16724460D01*
X5915420Y-16724460D02*
X5896373Y-16733984D01*
X5896373Y-16733984D02*
X5858277Y-16733984D01*
X5858277Y-16733984D02*
X5839230Y-16724460D01*
X6048753Y-16733984D02*
X6029706Y-16724460D01*
X6029706Y-16724460D02*
X6020182Y-16705412D01*
X6020182Y-16705412D02*
X6020182Y-16533984D01*
X6210658Y-16733984D02*
X6210658Y-16629222D01*
X6210658Y-16629222D02*
X6201134Y-16610174D01*
X6201134Y-16610174D02*
X6182087Y-16600650D01*
X6182087Y-16600650D02*
X6143992Y-16600650D01*
X6143992Y-16600650D02*
X6124944Y-16610174D01*
X6210658Y-16724460D02*
X6191611Y-16733984D01*
X6191611Y-16733984D02*
X6143992Y-16733984D01*
X6143992Y-16733984D02*
X6124944Y-16724460D01*
X6124944Y-16724460D02*
X6115420Y-16705412D01*
X6115420Y-16705412D02*
X6115420Y-16686365D01*
X6115420Y-16686365D02*
X6124944Y-16667317D01*
X6124944Y-16667317D02*
X6143992Y-16657793D01*
X6143992Y-16657793D02*
X6191611Y-16657793D01*
X6191611Y-16657793D02*
X6210658Y-16648269D01*
X6277325Y-16600650D02*
X6353515Y-16600650D01*
X6305896Y-16533984D02*
X6305896Y-16705412D01*
X6305896Y-16705412D02*
X6315420Y-16724460D01*
X6315420Y-16724460D02*
X6334468Y-16733984D01*
X6334468Y-16733984D02*
X6353515Y-16733984D01*
X6496373Y-16724460D02*
X6477325Y-16733984D01*
X6477325Y-16733984D02*
X6439230Y-16733984D01*
X6439230Y-16733984D02*
X6420182Y-16724460D01*
X6420182Y-16724460D02*
X6410658Y-16705412D01*
X6410658Y-16705412D02*
X6410658Y-16629222D01*
X6410658Y-16629222D02*
X6420182Y-16610174D01*
X6420182Y-16610174D02*
X6439230Y-16600650D01*
X6439230Y-16600650D02*
X6477325Y-16600650D01*
X6477325Y-16600650D02*
X6496373Y-16610174D01*
X6496373Y-16610174D02*
X6505896Y-16629222D01*
X6505896Y-16629222D02*
X6505896Y-16648269D01*
X6505896Y-16648269D02*
X6410658Y-16667317D01*
X6677325Y-16733984D02*
X6677325Y-16533984D01*
X6677325Y-16724460D02*
X6658277Y-16733984D01*
X6658277Y-16733984D02*
X6620182Y-16733984D01*
X6620182Y-16733984D02*
X6601134Y-16724460D01*
X6601134Y-16724460D02*
X6591611Y-16714936D01*
X6591611Y-16714936D02*
X6582087Y-16695888D01*
X6582087Y-16695888D02*
X6582087Y-16638746D01*
X6582087Y-16638746D02*
X6591611Y-16619698D01*
X6591611Y-16619698D02*
X6601134Y-16610174D01*
X6601134Y-16610174D02*
X6620182Y-16600650D01*
X6620182Y-16600650D02*
X6658277Y-16600650D01*
X6658277Y-16600650D02*
X6677325Y-16610174D01*
X6753515Y-16810174D02*
X6763039Y-16800650D01*
X6763039Y-16800650D02*
X6782087Y-16772079D01*
X6782087Y-16772079D02*
X6791611Y-16753031D01*
X6791611Y-16753031D02*
X6801134Y-16724460D01*
X6801134Y-16724460D02*
X6810658Y-16676841D01*
X6810658Y-16676841D02*
X6810658Y-16638746D01*
X6810658Y-16638746D02*
X6801134Y-16591127D01*
X6801134Y-16591127D02*
X6791611Y-16562555D01*
X6791611Y-16562555D02*
X6782087Y-16543508D01*
X6782087Y-16543508D02*
X6763039Y-16514936D01*
X6763039Y-16514936D02*
X6753515Y-16505412D01*
X-2500Y-16906500D02*
G75*
G02*
X-202500Y-16906500I-100000J0D01*
G01*
X-202500Y-16906500D02*
G75*
G02*
X-2500Y-16906500I100000J0D01*
G01*
X239229Y-16797984D02*
X363039Y-16797984D01*
X363039Y-16797984D02*
X296372Y-16874174D01*
X296372Y-16874174D02*
X324944Y-16874174D01*
X324944Y-16874174D02*
X343991Y-16883698D01*
X343991Y-16883698D02*
X353515Y-16893222D01*
X353515Y-16893222D02*
X363039Y-16912270D01*
X363039Y-16912270D02*
X363039Y-16959889D01*
X363039Y-16959889D02*
X353515Y-16978936D01*
X353515Y-16978936D02*
X343991Y-16988460D01*
X343991Y-16988460D02*
X324944Y-16997984D01*
X324944Y-16997984D02*
X267801Y-16997984D01*
X267801Y-16997984D02*
X248753Y-16988460D01*
X248753Y-16988460D02*
X239229Y-16978936D01*
X448753Y-16978936D02*
X458277Y-16988460D01*
X458277Y-16988460D02*
X448753Y-16997984D01*
X448753Y-16997984D02*
X439229Y-16988460D01*
X439229Y-16988460D02*
X448753Y-16978936D01*
X448753Y-16978936D02*
X448753Y-16997984D01*
X534467Y-16817031D02*
X543991Y-16807508D01*
X543991Y-16807508D02*
X563039Y-16797984D01*
X563039Y-16797984D02*
X610658Y-16797984D01*
X610658Y-16797984D02*
X629705Y-16807508D01*
X629705Y-16807508D02*
X639229Y-16817031D01*
X639229Y-16817031D02*
X648753Y-16836079D01*
X648753Y-16836079D02*
X648753Y-16855127D01*
X648753Y-16855127D02*
X639229Y-16883698D01*
X639229Y-16883698D02*
X524944Y-16997984D01*
X524944Y-16997984D02*
X648753Y-16997984D01*
X772562Y-16797984D02*
X791610Y-16797984D01*
X791610Y-16797984D02*
X810658Y-16807508D01*
X810658Y-16807508D02*
X820182Y-16817031D01*
X820182Y-16817031D02*
X829705Y-16836079D01*
X829705Y-16836079D02*
X839229Y-16874174D01*
X839229Y-16874174D02*
X839229Y-16921793D01*
X839229Y-16921793D02*
X829705Y-16959889D01*
X829705Y-16959889D02*
X820182Y-16978936D01*
X820182Y-16978936D02*
X810658Y-16988460D01*
X810658Y-16988460D02*
X791610Y-16997984D01*
X791610Y-16997984D02*
X772562Y-16997984D01*
X772562Y-16997984D02*
X753515Y-16988460D01*
X753515Y-16988460D02*
X743991Y-16978936D01*
X743991Y-16978936D02*
X734467Y-16959889D01*
X734467Y-16959889D02*
X724943Y-16921793D01*
X724943Y-16921793D02*
X724943Y-16874174D01*
X724943Y-16874174D02*
X734467Y-16836079D01*
X734467Y-16836079D02*
X743991Y-16817031D01*
X743991Y-16817031D02*
X753515Y-16807508D01*
X753515Y-16807508D02*
X772562Y-16797984D01*
X963039Y-16797984D02*
X982086Y-16797984D01*
X982086Y-16797984D02*
X1001134Y-16807508D01*
X1001134Y-16807508D02*
X1010658Y-16817031D01*
X1010658Y-16817031D02*
X1020182Y-16836079D01*
X1020182Y-16836079D02*
X1029705Y-16874174D01*
X1029705Y-16874174D02*
X1029705Y-16921793D01*
X1029705Y-16921793D02*
X1020182Y-16959889D01*
X1020182Y-16959889D02*
X1010658Y-16978936D01*
X1010658Y-16978936D02*
X1001134Y-16988460D01*
X1001134Y-16988460D02*
X982086Y-16997984D01*
X982086Y-16997984D02*
X963039Y-16997984D01*
X963039Y-16997984D02*
X943991Y-16988460D01*
X943991Y-16988460D02*
X934467Y-16978936D01*
X934467Y-16978936D02*
X924943Y-16959889D01*
X924943Y-16959889D02*
X915420Y-16921793D01*
X915420Y-16921793D02*
X915420Y-16874174D01*
X915420Y-16874174D02*
X924943Y-16836079D01*
X924943Y-16836079D02*
X934467Y-16817031D01*
X934467Y-16817031D02*
X943991Y-16807508D01*
X943991Y-16807508D02*
X963039Y-16797984D01*
X1115420Y-16997984D02*
X1115420Y-16864650D01*
X1115420Y-16883698D02*
X1124944Y-16874174D01*
X1124944Y-16874174D02*
X1143991Y-16864650D01*
X1143991Y-16864650D02*
X1172563Y-16864650D01*
X1172563Y-16864650D02*
X1191610Y-16874174D01*
X1191610Y-16874174D02*
X1201134Y-16893222D01*
X1201134Y-16893222D02*
X1201134Y-16997984D01*
X1201134Y-16893222D02*
X1210658Y-16874174D01*
X1210658Y-16874174D02*
X1229705Y-16864650D01*
X1229705Y-16864650D02*
X1258277Y-16864650D01*
X1258277Y-16864650D02*
X1277325Y-16874174D01*
X1277325Y-16874174D02*
X1286848Y-16893222D01*
X1286848Y-16893222D02*
X1286848Y-16997984D01*
X1382086Y-16997984D02*
X1382086Y-16864650D01*
X1382086Y-16883698D02*
X1391610Y-16874174D01*
X1391610Y-16874174D02*
X1410658Y-16864650D01*
X1410658Y-16864650D02*
X1439229Y-16864650D01*
X1439229Y-16864650D02*
X1458277Y-16874174D01*
X1458277Y-16874174D02*
X1467801Y-16893222D01*
X1467801Y-16893222D02*
X1467801Y-16997984D01*
X1467801Y-16893222D02*
X1477324Y-16874174D01*
X1477324Y-16874174D02*
X1496372Y-16864650D01*
X1496372Y-16864650D02*
X1524943Y-16864650D01*
X1524943Y-16864650D02*
X1543991Y-16874174D01*
X1543991Y-16874174D02*
X1553515Y-16893222D01*
X1553515Y-16893222D02*
X1553515Y-16997984D01*
X1943991Y-16788460D02*
X1772563Y-17045603D01*
X2201134Y-16797984D02*
X2220182Y-16797984D01*
X2220182Y-16797984D02*
X2239229Y-16807508D01*
X2239229Y-16807508D02*
X2248753Y-16817031D01*
X2248753Y-16817031D02*
X2258277Y-16836079D01*
X2258277Y-16836079D02*
X2267801Y-16874174D01*
X2267801Y-16874174D02*
X2267801Y-16921793D01*
X2267801Y-16921793D02*
X2258277Y-16959889D01*
X2258277Y-16959889D02*
X2248753Y-16978936D01*
X2248753Y-16978936D02*
X2239229Y-16988460D01*
X2239229Y-16988460D02*
X2220182Y-16997984D01*
X2220182Y-16997984D02*
X2201134Y-16997984D01*
X2201134Y-16997984D02*
X2182087Y-16988460D01*
X2182087Y-16988460D02*
X2172563Y-16978936D01*
X2172563Y-16978936D02*
X2163039Y-16959889D01*
X2163039Y-16959889D02*
X2153515Y-16921793D01*
X2153515Y-16921793D02*
X2153515Y-16874174D01*
X2153515Y-16874174D02*
X2163039Y-16836079D01*
X2163039Y-16836079D02*
X2172563Y-16817031D01*
X2172563Y-16817031D02*
X2182087Y-16807508D01*
X2182087Y-16807508D02*
X2201134Y-16797984D01*
X2353515Y-16978936D02*
X2363039Y-16988460D01*
X2363039Y-16988460D02*
X2353515Y-16997984D01*
X2353515Y-16997984D02*
X2343991Y-16988460D01*
X2343991Y-16988460D02*
X2353515Y-16978936D01*
X2353515Y-16978936D02*
X2353515Y-16997984D01*
X2553515Y-16997984D02*
X2439229Y-16997984D01*
X2496372Y-16997984D02*
X2496372Y-16797984D01*
X2496372Y-16797984D02*
X2477325Y-16826555D01*
X2477325Y-16826555D02*
X2458277Y-16845603D01*
X2458277Y-16845603D02*
X2439229Y-16855127D01*
X2629706Y-16817031D02*
X2639229Y-16807508D01*
X2639229Y-16807508D02*
X2658277Y-16797984D01*
X2658277Y-16797984D02*
X2705896Y-16797984D01*
X2705896Y-16797984D02*
X2724944Y-16807508D01*
X2724944Y-16807508D02*
X2734468Y-16817031D01*
X2734468Y-16817031D02*
X2743991Y-16836079D01*
X2743991Y-16836079D02*
X2743991Y-16855127D01*
X2743991Y-16855127D02*
X2734468Y-16883698D01*
X2734468Y-16883698D02*
X2620182Y-16997984D01*
X2620182Y-16997984D02*
X2743991Y-16997984D01*
X2915420Y-16797984D02*
X2877325Y-16797984D01*
X2877325Y-16797984D02*
X2858277Y-16807508D01*
X2858277Y-16807508D02*
X2848753Y-16817031D01*
X2848753Y-16817031D02*
X2829706Y-16845603D01*
X2829706Y-16845603D02*
X2820182Y-16883698D01*
X2820182Y-16883698D02*
X2820182Y-16959889D01*
X2820182Y-16959889D02*
X2829706Y-16978936D01*
X2829706Y-16978936D02*
X2839229Y-16988460D01*
X2839229Y-16988460D02*
X2858277Y-16997984D01*
X2858277Y-16997984D02*
X2896372Y-16997984D01*
X2896372Y-16997984D02*
X2915420Y-16988460D01*
X2915420Y-16988460D02*
X2924944Y-16978936D01*
X2924944Y-16978936D02*
X2934467Y-16959889D01*
X2934467Y-16959889D02*
X2934467Y-16912270D01*
X2934467Y-16912270D02*
X2924944Y-16893222D01*
X2924944Y-16893222D02*
X2915420Y-16883698D01*
X2915420Y-16883698D02*
X2896372Y-16874174D01*
X2896372Y-16874174D02*
X2858277Y-16874174D01*
X2858277Y-16874174D02*
X2839229Y-16883698D01*
X2839229Y-16883698D02*
X2829706Y-16893222D01*
X2829706Y-16893222D02*
X2820182Y-16912270D01*
X3058277Y-16797984D02*
X3077325Y-16797984D01*
X3077325Y-16797984D02*
X3096372Y-16807508D01*
X3096372Y-16807508D02*
X3105896Y-16817031D01*
X3105896Y-16817031D02*
X3115420Y-16836079D01*
X3115420Y-16836079D02*
X3124944Y-16874174D01*
X3124944Y-16874174D02*
X3124944Y-16921793D01*
X3124944Y-16921793D02*
X3115420Y-16959889D01*
X3115420Y-16959889D02*
X3105896Y-16978936D01*
X3105896Y-16978936D02*
X3096372Y-16988460D01*
X3096372Y-16988460D02*
X3077325Y-16997984D01*
X3077325Y-16997984D02*
X3058277Y-16997984D01*
X3058277Y-16997984D02*
X3039229Y-16988460D01*
X3039229Y-16988460D02*
X3029706Y-16978936D01*
X3029706Y-16978936D02*
X3020182Y-16959889D01*
X3020182Y-16959889D02*
X3010658Y-16921793D01*
X3010658Y-16921793D02*
X3010658Y-16874174D01*
X3010658Y-16874174D02*
X3020182Y-16836079D01*
X3020182Y-16836079D02*
X3029706Y-16817031D01*
X3029706Y-16817031D02*
X3039229Y-16807508D01*
X3039229Y-16807508D02*
X3058277Y-16797984D01*
X3201134Y-16797984D02*
X3201134Y-16836079D01*
X3277325Y-16797984D02*
X3277325Y-16836079D01*
X3572563Y-17074174D02*
X3563039Y-17064650D01*
X3563039Y-17064650D02*
X3543991Y-17036079D01*
X3543991Y-17036079D02*
X3534468Y-17017031D01*
X3534468Y-17017031D02*
X3524944Y-16988460D01*
X3524944Y-16988460D02*
X3515420Y-16940841D01*
X3515420Y-16940841D02*
X3515420Y-16902746D01*
X3515420Y-16902746D02*
X3524944Y-16855127D01*
X3524944Y-16855127D02*
X3534468Y-16826555D01*
X3534468Y-16826555D02*
X3543991Y-16807508D01*
X3543991Y-16807508D02*
X3563039Y-16778936D01*
X3563039Y-16778936D02*
X3572563Y-16769412D01*
X3734468Y-16864650D02*
X3734468Y-16997984D01*
X3686848Y-16788460D02*
X3639229Y-16931317D01*
X3639229Y-16931317D02*
X3763039Y-16931317D01*
X3991610Y-16997984D02*
X3991610Y-16797984D01*
X4077325Y-16997984D02*
X4077325Y-16893222D01*
X4077325Y-16893222D02*
X4067801Y-16874174D01*
X4067801Y-16874174D02*
X4048753Y-16864650D01*
X4048753Y-16864650D02*
X4020182Y-16864650D01*
X4020182Y-16864650D02*
X4001134Y-16874174D01*
X4001134Y-16874174D02*
X3991610Y-16883698D01*
X4201134Y-16997984D02*
X4182087Y-16988460D01*
X4182087Y-16988460D02*
X4172563Y-16978936D01*
X4172563Y-16978936D02*
X4163039Y-16959889D01*
X4163039Y-16959889D02*
X4163039Y-16902746D01*
X4163039Y-16902746D02*
X4172563Y-16883698D01*
X4172563Y-16883698D02*
X4182087Y-16874174D01*
X4182087Y-16874174D02*
X4201134Y-16864650D01*
X4201134Y-16864650D02*
X4229706Y-16864650D01*
X4229706Y-16864650D02*
X4248753Y-16874174D01*
X4248753Y-16874174D02*
X4258277Y-16883698D01*
X4258277Y-16883698D02*
X4267801Y-16902746D01*
X4267801Y-16902746D02*
X4267801Y-16959889D01*
X4267801Y-16959889D02*
X4258277Y-16978936D01*
X4258277Y-16978936D02*
X4248753Y-16988460D01*
X4248753Y-16988460D02*
X4229706Y-16997984D01*
X4229706Y-16997984D02*
X4201134Y-16997984D01*
X4382087Y-16997984D02*
X4363039Y-16988460D01*
X4363039Y-16988460D02*
X4353515Y-16969412D01*
X4353515Y-16969412D02*
X4353515Y-16797984D01*
X4534468Y-16988460D02*
X4515420Y-16997984D01*
X4515420Y-16997984D02*
X4477325Y-16997984D01*
X4477325Y-16997984D02*
X4458277Y-16988460D01*
X4458277Y-16988460D02*
X4448753Y-16969412D01*
X4448753Y-16969412D02*
X4448753Y-16893222D01*
X4448753Y-16893222D02*
X4458277Y-16874174D01*
X4458277Y-16874174D02*
X4477325Y-16864650D01*
X4477325Y-16864650D02*
X4515420Y-16864650D01*
X4515420Y-16864650D02*
X4534468Y-16874174D01*
X4534468Y-16874174D02*
X4543992Y-16893222D01*
X4543992Y-16893222D02*
X4543992Y-16912270D01*
X4543992Y-16912270D02*
X4448753Y-16931317D01*
X4620182Y-16988460D02*
X4639230Y-16997984D01*
X4639230Y-16997984D02*
X4677325Y-16997984D01*
X4677325Y-16997984D02*
X4696373Y-16988460D01*
X4696373Y-16988460D02*
X4705896Y-16969412D01*
X4705896Y-16969412D02*
X4705896Y-16959889D01*
X4705896Y-16959889D02*
X4696373Y-16940841D01*
X4696373Y-16940841D02*
X4677325Y-16931317D01*
X4677325Y-16931317D02*
X4648753Y-16931317D01*
X4648753Y-16931317D02*
X4629706Y-16921793D01*
X4629706Y-16921793D02*
X4620182Y-16902746D01*
X4620182Y-16902746D02*
X4620182Y-16893222D01*
X4620182Y-16893222D02*
X4629706Y-16874174D01*
X4629706Y-16874174D02*
X4648753Y-16864650D01*
X4648753Y-16864650D02*
X4677325Y-16864650D01*
X4677325Y-16864650D02*
X4696373Y-16874174D01*
X4772563Y-17074174D02*
X4782087Y-17064650D01*
X4782087Y-17064650D02*
X4801134Y-17036079D01*
X4801134Y-17036079D02*
X4810658Y-17017031D01*
X4810658Y-17017031D02*
X4820182Y-16988460D01*
X4820182Y-16988460D02*
X4829706Y-16940841D01*
X4829706Y-16940841D02*
X4829706Y-16902746D01*
X4829706Y-16902746D02*
X4820182Y-16855127D01*
X4820182Y-16855127D02*
X4810658Y-16826555D01*
X4810658Y-16826555D02*
X4801134Y-16807508D01*
X4801134Y-16807508D02*
X4782087Y-16778936D01*
X4782087Y-16778936D02*
X4772563Y-16769412D01*
X5134468Y-17074174D02*
X5124944Y-17064650D01*
X5124944Y-17064650D02*
X5105896Y-17036079D01*
X5105896Y-17036079D02*
X5096373Y-17017031D01*
X5096373Y-17017031D02*
X5086849Y-16988460D01*
X5086849Y-16988460D02*
X5077325Y-16940841D01*
X5077325Y-16940841D02*
X5077325Y-16902746D01*
X5077325Y-16902746D02*
X5086849Y-16855127D01*
X5086849Y-16855127D02*
X5096373Y-16826555D01*
X5096373Y-16826555D02*
X5105896Y-16807508D01*
X5105896Y-16807508D02*
X5124944Y-16778936D01*
X5124944Y-16778936D02*
X5134468Y-16769412D01*
X5210658Y-16864650D02*
X5210658Y-16997984D01*
X5210658Y-16883698D02*
X5220182Y-16874174D01*
X5220182Y-16874174D02*
X5239230Y-16864650D01*
X5239230Y-16864650D02*
X5267801Y-16864650D01*
X5267801Y-16864650D02*
X5286849Y-16874174D01*
X5286849Y-16874174D02*
X5296373Y-16893222D01*
X5296373Y-16893222D02*
X5296373Y-16997984D01*
X5420182Y-16997984D02*
X5401134Y-16988460D01*
X5401134Y-16988460D02*
X5391611Y-16978936D01*
X5391611Y-16978936D02*
X5382087Y-16959889D01*
X5382087Y-16959889D02*
X5382087Y-16902746D01*
X5382087Y-16902746D02*
X5391611Y-16883698D01*
X5391611Y-16883698D02*
X5401134Y-16874174D01*
X5401134Y-16874174D02*
X5420182Y-16864650D01*
X5420182Y-16864650D02*
X5448754Y-16864650D01*
X5448754Y-16864650D02*
X5467801Y-16874174D01*
X5467801Y-16874174D02*
X5477325Y-16883698D01*
X5477325Y-16883698D02*
X5486849Y-16902746D01*
X5486849Y-16902746D02*
X5486849Y-16959889D01*
X5486849Y-16959889D02*
X5477325Y-16978936D01*
X5477325Y-16978936D02*
X5467801Y-16988460D01*
X5467801Y-16988460D02*
X5448754Y-16997984D01*
X5448754Y-16997984D02*
X5420182Y-16997984D01*
X5543992Y-16864650D02*
X5620182Y-16864650D01*
X5572563Y-16797984D02*
X5572563Y-16969412D01*
X5572563Y-16969412D02*
X5582087Y-16988460D01*
X5582087Y-16988460D02*
X5601134Y-16997984D01*
X5601134Y-16997984D02*
X5620182Y-16997984D01*
X5839230Y-16864650D02*
X5839230Y-17064650D01*
X5839230Y-16874174D02*
X5858277Y-16864650D01*
X5858277Y-16864650D02*
X5896373Y-16864650D01*
X5896373Y-16864650D02*
X5915420Y-16874174D01*
X5915420Y-16874174D02*
X5924944Y-16883698D01*
X5924944Y-16883698D02*
X5934468Y-16902746D01*
X5934468Y-16902746D02*
X5934468Y-16959889D01*
X5934468Y-16959889D02*
X5924944Y-16978936D01*
X5924944Y-16978936D02*
X5915420Y-16988460D01*
X5915420Y-16988460D02*
X5896373Y-16997984D01*
X5896373Y-16997984D02*
X5858277Y-16997984D01*
X5858277Y-16997984D02*
X5839230Y-16988460D01*
X6048753Y-16997984D02*
X6029706Y-16988460D01*
X6029706Y-16988460D02*
X6020182Y-16969412D01*
X6020182Y-16969412D02*
X6020182Y-16797984D01*
X6210658Y-16997984D02*
X6210658Y-16893222D01*
X6210658Y-16893222D02*
X6201134Y-16874174D01*
X6201134Y-16874174D02*
X6182087Y-16864650D01*
X6182087Y-16864650D02*
X6143992Y-16864650D01*
X6143992Y-16864650D02*
X6124944Y-16874174D01*
X6210658Y-16988460D02*
X6191611Y-16997984D01*
X6191611Y-16997984D02*
X6143992Y-16997984D01*
X6143992Y-16997984D02*
X6124944Y-16988460D01*
X6124944Y-16988460D02*
X6115420Y-16969412D01*
X6115420Y-16969412D02*
X6115420Y-16950365D01*
X6115420Y-16950365D02*
X6124944Y-16931317D01*
X6124944Y-16931317D02*
X6143992Y-16921793D01*
X6143992Y-16921793D02*
X6191611Y-16921793D01*
X6191611Y-16921793D02*
X6210658Y-16912270D01*
X6277325Y-16864650D02*
X6353515Y-16864650D01*
X6305896Y-16797984D02*
X6305896Y-16969412D01*
X6305896Y-16969412D02*
X6315420Y-16988460D01*
X6315420Y-16988460D02*
X6334468Y-16997984D01*
X6334468Y-16997984D02*
X6353515Y-16997984D01*
X6496373Y-16988460D02*
X6477325Y-16997984D01*
X6477325Y-16997984D02*
X6439230Y-16997984D01*
X6439230Y-16997984D02*
X6420182Y-16988460D01*
X6420182Y-16988460D02*
X6410658Y-16969412D01*
X6410658Y-16969412D02*
X6410658Y-16893222D01*
X6410658Y-16893222D02*
X6420182Y-16874174D01*
X6420182Y-16874174D02*
X6439230Y-16864650D01*
X6439230Y-16864650D02*
X6477325Y-16864650D01*
X6477325Y-16864650D02*
X6496373Y-16874174D01*
X6496373Y-16874174D02*
X6505896Y-16893222D01*
X6505896Y-16893222D02*
X6505896Y-16912270D01*
X6505896Y-16912270D02*
X6410658Y-16931317D01*
X6677325Y-16997984D02*
X6677325Y-16797984D01*
X6677325Y-16988460D02*
X6658277Y-16997984D01*
X6658277Y-16997984D02*
X6620182Y-16997984D01*
X6620182Y-16997984D02*
X6601134Y-16988460D01*
X6601134Y-16988460D02*
X6591611Y-16978936D01*
X6591611Y-16978936D02*
X6582087Y-16959889D01*
X6582087Y-16959889D02*
X6582087Y-16902746D01*
X6582087Y-16902746D02*
X6591611Y-16883698D01*
X6591611Y-16883698D02*
X6601134Y-16874174D01*
X6601134Y-16874174D02*
X6620182Y-16864650D01*
X6620182Y-16864650D02*
X6658277Y-16864650D01*
X6658277Y-16864650D02*
X6677325Y-16874174D01*
X6753515Y-17074174D02*
X6763039Y-17064650D01*
X6763039Y-17064650D02*
X6782087Y-17036079D01*
X6782087Y-17036079D02*
X6791611Y-17017031D01*
X6791611Y-17017031D02*
X6801134Y-16988460D01*
X6801134Y-16988460D02*
X6810658Y-16940841D01*
X6810658Y-16940841D02*
X6810658Y-16902746D01*
X6810658Y-16902746D02*
X6801134Y-16855127D01*
X6801134Y-16855127D02*
X6791611Y-16826555D01*
X6791611Y-16826555D02*
X6782087Y-16807508D01*
X6782087Y-16807508D02*
X6763039Y-16778936D01*
X6763039Y-16778936D02*
X6753515Y-16769412D01*
M02*
