%TF.GenerationSoftware,KiCad,Pcbnew,10.0.5*%
%TF.CreationDate,2026-09-26T15:00:44-04:00*%
%TF.ProjectId,SWAFarmNodeV1,53574146-6172-46d4-9e6f-646556312e6b,POC-R1*%
%TF.SameCoordinates,Original*%
%TF.FileFunction,Paste,Top*%
%TF.FilePolarity,Positive*%
%FSLAX46Y46*%
G04 Gerber Fmt 4.6, Leading zero omitted, Abs format (unit mm)*
G04 Created by KiCad (PCBNEW 10.0.5) date 2026-09-26 15:00:44*
%MOMM*%
%LPD*%
G01*
G04 APERTURE LIST*
G04 Aperture macros list*
%AMRoundRect*
0 Rectangle with rounded corners*
0 $1 Rounding radius*
0 $2 $3 $4 $5 $6 $7 $8 $9 X,Y pos of 4 corners*
0 Add a 4 corners polygon primitive as box body*
4,1,4,$2,$3,$4,$5,$6,$7,$8,$9,$2,$3,0*
0 Add four circle primitives for the rounded corners*
1,1,$1+$1,$2,$3*
1,1,$1+$1,$4,$5*
1,1,$1+$1,$6,$7*
1,1,$1+$1,$8,$9*
0 Add four rect primitives between the rounded corners*
20,1,$1+$1,$2,$3,$4,$5,0*
20,1,$1+$1,$4,$5,$6,$7,0*
20,1,$1+$1,$6,$7,$8,$9,0*
20,1,$1+$1,$8,$9,$2,$3,0*%
G04 Aperture macros list end*
%ADD10RoundRect,0.250000X0.650000X-0.325000X0.650000X0.325000X-0.650000X0.325000X-0.650000X-0.325000X0*%
%ADD11RoundRect,0.250000X-0.262500X-0.450000X0.262500X-0.450000X0.262500X0.450000X-0.262500X0.450000X0*%
%ADD12RoundRect,0.250000X0.450000X-0.262500X0.450000X0.262500X-0.450000X0.262500X-0.450000X-0.262500X0*%
%ADD13R,1.960000X3.150000*%
%ADD14RoundRect,0.150000X-0.587500X-0.150000X0.587500X-0.150000X0.587500X0.150000X-0.587500X0.150000X0*%
%ADD15RoundRect,0.225000X0.250000X-0.225000X0.250000X0.225000X-0.250000X0.225000X-0.250000X-0.225000X0*%
%ADD16RoundRect,0.250000X0.900000X-1.000000X0.900000X1.000000X-0.900000X1.000000X-0.900000X-1.000000X0*%
%ADD17RoundRect,0.150000X-0.150000X0.875000X-0.150000X-0.875000X0.150000X-0.875000X0.150000X0.875000X0*%
%ADD18RoundRect,0.225000X-0.225000X-0.250000X0.225000X-0.250000X0.225000X0.250000X-0.225000X0.250000X0*%
%ADD19RoundRect,0.200000X0.275000X-0.200000X0.275000X0.200000X-0.275000X0.200000X-0.275000X-0.200000X0*%
%ADD20RoundRect,0.225000X0.225000X0.250000X-0.225000X0.250000X-0.225000X-0.250000X0.225000X-0.250000X0*%
%ADD21RoundRect,0.243750X-0.243750X-0.456250X0.243750X-0.456250X0.243750X0.456250X-0.243750X0.456250X0*%
%ADD22RoundRect,0.250000X0.475000X-0.250000X0.475000X0.250000X-0.475000X0.250000X-0.475000X-0.250000X0*%
%ADD23RoundRect,0.250000X-0.325000X-0.650000X0.325000X-0.650000X0.325000X0.650000X-0.325000X0.650000X0*%
%ADD24RoundRect,0.250000X-0.325000X-1.100000X0.325000X-1.100000X0.325000X1.100000X-0.325000X1.100000X0*%
%ADD25RoundRect,0.300000X0.000010X0.325000X-0.000010X0.325000X-0.000010X-0.325000X0.000010X-0.325000X0*%
%ADD26RoundRect,0.150000X0.150000X0.425000X-0.150000X0.425000X-0.150000X-0.425000X0.150000X-0.425000X0*%
%ADD27RoundRect,0.075000X0.075000X0.500000X-0.075000X0.500000X-0.075000X-0.500000X0.075000X-0.500000X0*%
%ADD28O,1.000000X2.100000*%
%ADD29O,1.000000X1.800000*%
%ADD30RoundRect,0.150000X0.150000X-0.587500X0.150000X0.587500X-0.150000X0.587500X-0.150000X-0.587500X0*%
%ADD31RoundRect,0.120000X-0.180000X0.430000X-0.180000X-0.430000X0.180000X-0.430000X0.180000X0.430000X0*%
%ADD32RoundRect,0.050000X-1.600000X-1.600000X1.600000X-1.600000X1.600000X1.600000X-1.600000X1.600000X0*%
%ADD33RoundRect,0.100000X-0.687500X-0.100000X0.687500X-0.100000X0.687500X0.100000X-0.687500X0.100000X0*%
%ADD34RoundRect,0.150000X-0.825000X-0.150000X0.825000X-0.150000X0.825000X0.150000X-0.825000X0.150000X0*%
%ADD35RoundRect,0.200000X-0.200000X-0.275000X0.200000X-0.275000X0.200000X0.275000X-0.200000X0.275000X0*%
%ADD36R,0.900000X1.700000*%
%ADD37R,0.900000X0.900000*%
%ADD38R,1.500000X0.900000*%
%ADD39R,0.900000X1.500000*%
%ADD40RoundRect,0.150000X-0.875000X-0.150000X0.875000X-0.150000X0.875000X0.150000X-0.875000X0.150000X0*%
%ADD41RoundRect,0.250000X0.325000X0.650000X-0.325000X0.650000X-0.325000X-0.650000X0.325000X-0.650000X0*%
%ADD42RoundRect,0.175000X0.725000X0.175000X-0.725000X0.175000X-0.725000X-0.175000X0.725000X-0.175000X0*%
%ADD43RoundRect,0.175000X-0.175000X0.725000X-0.175000X-0.725000X0.175000X-0.725000X0.175000X0.725000X0*%
%ADD44RoundRect,0.250000X-0.250000X-0.475000X0.250000X-0.475000X0.250000X0.475000X-0.250000X0.475000X0*%
G04 APERTURE END LIST*
D10*
%TO.C,C_OUT2*%
X149000000Y-81475000D03*
X149000000Y-78525000D03*
%TD*%
D11*
%TO.C,R_SER2*%
X43087500Y-70000000D03*
X44912500Y-70000000D03*
%TD*%
D12*
%TO.C,R_CC2_1*%
X38000000Y-11912500D03*
X38000000Y-10087500D03*
%TD*%
D13*
%TO.C,F2*%
X164545000Y-104000000D03*
X169455000Y-104000000D03*
%TD*%
D14*
%TO.C,D_CLHI2*%
X56062500Y-77050000D03*
X56062500Y-78950000D03*
X57937500Y-78000000D03*
%TD*%
D15*
%TO.C,C_FILT6*%
X75000000Y-95775000D03*
X75000000Y-94225000D03*
%TD*%
D12*
%TO.C,R_BURDEN6*%
X70000000Y-101912500D03*
X70000000Y-100087500D03*
%TD*%
D16*
%TO.C,D1*%
X171000000Y-80150000D03*
X171000000Y-75850000D03*
%TD*%
D17*
%TO.C,U_VALVEEXP1*%
X111255000Y-77350000D03*
X109985000Y-77350000D03*
X108715000Y-77350000D03*
X107445000Y-77350000D03*
X106175000Y-77350000D03*
X104905000Y-77350000D03*
X103635000Y-77350000D03*
X102365000Y-77350000D03*
X101095000Y-77350000D03*
X99825000Y-77350000D03*
X98555000Y-77350000D03*
X97285000Y-77350000D03*
X96015000Y-77350000D03*
X94745000Y-77350000D03*
X94745000Y-86650000D03*
X96015000Y-86650000D03*
X97285000Y-86650000D03*
X98555000Y-86650000D03*
X99825000Y-86650000D03*
X101095000Y-86650000D03*
X102365000Y-86650000D03*
X103635000Y-86650000D03*
X104905000Y-86650000D03*
X106175000Y-86650000D03*
X107445000Y-86650000D03*
X108715000Y-86650000D03*
X109985000Y-86650000D03*
X111255000Y-86650000D03*
%TD*%
D18*
%TO.C,C_ISODEC1*%
X102225000Y-40000000D03*
X103775000Y-40000000D03*
%TD*%
D13*
%TO.C,F1*%
X178545000Y-78000000D03*
X183455000Y-78000000D03*
%TD*%
D19*
%TO.C,R_RELAY_PD5*%
X103000000Y-95825000D03*
X103000000Y-94175000D03*
%TD*%
D20*
%TO.C,C_ISOOUT1*%
X120275000Y-40000000D03*
X118725000Y-40000000D03*
%TD*%
D12*
%TO.C,R_VBOT6*%
X71000000Y-95912500D03*
X71000000Y-94087500D03*
%TD*%
D19*
%TO.C,R_ISODE1*%
X122000000Y-44825000D03*
X122000000Y-43175000D03*
%TD*%
D12*
%TO.C,R_CC1_1*%
X29000000Y-11912500D03*
X29000000Y-10087500D03*
%TD*%
D21*
%TO.C,D_PWR1*%
X90062500Y-14000000D03*
X91937500Y-14000000D03*
%TD*%
D14*
%TO.C,D_CLHI5*%
X56062500Y-102050000D03*
X56062500Y-103950000D03*
X57937500Y-103000000D03*
%TD*%
%TO.C,D_CLHI3*%
X75062500Y-77050000D03*
X75062500Y-78950000D03*
X76937500Y-78000000D03*
%TD*%
D12*
%TO.C,R_VBOT2*%
X52000000Y-70912500D03*
X52000000Y-69087500D03*
%TD*%
D22*
%TO.C,C_DVDT1*%
X168000000Y-94950000D03*
X168000000Y-93050000D03*
%TD*%
D23*
%TO.C,C_OUT1*%
X160525000Y-74000000D03*
X163475000Y-74000000D03*
%TD*%
D11*
%TO.C,R_LORABOOT1*%
X99087500Y-51000000D03*
X100912500Y-51000000D03*
%TD*%
%TO.C,R_PWR1*%
X95087500Y-14000000D03*
X96912500Y-14000000D03*
%TD*%
%TO.C,R_SER5*%
X43087500Y-95000000D03*
X44912500Y-95000000D03*
%TD*%
%TO.C,R_SHDN1*%
X153087500Y-92000000D03*
X154912500Y-92000000D03*
%TD*%
D21*
%TO.C,D_LINK1*%
X91062500Y-5000000D03*
X92937500Y-5000000D03*
%TD*%
D19*
%TO.C,R_RELAY_PD8*%
X112000000Y-95825000D03*
X112000000Y-94175000D03*
%TD*%
D18*
%TO.C,C_DEC7*%
X80225000Y-70000000D03*
X81775000Y-70000000D03*
%TD*%
D12*
%TO.C,R_UVLO2*%
X153000000Y-80912500D03*
X153000000Y-79087500D03*
%TD*%
D10*
%TO.C,C_IN3*%
X132000000Y-98475000D03*
X132000000Y-95525000D03*
%TD*%
D11*
%TO.C,R_SER3*%
X62087500Y-70000000D03*
X63912500Y-70000000D03*
%TD*%
D24*
%TO.C,C_IN1*%
X173525000Y-84000000D03*
X176475000Y-84000000D03*
%TD*%
D19*
%TO.C,R_RSDE1*%
X103000000Y-45825000D03*
X103000000Y-44175000D03*
%TD*%
D21*
%TO.C,D_FLT1*%
X98062500Y-5000000D03*
X99937500Y-5000000D03*
%TD*%
D12*
%TO.C,R_VBOT4*%
X33000000Y-95912500D03*
X33000000Y-94087500D03*
%TD*%
%TO.C,R_VBOT3*%
X71000000Y-70912500D03*
X71000000Y-69087500D03*
%TD*%
D20*
%TO.C,C_DEC1*%
X52775000Y-9000000D03*
X51225000Y-9000000D03*
%TD*%
D25*
%TO.C,J_USB1*%
X37200000Y-6780000D03*
D26*
X36400000Y-6680000D03*
D27*
X35250000Y-6680000D03*
X34250000Y-6680000D03*
X33750000Y-6680000D03*
X32750000Y-6680000D03*
D26*
X31600000Y-6680000D03*
D25*
X30800000Y-6780000D03*
X30800000Y-6780000D03*
D26*
X31600000Y-6680000D03*
D27*
X32250000Y-6680000D03*
X33250000Y-6680000D03*
X34750000Y-6680000D03*
X35750000Y-6680000D03*
D26*
X36400000Y-6680000D03*
D25*
X37200000Y-6780000D03*
D28*
X38320000Y-6105000D03*
D29*
X38320000Y-1925000D03*
D28*
X29680000Y-6105000D03*
D29*
X29680000Y-1925000D03*
%TD*%
D11*
%TO.C,R_SER4*%
X24087500Y-95000000D03*
X25912500Y-95000000D03*
%TD*%
D19*
%TO.C,R_RELAY_PD6*%
X106000000Y-95825000D03*
X106000000Y-94175000D03*
%TD*%
D17*
%TO.C,U_RELAY1*%
X108080000Y-98350000D03*
X106810000Y-98350000D03*
X105540000Y-98350000D03*
X104270000Y-98350000D03*
X103000000Y-98350000D03*
X101730000Y-98350000D03*
X100460000Y-98350000D03*
X99190000Y-98350000D03*
X97920000Y-98350000D03*
X97920000Y-107650000D03*
X99190000Y-107650000D03*
X100460000Y-107650000D03*
X101730000Y-107650000D03*
X103000000Y-107650000D03*
X104270000Y-107650000D03*
X105540000Y-107650000D03*
X106810000Y-107650000D03*
X108080000Y-107650000D03*
%TD*%
D18*
%TO.C,C_DEC3*%
X77225000Y-27000000D03*
X78775000Y-27000000D03*
%TD*%
D11*
%TO.C,R_SER6*%
X62087500Y-95000000D03*
X63912500Y-95000000D03*
%TD*%
D30*
%TO.C,D_RS485PROT2*%
X148050000Y-21937500D03*
X149950000Y-21937500D03*
X149000000Y-20062500D03*
%TD*%
D12*
%TO.C,R_BURDEN1*%
X32000000Y-76912500D03*
X32000000Y-75087500D03*
%TD*%
%TO.C,R_OVP1*%
X153000000Y-85912500D03*
X153000000Y-84087500D03*
%TD*%
D20*
%TO.C,C_DEC10*%
X99775000Y-39000000D03*
X98225000Y-39000000D03*
%TD*%
D18*
%TO.C,C_DEC5*%
X39225000Y-44000000D03*
X40775000Y-44000000D03*
%TD*%
D15*
%TO.C,C_FILT2*%
X56000000Y-70775000D03*
X56000000Y-69225000D03*
%TD*%
D18*
%TO.C,C_DEC8*%
X85225000Y-84000000D03*
X86775000Y-84000000D03*
%TD*%
D20*
%TO.C,C_RSDEC1*%
X137775000Y-40000000D03*
X136225000Y-40000000D03*
%TD*%
D12*
%TO.C,R_BURDEN2*%
X51000000Y-76912500D03*
X51000000Y-75087500D03*
%TD*%
D18*
%TO.C,C_DEC6*%
X58225000Y-45000000D03*
X59775000Y-45000000D03*
%TD*%
D12*
%TO.C,R_BURDEN3*%
X70000000Y-76912500D03*
X70000000Y-75087500D03*
%TD*%
D15*
%TO.C,C_FILT1*%
X37000000Y-70775000D03*
X37000000Y-69225000D03*
%TD*%
D30*
%TO.C,D_RS485PROT1*%
X118050000Y-21937500D03*
X119950000Y-21937500D03*
X119000000Y-20062500D03*
%TD*%
D14*
%TO.C,D_CLHI1*%
X37062500Y-77050000D03*
X37062500Y-78950000D03*
X38937500Y-78000000D03*
%TD*%
D31*
%TO.C,CMC_RS485_2*%
X154500000Y-20650000D03*
X154500000Y-23350000D03*
X153500000Y-23350000D03*
X153500000Y-20650000D03*
%TD*%
D11*
%TO.C,R_LORARST1*%
X99087500Y-47000000D03*
X100912500Y-47000000D03*
%TD*%
D19*
%TO.C,R_RELAY_PD1*%
X91000000Y-95825000D03*
X91000000Y-94175000D03*
%TD*%
D12*
%TO.C,R_LED2*%
X154000000Y-101912500D03*
X154000000Y-100087500D03*
%TD*%
%TO.C,R_VBOT5*%
X52000000Y-95912500D03*
X52000000Y-94087500D03*
%TD*%
%TO.C,R_IMON1*%
X166000000Y-91912500D03*
X166000000Y-90087500D03*
%TD*%
D11*
%TO.C,R_BIASB1*%
X139087500Y-48000000D03*
X140912500Y-48000000D03*
%TD*%
D10*
%TO.C,C_ISOBULK1*%
X97000000Y-32475000D03*
X97000000Y-29525000D03*
%TD*%
D11*
%TO.C,R_SER1*%
X24087500Y-70000000D03*
X25912500Y-70000000D03*
%TD*%
%TO.C,R_OVP2*%
X155087500Y-88000000D03*
X156912500Y-88000000D03*
%TD*%
D12*
%TO.C,R_VBOT1*%
X33000000Y-70912500D03*
X33000000Y-69087500D03*
%TD*%
D18*
%TO.C,C_DEC4*%
X58225000Y-32000000D03*
X59775000Y-32000000D03*
%TD*%
%TO.C,C_ISOIN1*%
X100225000Y-24000000D03*
X101775000Y-24000000D03*
%TD*%
D10*
%TO.C,C_ISOBULK2*%
X120000000Y-31475000D03*
X120000000Y-28525000D03*
%TD*%
D15*
%TO.C,C_FILT4*%
X37000000Y-95775000D03*
X37000000Y-94225000D03*
%TD*%
D19*
%TO.C,R_RELAY_PD3*%
X97000000Y-95825000D03*
X97000000Y-94175000D03*
%TD*%
%TO.C,R_RELAY_PD7*%
X109000000Y-95825000D03*
X109000000Y-94175000D03*
%TD*%
D21*
%TO.C,D_LED2*%
X153062500Y-105000000D03*
X154937500Y-105000000D03*
%TD*%
D32*
%TO.C,U1*%
X162000000Y-81000000D03*
D33*
X159137500Y-78725000D03*
X159137500Y-79375000D03*
X159137500Y-80025000D03*
X159137500Y-80675000D03*
X159137500Y-81325000D03*
X159137500Y-81975000D03*
X159137500Y-82625000D03*
X159137500Y-83275000D03*
X164862500Y-83275000D03*
X164862500Y-82625000D03*
X164862500Y-81975000D03*
X164862500Y-81325000D03*
X164862500Y-80675000D03*
X164862500Y-80025000D03*
X164862500Y-79375000D03*
X164862500Y-78725000D03*
%TD*%
D10*
%TO.C,C_IN2*%
X132000000Y-81475000D03*
X132000000Y-78525000D03*
%TD*%
D12*
%TO.C,R_ENPU1*%
X48000000Y-18912500D03*
X48000000Y-17087500D03*
%TD*%
D14*
%TO.C,D_CLHI6*%
X75062500Y-102050000D03*
X75062500Y-103950000D03*
X76937500Y-103000000D03*
%TD*%
D18*
%TO.C,C_DEC2*%
X77225000Y-13000000D03*
X78775000Y-13000000D03*
%TD*%
D34*
%TO.C,U_RS485_TX1*%
X127525000Y-41095000D03*
X127525000Y-42365000D03*
X127525000Y-43635000D03*
X127525000Y-44905000D03*
X132475000Y-44905000D03*
X132475000Y-43635000D03*
X132475000Y-42365000D03*
X132475000Y-41095000D03*
%TD*%
D12*
%TO.C,R_BURDEN4*%
X32000000Y-101912500D03*
X32000000Y-100087500D03*
%TD*%
%TO.C,R_BURDEN5*%
X51000000Y-101912500D03*
X51000000Y-100087500D03*
%TD*%
D11*
%TO.C,R_SETUP1*%
X71087500Y-28000000D03*
X72912500Y-28000000D03*
%TD*%
D10*
%TO.C,C_OUT3*%
X149000000Y-98475000D03*
X149000000Y-95525000D03*
%TD*%
D20*
%TO.C,C_DEC9*%
X101775000Y-42000000D03*
X100225000Y-42000000D03*
%TD*%
D15*
%TO.C,C_FILT5*%
X56000000Y-95775000D03*
X56000000Y-94225000D03*
%TD*%
D35*
%TO.C,R_EXP_RESET1*%
X96175000Y-91000000D03*
X97825000Y-91000000D03*
%TD*%
D19*
%TO.C,R_RELAY_PD4*%
X100000000Y-95825000D03*
X100000000Y-94175000D03*
%TD*%
D11*
%TO.C,R_LEDFLT1*%
X98087500Y-9000000D03*
X99912500Y-9000000D03*
%TD*%
%TO.C,R_FLT1*%
X170087500Y-73000000D03*
X171912500Y-73000000D03*
%TD*%
D36*
%TO.C,SW_BOOT1*%
X47300000Y-30000000D03*
X50700000Y-30000000D03*
%TD*%
D15*
%TO.C,C_FILT3*%
X75000000Y-70775000D03*
X75000000Y-69225000D03*
%TD*%
D19*
%TO.C,R_RELAY_PD2*%
X94000000Y-95825000D03*
X94000000Y-94175000D03*
%TD*%
D37*
%TO.C,U_MCU1*%
X62100000Y-14060000D03*
X62100000Y-15460000D03*
X62100000Y-16860000D03*
X63500000Y-14060000D03*
X63500000Y-15460000D03*
X63500000Y-16860000D03*
X64900000Y-14060000D03*
X64900000Y-15460000D03*
X64900000Y-16860000D03*
D38*
X56250000Y-7740000D03*
X56250000Y-9010000D03*
X56250000Y-10280000D03*
X56250000Y-11550000D03*
X56250000Y-12820000D03*
X56250000Y-14090000D03*
X56250000Y-15360000D03*
X56250000Y-16630000D03*
X56250000Y-17900000D03*
X56250000Y-19170000D03*
X56250000Y-20440000D03*
X56250000Y-21710000D03*
X56250000Y-22980000D03*
X56250000Y-24250000D03*
D39*
X58015000Y-25500000D03*
X59285000Y-25500000D03*
X60555000Y-25500000D03*
X61825000Y-25500000D03*
X63095000Y-25500000D03*
X64365000Y-25500000D03*
X65635000Y-25500000D03*
X66905000Y-25500000D03*
X68175000Y-25500000D03*
X69445000Y-25500000D03*
X70715000Y-25500000D03*
X71985000Y-25500000D03*
D38*
X73750000Y-24250000D03*
X73750000Y-22980000D03*
X73750000Y-21710000D03*
X73750000Y-20440000D03*
X73750000Y-19170000D03*
X73750000Y-17900000D03*
X73750000Y-16630000D03*
X73750000Y-15360000D03*
X73750000Y-14090000D03*
X73750000Y-12820000D03*
X73750000Y-11550000D03*
X73750000Y-10280000D03*
X73750000Y-9010000D03*
X73750000Y-7740000D03*
%TD*%
D19*
%TO.C,R_ILIM1*%
X169000000Y-89825000D03*
X169000000Y-88175000D03*
%TD*%
D11*
%TO.C,R_BIASA1*%
X139087500Y-44000000D03*
X140912500Y-44000000D03*
%TD*%
%TO.C,R_BOOT1*%
X54087500Y-30000000D03*
X55912500Y-30000000D03*
%TD*%
D40*
%TO.C,U_ISO1*%
X106350000Y-40555000D03*
X106350000Y-41825000D03*
X106350000Y-43095000D03*
X106350000Y-44365000D03*
X106350000Y-45635000D03*
X106350000Y-46905000D03*
X106350000Y-48175000D03*
X106350000Y-49445000D03*
X115650000Y-49445000D03*
X115650000Y-48175000D03*
X115650000Y-46905000D03*
X115650000Y-45635000D03*
X115650000Y-44365000D03*
X115650000Y-43095000D03*
X115650000Y-41825000D03*
X115650000Y-40555000D03*
%TD*%
D12*
%TO.C,R_TERM1*%
X139000000Y-52912500D03*
X139000000Y-51087500D03*
%TD*%
D36*
%TO.C,SW_RESET1*%
X41300000Y-25000000D03*
X44700000Y-25000000D03*
%TD*%
%TO.C,SW_SETUP1*%
X70300000Y-32000000D03*
X73700000Y-32000000D03*
%TD*%
D41*
%TO.C,C_BULK2*%
X48475000Y-9000000D03*
X45525000Y-9000000D03*
%TD*%
D15*
%TO.C,C_EXP1*%
X101000000Y-73775000D03*
X101000000Y-72225000D03*
%TD*%
D42*
%TO.C,U_LORA1*%
X80600000Y-46000000D03*
X80600000Y-47000000D03*
X80600000Y-48000000D03*
X80600000Y-49000000D03*
X80600000Y-50000000D03*
X80600000Y-51000000D03*
X80600000Y-52000000D03*
X80600000Y-53000000D03*
X80600000Y-54000000D03*
X80600000Y-55000000D03*
X80600000Y-56000000D03*
X80600000Y-57000000D03*
D43*
X88500000Y-59150000D03*
X89500000Y-59150000D03*
X90500000Y-59150000D03*
X91500000Y-59150000D03*
D42*
X95400000Y-57000000D03*
X95400000Y-56000000D03*
X95400000Y-55000000D03*
X95400000Y-50000000D03*
X95400000Y-49000000D03*
X95400000Y-48000000D03*
X95400000Y-47000000D03*
X95400000Y-46000000D03*
D43*
X91500000Y-44350000D03*
X90500000Y-44350000D03*
X89500000Y-44350000D03*
X88500000Y-44350000D03*
X87500000Y-44350000D03*
X86500000Y-44350000D03*
X85500000Y-44350000D03*
X84500000Y-44350000D03*
%TD*%
D12*
%TO.C,R_UVLO1*%
X153000000Y-75912500D03*
X153000000Y-74087500D03*
%TD*%
D14*
%TO.C,D_CLHI4*%
X37062500Y-102050000D03*
X37062500Y-103950000D03*
X38937500Y-103000000D03*
%TD*%
D11*
%TO.C,R_LINK1*%
X91087500Y-9000000D03*
X92912500Y-9000000D03*
%TD*%
D31*
%TO.C,CMC_RS485_1*%
X124500000Y-20650000D03*
X124500000Y-23350000D03*
X123500000Y-23350000D03*
X123500000Y-20650000D03*
%TD*%
D18*
%TO.C,C_RELAY1*%
X96225000Y-110000000D03*
X97775000Y-110000000D03*
%TD*%
D44*
%TO.C,C_EN1*%
X51050000Y-14000000D03*
X52950000Y-14000000D03*
%TD*%
M02*
