%TF.GenerationSoftware,KiCad,Pcbnew,10.0.5*%
%TF.CreationDate,2026-09-26T15:00:44-04:00*%
%TF.ProjectId,SWAFarmNodeV1,53574146-6172-46d4-9e6f-646556312e6b,POC-R1*%
%TF.SameCoordinates,Original*%
%TF.FileFunction,Legend,Bot*%
%TF.FilePolarity,Positive*%
%FSLAX46Y46*%
G04 Gerber Fmt 4.6, Leading zero omitted, Abs format (unit mm)*
G04 Created by KiCad (PCBNEW 10.0.5) date 2026-09-26 15:00:44*
%MOMM*%
%LPD*%
G01*
G04 APERTURE LIST*
%ADD10C,0.150000*%
G04 APERTURE END LIST*
D10*
X9785714Y-150859580D02*
X9833333Y-150907200D01*
X9833333Y-150907200D02*
X9976190Y-150954819D01*
X9976190Y-150954819D02*
X10071428Y-150954819D01*
X10071428Y-150954819D02*
X10214285Y-150907200D01*
X10214285Y-150907200D02*
X10309523Y-150811961D01*
X10309523Y-150811961D02*
X10357142Y-150716723D01*
X10357142Y-150716723D02*
X10404761Y-150526247D01*
X10404761Y-150526247D02*
X10404761Y-150383390D01*
X10404761Y-150383390D02*
X10357142Y-150192914D01*
X10357142Y-150192914D02*
X10309523Y-150097676D01*
X10309523Y-150097676D02*
X10214285Y-150002438D01*
X10214285Y-150002438D02*
X10071428Y-149954819D01*
X10071428Y-149954819D02*
X9976190Y-149954819D01*
X9976190Y-149954819D02*
X9833333Y-150002438D01*
X9833333Y-150002438D02*
X9785714Y-150050057D01*
X9166666Y-149954819D02*
X8976190Y-149954819D01*
X8976190Y-149954819D02*
X8880952Y-150002438D01*
X8880952Y-150002438D02*
X8785714Y-150097676D01*
X8785714Y-150097676D02*
X8738095Y-150288152D01*
X8738095Y-150288152D02*
X8738095Y-150621485D01*
X8738095Y-150621485D02*
X8785714Y-150811961D01*
X8785714Y-150811961D02*
X8880952Y-150907200D01*
X8880952Y-150907200D02*
X8976190Y-150954819D01*
X8976190Y-150954819D02*
X9166666Y-150954819D01*
X9166666Y-150954819D02*
X9261904Y-150907200D01*
X9261904Y-150907200D02*
X9357142Y-150811961D01*
X9357142Y-150811961D02*
X9404761Y-150621485D01*
X9404761Y-150621485D02*
X9404761Y-150288152D01*
X9404761Y-150288152D02*
X9357142Y-150097676D01*
X9357142Y-150097676D02*
X9261904Y-150002438D01*
X9261904Y-150002438D02*
X9166666Y-149954819D01*
X8309523Y-150954819D02*
X8309523Y-149954819D01*
X8309523Y-149954819D02*
X7976190Y-150669104D01*
X7976190Y-150669104D02*
X7642857Y-149954819D01*
X7642857Y-149954819D02*
X7642857Y-150954819D01*
X14889523Y-150954819D02*
X14889523Y-149954819D01*
X14889523Y-149954819D02*
X14318095Y-150954819D01*
X14318095Y-150954819D02*
X14318095Y-149954819D01*
X13651428Y-149954819D02*
X13460952Y-149954819D01*
X13460952Y-149954819D02*
X13365714Y-150002438D01*
X13365714Y-150002438D02*
X13270476Y-150097676D01*
X13270476Y-150097676D02*
X13222857Y-150288152D01*
X13222857Y-150288152D02*
X13222857Y-150621485D01*
X13222857Y-150621485D02*
X13270476Y-150811961D01*
X13270476Y-150811961D02*
X13365714Y-150907200D01*
X13365714Y-150907200D02*
X13460952Y-150954819D01*
X13460952Y-150954819D02*
X13651428Y-150954819D01*
X13651428Y-150954819D02*
X13746666Y-150907200D01*
X13746666Y-150907200D02*
X13841904Y-150811961D01*
X13841904Y-150811961D02*
X13889523Y-150621485D01*
X13889523Y-150621485D02*
X13889523Y-150288152D01*
X13889523Y-150288152D02*
X13841904Y-150097676D01*
X13841904Y-150097676D02*
X13746666Y-150002438D01*
X13746666Y-150002438D02*
X13651428Y-149954819D01*
X16000000Y-30454819D02*
X16333333Y-29978628D01*
X16571428Y-30454819D02*
X16571428Y-29454819D01*
X16571428Y-29454819D02*
X16190476Y-29454819D01*
X16190476Y-29454819D02*
X16095238Y-29502438D01*
X16095238Y-29502438D02*
X16047619Y-29550057D01*
X16047619Y-29550057D02*
X16000000Y-29645295D01*
X16000000Y-29645295D02*
X16000000Y-29788152D01*
X16000000Y-29788152D02*
X16047619Y-29883390D01*
X16047619Y-29883390D02*
X16095238Y-29931009D01*
X16095238Y-29931009D02*
X16190476Y-29978628D01*
X16190476Y-29978628D02*
X16571428Y-29978628D01*
X15571428Y-29931009D02*
X15238095Y-29931009D01*
X15095238Y-30454819D02*
X15571428Y-30454819D01*
X15571428Y-30454819D02*
X15571428Y-29454819D01*
X15571428Y-29454819D02*
X15095238Y-29454819D01*
X14809523Y-29454819D02*
X14238095Y-29454819D01*
X14523809Y-30454819D02*
X14523809Y-29454819D01*
X13380952Y-30454819D02*
X13952380Y-30454819D01*
X13666666Y-30454819D02*
X13666666Y-29454819D01*
X13666666Y-29454819D02*
X13761904Y-29597676D01*
X13761904Y-29597676D02*
X13857142Y-29692914D01*
X13857142Y-29692914D02*
X13952380Y-29740533D01*
X16000000Y-35534819D02*
X16333333Y-35058628D01*
X16571428Y-35534819D02*
X16571428Y-34534819D01*
X16571428Y-34534819D02*
X16190476Y-34534819D01*
X16190476Y-34534819D02*
X16095238Y-34582438D01*
X16095238Y-34582438D02*
X16047619Y-34630057D01*
X16047619Y-34630057D02*
X16000000Y-34725295D01*
X16000000Y-34725295D02*
X16000000Y-34868152D01*
X16000000Y-34868152D02*
X16047619Y-34963390D01*
X16047619Y-34963390D02*
X16095238Y-35011009D01*
X16095238Y-35011009D02*
X16190476Y-35058628D01*
X16190476Y-35058628D02*
X16571428Y-35058628D01*
X15571428Y-35011009D02*
X15238095Y-35011009D01*
X15095238Y-35534819D02*
X15571428Y-35534819D01*
X15571428Y-35534819D02*
X15571428Y-34534819D01*
X15571428Y-34534819D02*
X15095238Y-34534819D01*
X14809523Y-34534819D02*
X14238095Y-34534819D01*
X14523809Y-35534819D02*
X14523809Y-34534819D01*
X13952380Y-34630057D02*
X13904761Y-34582438D01*
X13904761Y-34582438D02*
X13809523Y-34534819D01*
X13809523Y-34534819D02*
X13571428Y-34534819D01*
X13571428Y-34534819D02*
X13476190Y-34582438D01*
X13476190Y-34582438D02*
X13428571Y-34630057D01*
X13428571Y-34630057D02*
X13380952Y-34725295D01*
X13380952Y-34725295D02*
X13380952Y-34820533D01*
X13380952Y-34820533D02*
X13428571Y-34963390D01*
X13428571Y-34963390D02*
X13999999Y-35534819D01*
X13999999Y-35534819D02*
X13380952Y-35534819D01*
X16000000Y-40614819D02*
X16333333Y-40138628D01*
X16571428Y-40614819D02*
X16571428Y-39614819D01*
X16571428Y-39614819D02*
X16190476Y-39614819D01*
X16190476Y-39614819D02*
X16095238Y-39662438D01*
X16095238Y-39662438D02*
X16047619Y-39710057D01*
X16047619Y-39710057D02*
X16000000Y-39805295D01*
X16000000Y-39805295D02*
X16000000Y-39948152D01*
X16000000Y-39948152D02*
X16047619Y-40043390D01*
X16047619Y-40043390D02*
X16095238Y-40091009D01*
X16095238Y-40091009D02*
X16190476Y-40138628D01*
X16190476Y-40138628D02*
X16571428Y-40138628D01*
X15571428Y-40091009D02*
X15238095Y-40091009D01*
X15095238Y-40614819D02*
X15571428Y-40614819D01*
X15571428Y-40614819D02*
X15571428Y-39614819D01*
X15571428Y-39614819D02*
X15095238Y-39614819D01*
X14809523Y-39614819D02*
X14238095Y-39614819D01*
X14523809Y-40614819D02*
X14523809Y-39614819D01*
X13999999Y-39614819D02*
X13380952Y-39614819D01*
X13380952Y-39614819D02*
X13714285Y-39995771D01*
X13714285Y-39995771D02*
X13571428Y-39995771D01*
X13571428Y-39995771D02*
X13476190Y-40043390D01*
X13476190Y-40043390D02*
X13428571Y-40091009D01*
X13428571Y-40091009D02*
X13380952Y-40186247D01*
X13380952Y-40186247D02*
X13380952Y-40424342D01*
X13380952Y-40424342D02*
X13428571Y-40519580D01*
X13428571Y-40519580D02*
X13476190Y-40567200D01*
X13476190Y-40567200D02*
X13571428Y-40614819D01*
X13571428Y-40614819D02*
X13857142Y-40614819D01*
X13857142Y-40614819D02*
X13952380Y-40567200D01*
X13952380Y-40567200D02*
X13999999Y-40519580D01*
X16000000Y-45694819D02*
X16333333Y-45218628D01*
X16571428Y-45694819D02*
X16571428Y-44694819D01*
X16571428Y-44694819D02*
X16190476Y-44694819D01*
X16190476Y-44694819D02*
X16095238Y-44742438D01*
X16095238Y-44742438D02*
X16047619Y-44790057D01*
X16047619Y-44790057D02*
X16000000Y-44885295D01*
X16000000Y-44885295D02*
X16000000Y-45028152D01*
X16000000Y-45028152D02*
X16047619Y-45123390D01*
X16047619Y-45123390D02*
X16095238Y-45171009D01*
X16095238Y-45171009D02*
X16190476Y-45218628D01*
X16190476Y-45218628D02*
X16571428Y-45218628D01*
X15571428Y-45171009D02*
X15238095Y-45171009D01*
X15095238Y-45694819D02*
X15571428Y-45694819D01*
X15571428Y-45694819D02*
X15571428Y-44694819D01*
X15571428Y-44694819D02*
X15095238Y-44694819D01*
X14809523Y-44694819D02*
X14238095Y-44694819D01*
X14523809Y-45694819D02*
X14523809Y-44694819D01*
X13476190Y-45028152D02*
X13476190Y-45694819D01*
X13714285Y-44647200D02*
X13952380Y-45361485D01*
X13952380Y-45361485D02*
X13333333Y-45361485D01*
X16000000Y-50774819D02*
X16333333Y-50298628D01*
X16571428Y-50774819D02*
X16571428Y-49774819D01*
X16571428Y-49774819D02*
X16190476Y-49774819D01*
X16190476Y-49774819D02*
X16095238Y-49822438D01*
X16095238Y-49822438D02*
X16047619Y-49870057D01*
X16047619Y-49870057D02*
X16000000Y-49965295D01*
X16000000Y-49965295D02*
X16000000Y-50108152D01*
X16000000Y-50108152D02*
X16047619Y-50203390D01*
X16047619Y-50203390D02*
X16095238Y-50251009D01*
X16095238Y-50251009D02*
X16190476Y-50298628D01*
X16190476Y-50298628D02*
X16571428Y-50298628D01*
X15571428Y-50251009D02*
X15238095Y-50251009D01*
X15095238Y-50774819D02*
X15571428Y-50774819D01*
X15571428Y-50774819D02*
X15571428Y-49774819D01*
X15571428Y-49774819D02*
X15095238Y-49774819D01*
X14809523Y-49774819D02*
X14238095Y-49774819D01*
X14523809Y-50774819D02*
X14523809Y-49774819D01*
X13428571Y-49774819D02*
X13904761Y-49774819D01*
X13904761Y-49774819D02*
X13952380Y-50251009D01*
X13952380Y-50251009D02*
X13904761Y-50203390D01*
X13904761Y-50203390D02*
X13809523Y-50155771D01*
X13809523Y-50155771D02*
X13571428Y-50155771D01*
X13571428Y-50155771D02*
X13476190Y-50203390D01*
X13476190Y-50203390D02*
X13428571Y-50251009D01*
X13428571Y-50251009D02*
X13380952Y-50346247D01*
X13380952Y-50346247D02*
X13380952Y-50584342D01*
X13380952Y-50584342D02*
X13428571Y-50679580D01*
X13428571Y-50679580D02*
X13476190Y-50727200D01*
X13476190Y-50727200D02*
X13571428Y-50774819D01*
X13571428Y-50774819D02*
X13809523Y-50774819D01*
X13809523Y-50774819D02*
X13904761Y-50727200D01*
X13904761Y-50727200D02*
X13952380Y-50679580D01*
X16000000Y-55854819D02*
X16333333Y-55378628D01*
X16571428Y-55854819D02*
X16571428Y-54854819D01*
X16571428Y-54854819D02*
X16190476Y-54854819D01*
X16190476Y-54854819D02*
X16095238Y-54902438D01*
X16095238Y-54902438D02*
X16047619Y-54950057D01*
X16047619Y-54950057D02*
X16000000Y-55045295D01*
X16000000Y-55045295D02*
X16000000Y-55188152D01*
X16000000Y-55188152D02*
X16047619Y-55283390D01*
X16047619Y-55283390D02*
X16095238Y-55331009D01*
X16095238Y-55331009D02*
X16190476Y-55378628D01*
X16190476Y-55378628D02*
X16571428Y-55378628D01*
X15571428Y-55331009D02*
X15238095Y-55331009D01*
X15095238Y-55854819D02*
X15571428Y-55854819D01*
X15571428Y-55854819D02*
X15571428Y-54854819D01*
X15571428Y-54854819D02*
X15095238Y-54854819D01*
X14809523Y-54854819D02*
X14238095Y-54854819D01*
X14523809Y-55854819D02*
X14523809Y-54854819D01*
X13476190Y-54854819D02*
X13666666Y-54854819D01*
X13666666Y-54854819D02*
X13761904Y-54902438D01*
X13761904Y-54902438D02*
X13809523Y-54950057D01*
X13809523Y-54950057D02*
X13904761Y-55092914D01*
X13904761Y-55092914D02*
X13952380Y-55283390D01*
X13952380Y-55283390D02*
X13952380Y-55664342D01*
X13952380Y-55664342D02*
X13904761Y-55759580D01*
X13904761Y-55759580D02*
X13857142Y-55807200D01*
X13857142Y-55807200D02*
X13761904Y-55854819D01*
X13761904Y-55854819D02*
X13571428Y-55854819D01*
X13571428Y-55854819D02*
X13476190Y-55807200D01*
X13476190Y-55807200D02*
X13428571Y-55759580D01*
X13428571Y-55759580D02*
X13380952Y-55664342D01*
X13380952Y-55664342D02*
X13380952Y-55426247D01*
X13380952Y-55426247D02*
X13428571Y-55331009D01*
X13428571Y-55331009D02*
X13476190Y-55283390D01*
X13476190Y-55283390D02*
X13571428Y-55235771D01*
X13571428Y-55235771D02*
X13761904Y-55235771D01*
X13761904Y-55235771D02*
X13857142Y-55283390D01*
X13857142Y-55283390D02*
X13904761Y-55331009D01*
X13904761Y-55331009D02*
X13952380Y-55426247D01*
X16499999Y-70407200D02*
X16357142Y-70454819D01*
X16357142Y-70454819D02*
X16119047Y-70454819D01*
X16119047Y-70454819D02*
X16023809Y-70407200D01*
X16023809Y-70407200D02*
X15976190Y-70359580D01*
X15976190Y-70359580D02*
X15928571Y-70264342D01*
X15928571Y-70264342D02*
X15928571Y-70169104D01*
X15928571Y-70169104D02*
X15976190Y-70073866D01*
X15976190Y-70073866D02*
X16023809Y-70026247D01*
X16023809Y-70026247D02*
X16119047Y-69978628D01*
X16119047Y-69978628D02*
X16309523Y-69931009D01*
X16309523Y-69931009D02*
X16404761Y-69883390D01*
X16404761Y-69883390D02*
X16452380Y-69835771D01*
X16452380Y-69835771D02*
X16499999Y-69740533D01*
X16499999Y-69740533D02*
X16499999Y-69645295D01*
X16499999Y-69645295D02*
X16452380Y-69550057D01*
X16452380Y-69550057D02*
X16404761Y-69502438D01*
X16404761Y-69502438D02*
X16309523Y-69454819D01*
X16309523Y-69454819D02*
X16071428Y-69454819D01*
X16071428Y-69454819D02*
X15928571Y-69502438D01*
X15499999Y-70454819D02*
X15499999Y-69454819D01*
X14500000Y-69502438D02*
X14595238Y-69454819D01*
X14595238Y-69454819D02*
X14738095Y-69454819D01*
X14738095Y-69454819D02*
X14880952Y-69502438D01*
X14880952Y-69502438D02*
X14976190Y-69597676D01*
X14976190Y-69597676D02*
X15023809Y-69692914D01*
X15023809Y-69692914D02*
X15071428Y-69883390D01*
X15071428Y-69883390D02*
X15071428Y-70026247D01*
X15071428Y-70026247D02*
X15023809Y-70216723D01*
X15023809Y-70216723D02*
X14976190Y-70311961D01*
X14976190Y-70311961D02*
X14880952Y-70407200D01*
X14880952Y-70407200D02*
X14738095Y-70454819D01*
X14738095Y-70454819D02*
X14642857Y-70454819D01*
X14642857Y-70454819D02*
X14500000Y-70407200D01*
X14500000Y-70407200D02*
X14452381Y-70359580D01*
X14452381Y-70359580D02*
X14452381Y-70026247D01*
X14452381Y-70026247D02*
X14642857Y-70026247D01*
X13500000Y-70454819D02*
X14071428Y-70454819D01*
X13785714Y-70454819D02*
X13785714Y-69454819D01*
X13785714Y-69454819D02*
X13880952Y-69597676D01*
X13880952Y-69597676D02*
X13976190Y-69692914D01*
X13976190Y-69692914D02*
X14071428Y-69740533D01*
X16499999Y-75487200D02*
X16357142Y-75534819D01*
X16357142Y-75534819D02*
X16119047Y-75534819D01*
X16119047Y-75534819D02*
X16023809Y-75487200D01*
X16023809Y-75487200D02*
X15976190Y-75439580D01*
X15976190Y-75439580D02*
X15928571Y-75344342D01*
X15928571Y-75344342D02*
X15928571Y-75249104D01*
X15928571Y-75249104D02*
X15976190Y-75153866D01*
X15976190Y-75153866D02*
X16023809Y-75106247D01*
X16023809Y-75106247D02*
X16119047Y-75058628D01*
X16119047Y-75058628D02*
X16309523Y-75011009D01*
X16309523Y-75011009D02*
X16404761Y-74963390D01*
X16404761Y-74963390D02*
X16452380Y-74915771D01*
X16452380Y-74915771D02*
X16499999Y-74820533D01*
X16499999Y-74820533D02*
X16499999Y-74725295D01*
X16499999Y-74725295D02*
X16452380Y-74630057D01*
X16452380Y-74630057D02*
X16404761Y-74582438D01*
X16404761Y-74582438D02*
X16309523Y-74534819D01*
X16309523Y-74534819D02*
X16071428Y-74534819D01*
X16071428Y-74534819D02*
X15928571Y-74582438D01*
X15499999Y-75534819D02*
X15499999Y-74534819D01*
X14500000Y-74582438D02*
X14595238Y-74534819D01*
X14595238Y-74534819D02*
X14738095Y-74534819D01*
X14738095Y-74534819D02*
X14880952Y-74582438D01*
X14880952Y-74582438D02*
X14976190Y-74677676D01*
X14976190Y-74677676D02*
X15023809Y-74772914D01*
X15023809Y-74772914D02*
X15071428Y-74963390D01*
X15071428Y-74963390D02*
X15071428Y-75106247D01*
X15071428Y-75106247D02*
X15023809Y-75296723D01*
X15023809Y-75296723D02*
X14976190Y-75391961D01*
X14976190Y-75391961D02*
X14880952Y-75487200D01*
X14880952Y-75487200D02*
X14738095Y-75534819D01*
X14738095Y-75534819D02*
X14642857Y-75534819D01*
X14642857Y-75534819D02*
X14500000Y-75487200D01*
X14500000Y-75487200D02*
X14452381Y-75439580D01*
X14452381Y-75439580D02*
X14452381Y-75106247D01*
X14452381Y-75106247D02*
X14642857Y-75106247D01*
X14071428Y-74630057D02*
X14023809Y-74582438D01*
X14023809Y-74582438D02*
X13928571Y-74534819D01*
X13928571Y-74534819D02*
X13690476Y-74534819D01*
X13690476Y-74534819D02*
X13595238Y-74582438D01*
X13595238Y-74582438D02*
X13547619Y-74630057D01*
X13547619Y-74630057D02*
X13500000Y-74725295D01*
X13500000Y-74725295D02*
X13500000Y-74820533D01*
X13500000Y-74820533D02*
X13547619Y-74963390D01*
X13547619Y-74963390D02*
X14119047Y-75534819D01*
X14119047Y-75534819D02*
X13500000Y-75534819D01*
X16499999Y-80567200D02*
X16357142Y-80614819D01*
X16357142Y-80614819D02*
X16119047Y-80614819D01*
X16119047Y-80614819D02*
X16023809Y-80567200D01*
X16023809Y-80567200D02*
X15976190Y-80519580D01*
X15976190Y-80519580D02*
X15928571Y-80424342D01*
X15928571Y-80424342D02*
X15928571Y-80329104D01*
X15928571Y-80329104D02*
X15976190Y-80233866D01*
X15976190Y-80233866D02*
X16023809Y-80186247D01*
X16023809Y-80186247D02*
X16119047Y-80138628D01*
X16119047Y-80138628D02*
X16309523Y-80091009D01*
X16309523Y-80091009D02*
X16404761Y-80043390D01*
X16404761Y-80043390D02*
X16452380Y-79995771D01*
X16452380Y-79995771D02*
X16499999Y-79900533D01*
X16499999Y-79900533D02*
X16499999Y-79805295D01*
X16499999Y-79805295D02*
X16452380Y-79710057D01*
X16452380Y-79710057D02*
X16404761Y-79662438D01*
X16404761Y-79662438D02*
X16309523Y-79614819D01*
X16309523Y-79614819D02*
X16071428Y-79614819D01*
X16071428Y-79614819D02*
X15928571Y-79662438D01*
X15499999Y-80614819D02*
X15499999Y-79614819D01*
X14500000Y-79662438D02*
X14595238Y-79614819D01*
X14595238Y-79614819D02*
X14738095Y-79614819D01*
X14738095Y-79614819D02*
X14880952Y-79662438D01*
X14880952Y-79662438D02*
X14976190Y-79757676D01*
X14976190Y-79757676D02*
X15023809Y-79852914D01*
X15023809Y-79852914D02*
X15071428Y-80043390D01*
X15071428Y-80043390D02*
X15071428Y-80186247D01*
X15071428Y-80186247D02*
X15023809Y-80376723D01*
X15023809Y-80376723D02*
X14976190Y-80471961D01*
X14976190Y-80471961D02*
X14880952Y-80567200D01*
X14880952Y-80567200D02*
X14738095Y-80614819D01*
X14738095Y-80614819D02*
X14642857Y-80614819D01*
X14642857Y-80614819D02*
X14500000Y-80567200D01*
X14500000Y-80567200D02*
X14452381Y-80519580D01*
X14452381Y-80519580D02*
X14452381Y-80186247D01*
X14452381Y-80186247D02*
X14642857Y-80186247D01*
X14119047Y-79614819D02*
X13500000Y-79614819D01*
X13500000Y-79614819D02*
X13833333Y-79995771D01*
X13833333Y-79995771D02*
X13690476Y-79995771D01*
X13690476Y-79995771D02*
X13595238Y-80043390D01*
X13595238Y-80043390D02*
X13547619Y-80091009D01*
X13547619Y-80091009D02*
X13500000Y-80186247D01*
X13500000Y-80186247D02*
X13500000Y-80424342D01*
X13500000Y-80424342D02*
X13547619Y-80519580D01*
X13547619Y-80519580D02*
X13595238Y-80567200D01*
X13595238Y-80567200D02*
X13690476Y-80614819D01*
X13690476Y-80614819D02*
X13976190Y-80614819D01*
X13976190Y-80614819D02*
X14071428Y-80567200D01*
X14071428Y-80567200D02*
X14119047Y-80519580D01*
X16499999Y-85647200D02*
X16357142Y-85694819D01*
X16357142Y-85694819D02*
X16119047Y-85694819D01*
X16119047Y-85694819D02*
X16023809Y-85647200D01*
X16023809Y-85647200D02*
X15976190Y-85599580D01*
X15976190Y-85599580D02*
X15928571Y-85504342D01*
X15928571Y-85504342D02*
X15928571Y-85409104D01*
X15928571Y-85409104D02*
X15976190Y-85313866D01*
X15976190Y-85313866D02*
X16023809Y-85266247D01*
X16023809Y-85266247D02*
X16119047Y-85218628D01*
X16119047Y-85218628D02*
X16309523Y-85171009D01*
X16309523Y-85171009D02*
X16404761Y-85123390D01*
X16404761Y-85123390D02*
X16452380Y-85075771D01*
X16452380Y-85075771D02*
X16499999Y-84980533D01*
X16499999Y-84980533D02*
X16499999Y-84885295D01*
X16499999Y-84885295D02*
X16452380Y-84790057D01*
X16452380Y-84790057D02*
X16404761Y-84742438D01*
X16404761Y-84742438D02*
X16309523Y-84694819D01*
X16309523Y-84694819D02*
X16071428Y-84694819D01*
X16071428Y-84694819D02*
X15928571Y-84742438D01*
X15499999Y-85694819D02*
X15499999Y-84694819D01*
X14500000Y-84742438D02*
X14595238Y-84694819D01*
X14595238Y-84694819D02*
X14738095Y-84694819D01*
X14738095Y-84694819D02*
X14880952Y-84742438D01*
X14880952Y-84742438D02*
X14976190Y-84837676D01*
X14976190Y-84837676D02*
X15023809Y-84932914D01*
X15023809Y-84932914D02*
X15071428Y-85123390D01*
X15071428Y-85123390D02*
X15071428Y-85266247D01*
X15071428Y-85266247D02*
X15023809Y-85456723D01*
X15023809Y-85456723D02*
X14976190Y-85551961D01*
X14976190Y-85551961D02*
X14880952Y-85647200D01*
X14880952Y-85647200D02*
X14738095Y-85694819D01*
X14738095Y-85694819D02*
X14642857Y-85694819D01*
X14642857Y-85694819D02*
X14500000Y-85647200D01*
X14500000Y-85647200D02*
X14452381Y-85599580D01*
X14452381Y-85599580D02*
X14452381Y-85266247D01*
X14452381Y-85266247D02*
X14642857Y-85266247D01*
X13595238Y-85028152D02*
X13595238Y-85694819D01*
X13833333Y-84647200D02*
X14071428Y-85361485D01*
X14071428Y-85361485D02*
X13452381Y-85361485D01*
X16499999Y-90727200D02*
X16357142Y-90774819D01*
X16357142Y-90774819D02*
X16119047Y-90774819D01*
X16119047Y-90774819D02*
X16023809Y-90727200D01*
X16023809Y-90727200D02*
X15976190Y-90679580D01*
X15976190Y-90679580D02*
X15928571Y-90584342D01*
X15928571Y-90584342D02*
X15928571Y-90489104D01*
X15928571Y-90489104D02*
X15976190Y-90393866D01*
X15976190Y-90393866D02*
X16023809Y-90346247D01*
X16023809Y-90346247D02*
X16119047Y-90298628D01*
X16119047Y-90298628D02*
X16309523Y-90251009D01*
X16309523Y-90251009D02*
X16404761Y-90203390D01*
X16404761Y-90203390D02*
X16452380Y-90155771D01*
X16452380Y-90155771D02*
X16499999Y-90060533D01*
X16499999Y-90060533D02*
X16499999Y-89965295D01*
X16499999Y-89965295D02*
X16452380Y-89870057D01*
X16452380Y-89870057D02*
X16404761Y-89822438D01*
X16404761Y-89822438D02*
X16309523Y-89774819D01*
X16309523Y-89774819D02*
X16071428Y-89774819D01*
X16071428Y-89774819D02*
X15928571Y-89822438D01*
X15499999Y-90774819D02*
X15499999Y-89774819D01*
X14500000Y-89822438D02*
X14595238Y-89774819D01*
X14595238Y-89774819D02*
X14738095Y-89774819D01*
X14738095Y-89774819D02*
X14880952Y-89822438D01*
X14880952Y-89822438D02*
X14976190Y-89917676D01*
X14976190Y-89917676D02*
X15023809Y-90012914D01*
X15023809Y-90012914D02*
X15071428Y-90203390D01*
X15071428Y-90203390D02*
X15071428Y-90346247D01*
X15071428Y-90346247D02*
X15023809Y-90536723D01*
X15023809Y-90536723D02*
X14976190Y-90631961D01*
X14976190Y-90631961D02*
X14880952Y-90727200D01*
X14880952Y-90727200D02*
X14738095Y-90774819D01*
X14738095Y-90774819D02*
X14642857Y-90774819D01*
X14642857Y-90774819D02*
X14500000Y-90727200D01*
X14500000Y-90727200D02*
X14452381Y-90679580D01*
X14452381Y-90679580D02*
X14452381Y-90346247D01*
X14452381Y-90346247D02*
X14642857Y-90346247D01*
X13547619Y-89774819D02*
X14023809Y-89774819D01*
X14023809Y-89774819D02*
X14071428Y-90251009D01*
X14071428Y-90251009D02*
X14023809Y-90203390D01*
X14023809Y-90203390D02*
X13928571Y-90155771D01*
X13928571Y-90155771D02*
X13690476Y-90155771D01*
X13690476Y-90155771D02*
X13595238Y-90203390D01*
X13595238Y-90203390D02*
X13547619Y-90251009D01*
X13547619Y-90251009D02*
X13500000Y-90346247D01*
X13500000Y-90346247D02*
X13500000Y-90584342D01*
X13500000Y-90584342D02*
X13547619Y-90679580D01*
X13547619Y-90679580D02*
X13595238Y-90727200D01*
X13595238Y-90727200D02*
X13690476Y-90774819D01*
X13690476Y-90774819D02*
X13928571Y-90774819D01*
X13928571Y-90774819D02*
X14023809Y-90727200D01*
X14023809Y-90727200D02*
X14071428Y-90679580D01*
X16499999Y-95807200D02*
X16357142Y-95854819D01*
X16357142Y-95854819D02*
X16119047Y-95854819D01*
X16119047Y-95854819D02*
X16023809Y-95807200D01*
X16023809Y-95807200D02*
X15976190Y-95759580D01*
X15976190Y-95759580D02*
X15928571Y-95664342D01*
X15928571Y-95664342D02*
X15928571Y-95569104D01*
X15928571Y-95569104D02*
X15976190Y-95473866D01*
X15976190Y-95473866D02*
X16023809Y-95426247D01*
X16023809Y-95426247D02*
X16119047Y-95378628D01*
X16119047Y-95378628D02*
X16309523Y-95331009D01*
X16309523Y-95331009D02*
X16404761Y-95283390D01*
X16404761Y-95283390D02*
X16452380Y-95235771D01*
X16452380Y-95235771D02*
X16499999Y-95140533D01*
X16499999Y-95140533D02*
X16499999Y-95045295D01*
X16499999Y-95045295D02*
X16452380Y-94950057D01*
X16452380Y-94950057D02*
X16404761Y-94902438D01*
X16404761Y-94902438D02*
X16309523Y-94854819D01*
X16309523Y-94854819D02*
X16071428Y-94854819D01*
X16071428Y-94854819D02*
X15928571Y-94902438D01*
X15499999Y-95854819D02*
X15499999Y-94854819D01*
X14500000Y-94902438D02*
X14595238Y-94854819D01*
X14595238Y-94854819D02*
X14738095Y-94854819D01*
X14738095Y-94854819D02*
X14880952Y-94902438D01*
X14880952Y-94902438D02*
X14976190Y-94997676D01*
X14976190Y-94997676D02*
X15023809Y-95092914D01*
X15023809Y-95092914D02*
X15071428Y-95283390D01*
X15071428Y-95283390D02*
X15071428Y-95426247D01*
X15071428Y-95426247D02*
X15023809Y-95616723D01*
X15023809Y-95616723D02*
X14976190Y-95711961D01*
X14976190Y-95711961D02*
X14880952Y-95807200D01*
X14880952Y-95807200D02*
X14738095Y-95854819D01*
X14738095Y-95854819D02*
X14642857Y-95854819D01*
X14642857Y-95854819D02*
X14500000Y-95807200D01*
X14500000Y-95807200D02*
X14452381Y-95759580D01*
X14452381Y-95759580D02*
X14452381Y-95426247D01*
X14452381Y-95426247D02*
X14642857Y-95426247D01*
X13595238Y-94854819D02*
X13785714Y-94854819D01*
X13785714Y-94854819D02*
X13880952Y-94902438D01*
X13880952Y-94902438D02*
X13928571Y-94950057D01*
X13928571Y-94950057D02*
X14023809Y-95092914D01*
X14023809Y-95092914D02*
X14071428Y-95283390D01*
X14071428Y-95283390D02*
X14071428Y-95664342D01*
X14071428Y-95664342D02*
X14023809Y-95759580D01*
X14023809Y-95759580D02*
X13976190Y-95807200D01*
X13976190Y-95807200D02*
X13880952Y-95854819D01*
X13880952Y-95854819D02*
X13690476Y-95854819D01*
X13690476Y-95854819D02*
X13595238Y-95807200D01*
X13595238Y-95807200D02*
X13547619Y-95759580D01*
X13547619Y-95759580D02*
X13500000Y-95664342D01*
X13500000Y-95664342D02*
X13500000Y-95426247D01*
X13500000Y-95426247D02*
X13547619Y-95331009D01*
X13547619Y-95331009D02*
X13595238Y-95283390D01*
X13595238Y-95283390D02*
X13690476Y-95235771D01*
X13690476Y-95235771D02*
X13880952Y-95235771D01*
X13880952Y-95235771D02*
X13976190Y-95283390D01*
X13976190Y-95283390D02*
X14023809Y-95331009D01*
X14023809Y-95331009D02*
X14071428Y-95426247D01*
X19945713Y-150954819D02*
X19945713Y-149954819D01*
X19945713Y-149954819D02*
X19374285Y-150954819D01*
X19374285Y-150954819D02*
X19374285Y-149954819D01*
X18326666Y-150859580D02*
X18374285Y-150907200D01*
X18374285Y-150907200D02*
X18517142Y-150954819D01*
X18517142Y-150954819D02*
X18612380Y-150954819D01*
X18612380Y-150954819D02*
X18755237Y-150907200D01*
X18755237Y-150907200D02*
X18850475Y-150811961D01*
X18850475Y-150811961D02*
X18898094Y-150716723D01*
X18898094Y-150716723D02*
X18945713Y-150526247D01*
X18945713Y-150526247D02*
X18945713Y-150383390D01*
X18945713Y-150383390D02*
X18898094Y-150192914D01*
X18898094Y-150192914D02*
X18850475Y-150097676D01*
X18850475Y-150097676D02*
X18755237Y-150002438D01*
X18755237Y-150002438D02*
X18612380Y-149954819D01*
X18612380Y-149954819D02*
X18517142Y-149954819D01*
X18517142Y-149954819D02*
X18374285Y-150002438D01*
X18374285Y-150002438D02*
X18326666Y-150050057D01*
X33785714Y-150859580D02*
X33833333Y-150907200D01*
X33833333Y-150907200D02*
X33976190Y-150954819D01*
X33976190Y-150954819D02*
X34071428Y-150954819D01*
X34071428Y-150954819D02*
X34214285Y-150907200D01*
X34214285Y-150907200D02*
X34309523Y-150811961D01*
X34309523Y-150811961D02*
X34357142Y-150716723D01*
X34357142Y-150716723D02*
X34404761Y-150526247D01*
X34404761Y-150526247D02*
X34404761Y-150383390D01*
X34404761Y-150383390D02*
X34357142Y-150192914D01*
X34357142Y-150192914D02*
X34309523Y-150097676D01*
X34309523Y-150097676D02*
X34214285Y-150002438D01*
X34214285Y-150002438D02*
X34071428Y-149954819D01*
X34071428Y-149954819D02*
X33976190Y-149954819D01*
X33976190Y-149954819D02*
X33833333Y-150002438D01*
X33833333Y-150002438D02*
X33785714Y-150050057D01*
X33166666Y-149954819D02*
X32976190Y-149954819D01*
X32976190Y-149954819D02*
X32880952Y-150002438D01*
X32880952Y-150002438D02*
X32785714Y-150097676D01*
X32785714Y-150097676D02*
X32738095Y-150288152D01*
X32738095Y-150288152D02*
X32738095Y-150621485D01*
X32738095Y-150621485D02*
X32785714Y-150811961D01*
X32785714Y-150811961D02*
X32880952Y-150907200D01*
X32880952Y-150907200D02*
X32976190Y-150954819D01*
X32976190Y-150954819D02*
X33166666Y-150954819D01*
X33166666Y-150954819D02*
X33261904Y-150907200D01*
X33261904Y-150907200D02*
X33357142Y-150811961D01*
X33357142Y-150811961D02*
X33404761Y-150621485D01*
X33404761Y-150621485D02*
X33404761Y-150288152D01*
X33404761Y-150288152D02*
X33357142Y-150097676D01*
X33357142Y-150097676D02*
X33261904Y-150002438D01*
X33261904Y-150002438D02*
X33166666Y-149954819D01*
X32309523Y-150954819D02*
X32309523Y-149954819D01*
X32309523Y-149954819D02*
X31976190Y-150669104D01*
X31976190Y-150669104D02*
X31642857Y-149954819D01*
X31642857Y-149954819D02*
X31642857Y-150954819D01*
X38889523Y-150954819D02*
X38889523Y-149954819D01*
X38889523Y-149954819D02*
X38318095Y-150954819D01*
X38318095Y-150954819D02*
X38318095Y-149954819D01*
X37651428Y-149954819D02*
X37460952Y-149954819D01*
X37460952Y-149954819D02*
X37365714Y-150002438D01*
X37365714Y-150002438D02*
X37270476Y-150097676D01*
X37270476Y-150097676D02*
X37222857Y-150288152D01*
X37222857Y-150288152D02*
X37222857Y-150621485D01*
X37222857Y-150621485D02*
X37270476Y-150811961D01*
X37270476Y-150811961D02*
X37365714Y-150907200D01*
X37365714Y-150907200D02*
X37460952Y-150954819D01*
X37460952Y-150954819D02*
X37651428Y-150954819D01*
X37651428Y-150954819D02*
X37746666Y-150907200D01*
X37746666Y-150907200D02*
X37841904Y-150811961D01*
X37841904Y-150811961D02*
X37889523Y-150621485D01*
X37889523Y-150621485D02*
X37889523Y-150288152D01*
X37889523Y-150288152D02*
X37841904Y-150097676D01*
X37841904Y-150097676D02*
X37746666Y-150002438D01*
X37746666Y-150002438D02*
X37651428Y-149954819D01*
X43945713Y-150954819D02*
X43945713Y-149954819D01*
X43945713Y-149954819D02*
X43374285Y-150954819D01*
X43374285Y-150954819D02*
X43374285Y-149954819D01*
X42326666Y-150859580D02*
X42374285Y-150907200D01*
X42374285Y-150907200D02*
X42517142Y-150954819D01*
X42517142Y-150954819D02*
X42612380Y-150954819D01*
X42612380Y-150954819D02*
X42755237Y-150907200D01*
X42755237Y-150907200D02*
X42850475Y-150811961D01*
X42850475Y-150811961D02*
X42898094Y-150716723D01*
X42898094Y-150716723D02*
X42945713Y-150526247D01*
X42945713Y-150526247D02*
X42945713Y-150383390D01*
X42945713Y-150383390D02*
X42898094Y-150192914D01*
X42898094Y-150192914D02*
X42850475Y-150097676D01*
X42850475Y-150097676D02*
X42755237Y-150002438D01*
X42755237Y-150002438D02*
X42612380Y-149954819D01*
X42612380Y-149954819D02*
X42517142Y-149954819D01*
X42517142Y-149954819D02*
X42374285Y-150002438D01*
X42374285Y-150002438D02*
X42326666Y-150050057D01*
X57785714Y-150859580D02*
X57833333Y-150907200D01*
X57833333Y-150907200D02*
X57976190Y-150954819D01*
X57976190Y-150954819D02*
X58071428Y-150954819D01*
X58071428Y-150954819D02*
X58214285Y-150907200D01*
X58214285Y-150907200D02*
X58309523Y-150811961D01*
X58309523Y-150811961D02*
X58357142Y-150716723D01*
X58357142Y-150716723D02*
X58404761Y-150526247D01*
X58404761Y-150526247D02*
X58404761Y-150383390D01*
X58404761Y-150383390D02*
X58357142Y-150192914D01*
X58357142Y-150192914D02*
X58309523Y-150097676D01*
X58309523Y-150097676D02*
X58214285Y-150002438D01*
X58214285Y-150002438D02*
X58071428Y-149954819D01*
X58071428Y-149954819D02*
X57976190Y-149954819D01*
X57976190Y-149954819D02*
X57833333Y-150002438D01*
X57833333Y-150002438D02*
X57785714Y-150050057D01*
X57166666Y-149954819D02*
X56976190Y-149954819D01*
X56976190Y-149954819D02*
X56880952Y-150002438D01*
X56880952Y-150002438D02*
X56785714Y-150097676D01*
X56785714Y-150097676D02*
X56738095Y-150288152D01*
X56738095Y-150288152D02*
X56738095Y-150621485D01*
X56738095Y-150621485D02*
X56785714Y-150811961D01*
X56785714Y-150811961D02*
X56880952Y-150907200D01*
X56880952Y-150907200D02*
X56976190Y-150954819D01*
X56976190Y-150954819D02*
X57166666Y-150954819D01*
X57166666Y-150954819D02*
X57261904Y-150907200D01*
X57261904Y-150907200D02*
X57357142Y-150811961D01*
X57357142Y-150811961D02*
X57404761Y-150621485D01*
X57404761Y-150621485D02*
X57404761Y-150288152D01*
X57404761Y-150288152D02*
X57357142Y-150097676D01*
X57357142Y-150097676D02*
X57261904Y-150002438D01*
X57261904Y-150002438D02*
X57166666Y-149954819D01*
X56309523Y-150954819D02*
X56309523Y-149954819D01*
X56309523Y-149954819D02*
X55976190Y-150669104D01*
X55976190Y-150669104D02*
X55642857Y-149954819D01*
X55642857Y-149954819D02*
X55642857Y-150954819D01*
X62889523Y-150954819D02*
X62889523Y-149954819D01*
X62889523Y-149954819D02*
X62318095Y-150954819D01*
X62318095Y-150954819D02*
X62318095Y-149954819D01*
X61651428Y-149954819D02*
X61460952Y-149954819D01*
X61460952Y-149954819D02*
X61365714Y-150002438D01*
X61365714Y-150002438D02*
X61270476Y-150097676D01*
X61270476Y-150097676D02*
X61222857Y-150288152D01*
X61222857Y-150288152D02*
X61222857Y-150621485D01*
X61222857Y-150621485D02*
X61270476Y-150811961D01*
X61270476Y-150811961D02*
X61365714Y-150907200D01*
X61365714Y-150907200D02*
X61460952Y-150954819D01*
X61460952Y-150954819D02*
X61651428Y-150954819D01*
X61651428Y-150954819D02*
X61746666Y-150907200D01*
X61746666Y-150907200D02*
X61841904Y-150811961D01*
X61841904Y-150811961D02*
X61889523Y-150621485D01*
X61889523Y-150621485D02*
X61889523Y-150288152D01*
X61889523Y-150288152D02*
X61841904Y-150097676D01*
X61841904Y-150097676D02*
X61746666Y-150002438D01*
X61746666Y-150002438D02*
X61651428Y-149954819D01*
X67945713Y-150954819D02*
X67945713Y-149954819D01*
X67945713Y-149954819D02*
X67374285Y-150954819D01*
X67374285Y-150954819D02*
X67374285Y-149954819D01*
X66326666Y-150859580D02*
X66374285Y-150907200D01*
X66374285Y-150907200D02*
X66517142Y-150954819D01*
X66517142Y-150954819D02*
X66612380Y-150954819D01*
X66612380Y-150954819D02*
X66755237Y-150907200D01*
X66755237Y-150907200D02*
X66850475Y-150811961D01*
X66850475Y-150811961D02*
X66898094Y-150716723D01*
X66898094Y-150716723D02*
X66945713Y-150526247D01*
X66945713Y-150526247D02*
X66945713Y-150383390D01*
X66945713Y-150383390D02*
X66898094Y-150192914D01*
X66898094Y-150192914D02*
X66850475Y-150097676D01*
X66850475Y-150097676D02*
X66755237Y-150002438D01*
X66755237Y-150002438D02*
X66612380Y-149954819D01*
X66612380Y-149954819D02*
X66517142Y-149954819D01*
X66517142Y-149954819D02*
X66374285Y-150002438D01*
X66374285Y-150002438D02*
X66326666Y-150050057D01*
X81785714Y-150859580D02*
X81833333Y-150907200D01*
X81833333Y-150907200D02*
X81976190Y-150954819D01*
X81976190Y-150954819D02*
X82071428Y-150954819D01*
X82071428Y-150954819D02*
X82214285Y-150907200D01*
X82214285Y-150907200D02*
X82309523Y-150811961D01*
X82309523Y-150811961D02*
X82357142Y-150716723D01*
X82357142Y-150716723D02*
X82404761Y-150526247D01*
X82404761Y-150526247D02*
X82404761Y-150383390D01*
X82404761Y-150383390D02*
X82357142Y-150192914D01*
X82357142Y-150192914D02*
X82309523Y-150097676D01*
X82309523Y-150097676D02*
X82214285Y-150002438D01*
X82214285Y-150002438D02*
X82071428Y-149954819D01*
X82071428Y-149954819D02*
X81976190Y-149954819D01*
X81976190Y-149954819D02*
X81833333Y-150002438D01*
X81833333Y-150002438D02*
X81785714Y-150050057D01*
X81166666Y-149954819D02*
X80976190Y-149954819D01*
X80976190Y-149954819D02*
X80880952Y-150002438D01*
X80880952Y-150002438D02*
X80785714Y-150097676D01*
X80785714Y-150097676D02*
X80738095Y-150288152D01*
X80738095Y-150288152D02*
X80738095Y-150621485D01*
X80738095Y-150621485D02*
X80785714Y-150811961D01*
X80785714Y-150811961D02*
X80880952Y-150907200D01*
X80880952Y-150907200D02*
X80976190Y-150954819D01*
X80976190Y-150954819D02*
X81166666Y-150954819D01*
X81166666Y-150954819D02*
X81261904Y-150907200D01*
X81261904Y-150907200D02*
X81357142Y-150811961D01*
X81357142Y-150811961D02*
X81404761Y-150621485D01*
X81404761Y-150621485D02*
X81404761Y-150288152D01*
X81404761Y-150288152D02*
X81357142Y-150097676D01*
X81357142Y-150097676D02*
X81261904Y-150002438D01*
X81261904Y-150002438D02*
X81166666Y-149954819D01*
X80309523Y-150954819D02*
X80309523Y-149954819D01*
X80309523Y-149954819D02*
X79976190Y-150669104D01*
X79976190Y-150669104D02*
X79642857Y-149954819D01*
X79642857Y-149954819D02*
X79642857Y-150954819D01*
X86889523Y-150954819D02*
X86889523Y-149954819D01*
X86889523Y-149954819D02*
X86318095Y-150954819D01*
X86318095Y-150954819D02*
X86318095Y-149954819D01*
X85651428Y-149954819D02*
X85460952Y-149954819D01*
X85460952Y-149954819D02*
X85365714Y-150002438D01*
X85365714Y-150002438D02*
X85270476Y-150097676D01*
X85270476Y-150097676D02*
X85222857Y-150288152D01*
X85222857Y-150288152D02*
X85222857Y-150621485D01*
X85222857Y-150621485D02*
X85270476Y-150811961D01*
X85270476Y-150811961D02*
X85365714Y-150907200D01*
X85365714Y-150907200D02*
X85460952Y-150954819D01*
X85460952Y-150954819D02*
X85651428Y-150954819D01*
X85651428Y-150954819D02*
X85746666Y-150907200D01*
X85746666Y-150907200D02*
X85841904Y-150811961D01*
X85841904Y-150811961D02*
X85889523Y-150621485D01*
X85889523Y-150621485D02*
X85889523Y-150288152D01*
X85889523Y-150288152D02*
X85841904Y-150097676D01*
X85841904Y-150097676D02*
X85746666Y-150002438D01*
X85746666Y-150002438D02*
X85651428Y-149954819D01*
X91945713Y-150954819D02*
X91945713Y-149954819D01*
X91945713Y-149954819D02*
X91374285Y-150954819D01*
X91374285Y-150954819D02*
X91374285Y-149954819D01*
X90326666Y-150859580D02*
X90374285Y-150907200D01*
X90374285Y-150907200D02*
X90517142Y-150954819D01*
X90517142Y-150954819D02*
X90612380Y-150954819D01*
X90612380Y-150954819D02*
X90755237Y-150907200D01*
X90755237Y-150907200D02*
X90850475Y-150811961D01*
X90850475Y-150811961D02*
X90898094Y-150716723D01*
X90898094Y-150716723D02*
X90945713Y-150526247D01*
X90945713Y-150526247D02*
X90945713Y-150383390D01*
X90945713Y-150383390D02*
X90898094Y-150192914D01*
X90898094Y-150192914D02*
X90850475Y-150097676D01*
X90850475Y-150097676D02*
X90755237Y-150002438D01*
X90755237Y-150002438D02*
X90612380Y-149954819D01*
X90612380Y-149954819D02*
X90517142Y-149954819D01*
X90517142Y-149954819D02*
X90374285Y-150002438D01*
X90374285Y-150002438D02*
X90326666Y-150050057D01*
X111976191Y-158454819D02*
X111976191Y-157454819D01*
X111976191Y-157454819D02*
X111595239Y-157454819D01*
X111595239Y-157454819D02*
X111500001Y-157502438D01*
X111500001Y-157502438D02*
X111452382Y-157550057D01*
X111452382Y-157550057D02*
X111404763Y-157645295D01*
X111404763Y-157645295D02*
X111404763Y-157788152D01*
X111404763Y-157788152D02*
X111452382Y-157883390D01*
X111452382Y-157883390D02*
X111500001Y-157931009D01*
X111500001Y-157931009D02*
X111595239Y-157978628D01*
X111595239Y-157978628D02*
X111976191Y-157978628D01*
X110785715Y-157454819D02*
X110595239Y-157454819D01*
X110595239Y-157454819D02*
X110500001Y-157502438D01*
X110500001Y-157502438D02*
X110404763Y-157597676D01*
X110404763Y-157597676D02*
X110357144Y-157788152D01*
X110357144Y-157788152D02*
X110357144Y-158121485D01*
X110357144Y-158121485D02*
X110404763Y-158311961D01*
X110404763Y-158311961D02*
X110500001Y-158407200D01*
X110500001Y-158407200D02*
X110595239Y-158454819D01*
X110595239Y-158454819D02*
X110785715Y-158454819D01*
X110785715Y-158454819D02*
X110880953Y-158407200D01*
X110880953Y-158407200D02*
X110976191Y-158311961D01*
X110976191Y-158311961D02*
X111023810Y-158121485D01*
X111023810Y-158121485D02*
X111023810Y-157788152D01*
X111023810Y-157788152D02*
X110976191Y-157597676D01*
X110976191Y-157597676D02*
X110880953Y-157502438D01*
X110880953Y-157502438D02*
X110785715Y-157454819D01*
X109357144Y-158359580D02*
X109404763Y-158407200D01*
X109404763Y-158407200D02*
X109547620Y-158454819D01*
X109547620Y-158454819D02*
X109642858Y-158454819D01*
X109642858Y-158454819D02*
X109785715Y-158407200D01*
X109785715Y-158407200D02*
X109880953Y-158311961D01*
X109880953Y-158311961D02*
X109928572Y-158216723D01*
X109928572Y-158216723D02*
X109976191Y-158026247D01*
X109976191Y-158026247D02*
X109976191Y-157883390D01*
X109976191Y-157883390D02*
X109928572Y-157692914D01*
X109928572Y-157692914D02*
X109880953Y-157597676D01*
X109880953Y-157597676D02*
X109785715Y-157502438D01*
X109785715Y-157502438D02*
X109642858Y-157454819D01*
X109642858Y-157454819D02*
X109547620Y-157454819D01*
X109547620Y-157454819D02*
X109404763Y-157502438D01*
X109404763Y-157502438D02*
X109357144Y-157550057D01*
X107976191Y-157454819D02*
X107785715Y-157454819D01*
X107785715Y-157454819D02*
X107690477Y-157502438D01*
X107690477Y-157502438D02*
X107595239Y-157597676D01*
X107595239Y-157597676D02*
X107547620Y-157788152D01*
X107547620Y-157788152D02*
X107547620Y-158121485D01*
X107547620Y-158121485D02*
X107595239Y-158311961D01*
X107595239Y-158311961D02*
X107690477Y-158407200D01*
X107690477Y-158407200D02*
X107785715Y-158454819D01*
X107785715Y-158454819D02*
X107976191Y-158454819D01*
X107976191Y-158454819D02*
X108071429Y-158407200D01*
X108071429Y-158407200D02*
X108166667Y-158311961D01*
X108166667Y-158311961D02*
X108214286Y-158121485D01*
X108214286Y-158121485D02*
X108214286Y-157788152D01*
X108214286Y-157788152D02*
X108166667Y-157597676D01*
X108166667Y-157597676D02*
X108071429Y-157502438D01*
X108071429Y-157502438D02*
X107976191Y-157454819D01*
X107119048Y-158454819D02*
X107119048Y-157454819D01*
X107119048Y-157454819D02*
X106547620Y-158454819D01*
X106547620Y-158454819D02*
X106547620Y-157454819D01*
X105595239Y-158454819D02*
X106071429Y-158454819D01*
X106071429Y-158454819D02*
X106071429Y-157454819D01*
X105071429Y-157978628D02*
X105071429Y-158454819D01*
X105404762Y-157454819D02*
X105071429Y-157978628D01*
X105071429Y-157978628D02*
X104738096Y-157454819D01*
X103642857Y-158073866D02*
X102880953Y-158073866D01*
X101642857Y-158454819D02*
X101642857Y-157454819D01*
X101642857Y-157454819D02*
X101071429Y-158454819D01*
X101071429Y-158454819D02*
X101071429Y-157454819D01*
X100404762Y-157454819D02*
X100214286Y-157454819D01*
X100214286Y-157454819D02*
X100119048Y-157502438D01*
X100119048Y-157502438D02*
X100023810Y-157597676D01*
X100023810Y-157597676D02*
X99976191Y-157788152D01*
X99976191Y-157788152D02*
X99976191Y-158121485D01*
X99976191Y-158121485D02*
X100023810Y-158311961D01*
X100023810Y-158311961D02*
X100119048Y-158407200D01*
X100119048Y-158407200D02*
X100214286Y-158454819D01*
X100214286Y-158454819D02*
X100404762Y-158454819D01*
X100404762Y-158454819D02*
X100500000Y-158407200D01*
X100500000Y-158407200D02*
X100595238Y-158311961D01*
X100595238Y-158311961D02*
X100642857Y-158121485D01*
X100642857Y-158121485D02*
X100642857Y-157788152D01*
X100642857Y-157788152D02*
X100595238Y-157597676D01*
X100595238Y-157597676D02*
X100500000Y-157502438D01*
X100500000Y-157502438D02*
X100404762Y-157454819D01*
X99690476Y-157454819D02*
X99119048Y-157454819D01*
X99404762Y-158454819D02*
X99404762Y-157454819D01*
X98071428Y-158407200D02*
X97928571Y-158454819D01*
X97928571Y-158454819D02*
X97690476Y-158454819D01*
X97690476Y-158454819D02*
X97595238Y-158407200D01*
X97595238Y-158407200D02*
X97547619Y-158359580D01*
X97547619Y-158359580D02*
X97500000Y-158264342D01*
X97500000Y-158264342D02*
X97500000Y-158169104D01*
X97500000Y-158169104D02*
X97547619Y-158073866D01*
X97547619Y-158073866D02*
X97595238Y-158026247D01*
X97595238Y-158026247D02*
X97690476Y-157978628D01*
X97690476Y-157978628D02*
X97880952Y-157931009D01*
X97880952Y-157931009D02*
X97976190Y-157883390D01*
X97976190Y-157883390D02*
X98023809Y-157835771D01*
X98023809Y-157835771D02*
X98071428Y-157740533D01*
X98071428Y-157740533D02*
X98071428Y-157645295D01*
X98071428Y-157645295D02*
X98023809Y-157550057D01*
X98023809Y-157550057D02*
X97976190Y-157502438D01*
X97976190Y-157502438D02*
X97880952Y-157454819D01*
X97880952Y-157454819D02*
X97642857Y-157454819D01*
X97642857Y-157454819D02*
X97500000Y-157502438D01*
X97119047Y-158169104D02*
X96642857Y-158169104D01*
X97214285Y-158454819D02*
X96880952Y-157454819D01*
X96880952Y-157454819D02*
X96547619Y-158454819D01*
X95880952Y-157931009D02*
X96214285Y-157931009D01*
X96214285Y-158454819D02*
X96214285Y-157454819D01*
X96214285Y-157454819D02*
X95738095Y-157454819D01*
X95357142Y-157931009D02*
X95023809Y-157931009D01*
X94880952Y-158454819D02*
X95357142Y-158454819D01*
X95357142Y-158454819D02*
X95357142Y-157454819D01*
X95357142Y-157454819D02*
X94880952Y-157454819D01*
X94595237Y-157454819D02*
X94023809Y-157454819D01*
X94309523Y-158454819D02*
X94309523Y-157454819D01*
X93499999Y-157978628D02*
X93499999Y-158454819D01*
X93833332Y-157454819D02*
X93499999Y-157978628D01*
X93499999Y-157978628D02*
X93166666Y-157454819D01*
X91499999Y-158454819D02*
X91833332Y-157978628D01*
X92071427Y-158454819D02*
X92071427Y-157454819D01*
X92071427Y-157454819D02*
X91690475Y-157454819D01*
X91690475Y-157454819D02*
X91595237Y-157502438D01*
X91595237Y-157502438D02*
X91547618Y-157550057D01*
X91547618Y-157550057D02*
X91499999Y-157645295D01*
X91499999Y-157645295D02*
X91499999Y-157788152D01*
X91499999Y-157788152D02*
X91547618Y-157883390D01*
X91547618Y-157883390D02*
X91595237Y-157931009D01*
X91595237Y-157931009D02*
X91690475Y-157978628D01*
X91690475Y-157978628D02*
X92071427Y-157978628D01*
X91119046Y-158169104D02*
X90642856Y-158169104D01*
X91214284Y-158454819D02*
X90880951Y-157454819D01*
X90880951Y-157454819D02*
X90547618Y-158454819D01*
X90357141Y-157454819D02*
X89785713Y-157454819D01*
X90071427Y-158454819D02*
X90071427Y-157454819D01*
X89452379Y-157931009D02*
X89119046Y-157931009D01*
X88976189Y-158454819D02*
X89452379Y-158454819D01*
X89452379Y-158454819D02*
X89452379Y-157454819D01*
X89452379Y-157454819D02*
X88976189Y-157454819D01*
X88547617Y-158454819D02*
X88547617Y-157454819D01*
X88547617Y-157454819D02*
X88309522Y-157454819D01*
X88309522Y-157454819D02*
X88166665Y-157502438D01*
X88166665Y-157502438D02*
X88071427Y-157597676D01*
X88071427Y-157597676D02*
X88023808Y-157692914D01*
X88023808Y-157692914D02*
X87976189Y-157883390D01*
X87976189Y-157883390D02*
X87976189Y-158026247D01*
X87976189Y-158026247D02*
X88023808Y-158216723D01*
X88023808Y-158216723D02*
X88071427Y-158311961D01*
X88071427Y-158311961D02*
X88166665Y-158407200D01*
X88166665Y-158407200D02*
X88309522Y-158454819D01*
X88309522Y-158454819D02*
X88547617Y-158454819D01*
X105785714Y-150859580D02*
X105833333Y-150907200D01*
X105833333Y-150907200D02*
X105976190Y-150954819D01*
X105976190Y-150954819D02*
X106071428Y-150954819D01*
X106071428Y-150954819D02*
X106214285Y-150907200D01*
X106214285Y-150907200D02*
X106309523Y-150811961D01*
X106309523Y-150811961D02*
X106357142Y-150716723D01*
X106357142Y-150716723D02*
X106404761Y-150526247D01*
X106404761Y-150526247D02*
X106404761Y-150383390D01*
X106404761Y-150383390D02*
X106357142Y-150192914D01*
X106357142Y-150192914D02*
X106309523Y-150097676D01*
X106309523Y-150097676D02*
X106214285Y-150002438D01*
X106214285Y-150002438D02*
X106071428Y-149954819D01*
X106071428Y-149954819D02*
X105976190Y-149954819D01*
X105976190Y-149954819D02*
X105833333Y-150002438D01*
X105833333Y-150002438D02*
X105785714Y-150050057D01*
X105166666Y-149954819D02*
X104976190Y-149954819D01*
X104976190Y-149954819D02*
X104880952Y-150002438D01*
X104880952Y-150002438D02*
X104785714Y-150097676D01*
X104785714Y-150097676D02*
X104738095Y-150288152D01*
X104738095Y-150288152D02*
X104738095Y-150621485D01*
X104738095Y-150621485D02*
X104785714Y-150811961D01*
X104785714Y-150811961D02*
X104880952Y-150907200D01*
X104880952Y-150907200D02*
X104976190Y-150954819D01*
X104976190Y-150954819D02*
X105166666Y-150954819D01*
X105166666Y-150954819D02*
X105261904Y-150907200D01*
X105261904Y-150907200D02*
X105357142Y-150811961D01*
X105357142Y-150811961D02*
X105404761Y-150621485D01*
X105404761Y-150621485D02*
X105404761Y-150288152D01*
X105404761Y-150288152D02*
X105357142Y-150097676D01*
X105357142Y-150097676D02*
X105261904Y-150002438D01*
X105261904Y-150002438D02*
X105166666Y-149954819D01*
X104309523Y-150954819D02*
X104309523Y-149954819D01*
X104309523Y-149954819D02*
X103976190Y-150669104D01*
X103976190Y-150669104D02*
X103642857Y-149954819D01*
X103642857Y-149954819D02*
X103642857Y-150954819D01*
X110761904Y-18002438D02*
X110857142Y-17954819D01*
X110857142Y-17954819D02*
X110999999Y-17954819D01*
X110999999Y-17954819D02*
X111142856Y-18002438D01*
X111142856Y-18002438D02*
X111238094Y-18097676D01*
X111238094Y-18097676D02*
X111285713Y-18192914D01*
X111285713Y-18192914D02*
X111333332Y-18383390D01*
X111333332Y-18383390D02*
X111333332Y-18526247D01*
X111333332Y-18526247D02*
X111285713Y-18716723D01*
X111285713Y-18716723D02*
X111238094Y-18811961D01*
X111238094Y-18811961D02*
X111142856Y-18907200D01*
X111142856Y-18907200D02*
X110999999Y-18954819D01*
X110999999Y-18954819D02*
X110904761Y-18954819D01*
X110904761Y-18954819D02*
X110761904Y-18907200D01*
X110761904Y-18907200D02*
X110714285Y-18859580D01*
X110714285Y-18859580D02*
X110714285Y-18526247D01*
X110714285Y-18526247D02*
X110904761Y-18526247D01*
X110285713Y-18954819D02*
X110285713Y-17954819D01*
X110285713Y-17954819D02*
X109714285Y-18954819D01*
X109714285Y-18954819D02*
X109714285Y-17954819D01*
X109238094Y-18954819D02*
X109238094Y-17954819D01*
X109238094Y-17954819D02*
X108999999Y-17954819D01*
X108999999Y-17954819D02*
X108857142Y-18002438D01*
X108857142Y-18002438D02*
X108761904Y-18097676D01*
X108761904Y-18097676D02*
X108714285Y-18192914D01*
X108714285Y-18192914D02*
X108666666Y-18383390D01*
X108666666Y-18383390D02*
X108666666Y-18526247D01*
X108666666Y-18526247D02*
X108714285Y-18716723D01*
X108714285Y-18716723D02*
X108761904Y-18811961D01*
X108761904Y-18811961D02*
X108857142Y-18907200D01*
X108857142Y-18907200D02*
X108999999Y-18954819D01*
X108999999Y-18954819D02*
X109238094Y-18954819D01*
X110889523Y-150954819D02*
X110889523Y-149954819D01*
X110889523Y-149954819D02*
X110318095Y-150954819D01*
X110318095Y-150954819D02*
X110318095Y-149954819D01*
X109651428Y-149954819D02*
X109460952Y-149954819D01*
X109460952Y-149954819D02*
X109365714Y-150002438D01*
X109365714Y-150002438D02*
X109270476Y-150097676D01*
X109270476Y-150097676D02*
X109222857Y-150288152D01*
X109222857Y-150288152D02*
X109222857Y-150621485D01*
X109222857Y-150621485D02*
X109270476Y-150811961D01*
X109270476Y-150811961D02*
X109365714Y-150907200D01*
X109365714Y-150907200D02*
X109460952Y-150954819D01*
X109460952Y-150954819D02*
X109651428Y-150954819D01*
X109651428Y-150954819D02*
X109746666Y-150907200D01*
X109746666Y-150907200D02*
X109841904Y-150811961D01*
X109841904Y-150811961D02*
X109889523Y-150621485D01*
X109889523Y-150621485D02*
X109889523Y-150288152D01*
X109889523Y-150288152D02*
X109841904Y-150097676D01*
X109841904Y-150097676D02*
X109746666Y-150002438D01*
X109746666Y-150002438D02*
X109651428Y-149954819D01*
X115318094Y-18669104D02*
X114841904Y-18669104D01*
X115413332Y-18954819D02*
X115079999Y-17954819D01*
X115079999Y-17954819D02*
X114746666Y-18954819D01*
X115945713Y-150954819D02*
X115945713Y-149954819D01*
X115945713Y-149954819D02*
X115374285Y-150954819D01*
X115374285Y-150954819D02*
X115374285Y-149954819D01*
X114326666Y-150859580D02*
X114374285Y-150907200D01*
X114374285Y-150907200D02*
X114517142Y-150954819D01*
X114517142Y-150954819D02*
X114612380Y-150954819D01*
X114612380Y-150954819D02*
X114755237Y-150907200D01*
X114755237Y-150907200D02*
X114850475Y-150811961D01*
X114850475Y-150811961D02*
X114898094Y-150716723D01*
X114898094Y-150716723D02*
X114945713Y-150526247D01*
X114945713Y-150526247D02*
X114945713Y-150383390D01*
X114945713Y-150383390D02*
X114898094Y-150192914D01*
X114898094Y-150192914D02*
X114850475Y-150097676D01*
X114850475Y-150097676D02*
X114755237Y-150002438D01*
X114755237Y-150002438D02*
X114612380Y-149954819D01*
X114612380Y-149954819D02*
X114517142Y-149954819D01*
X114517142Y-149954819D02*
X114374285Y-150002438D01*
X114374285Y-150002438D02*
X114326666Y-150050057D01*
X120088571Y-18431009D02*
X119945714Y-18478628D01*
X119945714Y-18478628D02*
X119898095Y-18526247D01*
X119898095Y-18526247D02*
X119850476Y-18621485D01*
X119850476Y-18621485D02*
X119850476Y-18764342D01*
X119850476Y-18764342D02*
X119898095Y-18859580D01*
X119898095Y-18859580D02*
X119945714Y-18907200D01*
X119945714Y-18907200D02*
X120040952Y-18954819D01*
X120040952Y-18954819D02*
X120421904Y-18954819D01*
X120421904Y-18954819D02*
X120421904Y-17954819D01*
X120421904Y-17954819D02*
X120088571Y-17954819D01*
X120088571Y-17954819D02*
X119993333Y-18002438D01*
X119993333Y-18002438D02*
X119945714Y-18050057D01*
X119945714Y-18050057D02*
X119898095Y-18145295D01*
X119898095Y-18145295D02*
X119898095Y-18240533D01*
X119898095Y-18240533D02*
X119945714Y-18335771D01*
X119945714Y-18335771D02*
X119993333Y-18383390D01*
X119993333Y-18383390D02*
X120088571Y-18431009D01*
X120088571Y-18431009D02*
X120421904Y-18431009D01*
X126025713Y-18954819D02*
X126025713Y-17954819D01*
X126025713Y-17954819D02*
X125454285Y-18954819D01*
X125454285Y-18954819D02*
X125454285Y-17954819D01*
X124406666Y-18859580D02*
X124454285Y-18907200D01*
X124454285Y-18907200D02*
X124597142Y-18954819D01*
X124597142Y-18954819D02*
X124692380Y-18954819D01*
X124692380Y-18954819D02*
X124835237Y-18907200D01*
X124835237Y-18907200D02*
X124930475Y-18811961D01*
X124930475Y-18811961D02*
X124978094Y-18716723D01*
X124978094Y-18716723D02*
X125025713Y-18526247D01*
X125025713Y-18526247D02*
X125025713Y-18383390D01*
X125025713Y-18383390D02*
X124978094Y-18192914D01*
X124978094Y-18192914D02*
X124930475Y-18097676D01*
X124930475Y-18097676D02*
X124835237Y-18002438D01*
X124835237Y-18002438D02*
X124692380Y-17954819D01*
X124692380Y-17954819D02*
X124597142Y-17954819D01*
X124597142Y-17954819D02*
X124454285Y-18002438D01*
X124454285Y-18002438D02*
X124406666Y-18050057D01*
X129785714Y-150859580D02*
X129833333Y-150907200D01*
X129833333Y-150907200D02*
X129976190Y-150954819D01*
X129976190Y-150954819D02*
X130071428Y-150954819D01*
X130071428Y-150954819D02*
X130214285Y-150907200D01*
X130214285Y-150907200D02*
X130309523Y-150811961D01*
X130309523Y-150811961D02*
X130357142Y-150716723D01*
X130357142Y-150716723D02*
X130404761Y-150526247D01*
X130404761Y-150526247D02*
X130404761Y-150383390D01*
X130404761Y-150383390D02*
X130357142Y-150192914D01*
X130357142Y-150192914D02*
X130309523Y-150097676D01*
X130309523Y-150097676D02*
X130214285Y-150002438D01*
X130214285Y-150002438D02*
X130071428Y-149954819D01*
X130071428Y-149954819D02*
X129976190Y-149954819D01*
X129976190Y-149954819D02*
X129833333Y-150002438D01*
X129833333Y-150002438D02*
X129785714Y-150050057D01*
X129166666Y-149954819D02*
X128976190Y-149954819D01*
X128976190Y-149954819D02*
X128880952Y-150002438D01*
X128880952Y-150002438D02*
X128785714Y-150097676D01*
X128785714Y-150097676D02*
X128738095Y-150288152D01*
X128738095Y-150288152D02*
X128738095Y-150621485D01*
X128738095Y-150621485D02*
X128785714Y-150811961D01*
X128785714Y-150811961D02*
X128880952Y-150907200D01*
X128880952Y-150907200D02*
X128976190Y-150954819D01*
X128976190Y-150954819D02*
X129166666Y-150954819D01*
X129166666Y-150954819D02*
X129261904Y-150907200D01*
X129261904Y-150907200D02*
X129357142Y-150811961D01*
X129357142Y-150811961D02*
X129404761Y-150621485D01*
X129404761Y-150621485D02*
X129404761Y-150288152D01*
X129404761Y-150288152D02*
X129357142Y-150097676D01*
X129357142Y-150097676D02*
X129261904Y-150002438D01*
X129261904Y-150002438D02*
X129166666Y-149954819D01*
X128309523Y-150954819D02*
X128309523Y-149954819D01*
X128309523Y-149954819D02*
X127976190Y-150669104D01*
X127976190Y-150669104D02*
X127642857Y-149954819D01*
X127642857Y-149954819D02*
X127642857Y-150954819D01*
X131081904Y-18002438D02*
X131177142Y-17954819D01*
X131177142Y-17954819D02*
X131319999Y-17954819D01*
X131319999Y-17954819D02*
X131462856Y-18002438D01*
X131462856Y-18002438D02*
X131558094Y-18097676D01*
X131558094Y-18097676D02*
X131605713Y-18192914D01*
X131605713Y-18192914D02*
X131653332Y-18383390D01*
X131653332Y-18383390D02*
X131653332Y-18526247D01*
X131653332Y-18526247D02*
X131605713Y-18716723D01*
X131605713Y-18716723D02*
X131558094Y-18811961D01*
X131558094Y-18811961D02*
X131462856Y-18907200D01*
X131462856Y-18907200D02*
X131319999Y-18954819D01*
X131319999Y-18954819D02*
X131224761Y-18954819D01*
X131224761Y-18954819D02*
X131081904Y-18907200D01*
X131081904Y-18907200D02*
X131034285Y-18859580D01*
X131034285Y-18859580D02*
X131034285Y-18526247D01*
X131034285Y-18526247D02*
X131224761Y-18526247D01*
X130605713Y-18954819D02*
X130605713Y-17954819D01*
X130605713Y-17954819D02*
X130034285Y-18954819D01*
X130034285Y-18954819D02*
X130034285Y-17954819D01*
X129558094Y-18954819D02*
X129558094Y-17954819D01*
X129558094Y-17954819D02*
X129319999Y-17954819D01*
X129319999Y-17954819D02*
X129177142Y-18002438D01*
X129177142Y-18002438D02*
X129081904Y-18097676D01*
X129081904Y-18097676D02*
X129034285Y-18192914D01*
X129034285Y-18192914D02*
X128986666Y-18383390D01*
X128986666Y-18383390D02*
X128986666Y-18526247D01*
X128986666Y-18526247D02*
X129034285Y-18716723D01*
X129034285Y-18716723D02*
X129081904Y-18811961D01*
X129081904Y-18811961D02*
X129177142Y-18907200D01*
X129177142Y-18907200D02*
X129319999Y-18954819D01*
X129319999Y-18954819D02*
X129558094Y-18954819D01*
X134889523Y-150954819D02*
X134889523Y-149954819D01*
X134889523Y-149954819D02*
X134318095Y-150954819D01*
X134318095Y-150954819D02*
X134318095Y-149954819D01*
X133651428Y-149954819D02*
X133460952Y-149954819D01*
X133460952Y-149954819D02*
X133365714Y-150002438D01*
X133365714Y-150002438D02*
X133270476Y-150097676D01*
X133270476Y-150097676D02*
X133222857Y-150288152D01*
X133222857Y-150288152D02*
X133222857Y-150621485D01*
X133222857Y-150621485D02*
X133270476Y-150811961D01*
X133270476Y-150811961D02*
X133365714Y-150907200D01*
X133365714Y-150907200D02*
X133460952Y-150954819D01*
X133460952Y-150954819D02*
X133651428Y-150954819D01*
X133651428Y-150954819D02*
X133746666Y-150907200D01*
X133746666Y-150907200D02*
X133841904Y-150811961D01*
X133841904Y-150811961D02*
X133889523Y-150621485D01*
X133889523Y-150621485D02*
X133889523Y-150288152D01*
X133889523Y-150288152D02*
X133841904Y-150097676D01*
X133841904Y-150097676D02*
X133746666Y-150002438D01*
X133746666Y-150002438D02*
X133651428Y-149954819D01*
X139945713Y-150954819D02*
X139945713Y-149954819D01*
X139945713Y-149954819D02*
X139374285Y-150954819D01*
X139374285Y-150954819D02*
X139374285Y-149954819D01*
X138326666Y-150859580D02*
X138374285Y-150907200D01*
X138374285Y-150907200D02*
X138517142Y-150954819D01*
X138517142Y-150954819D02*
X138612380Y-150954819D01*
X138612380Y-150954819D02*
X138755237Y-150907200D01*
X138755237Y-150907200D02*
X138850475Y-150811961D01*
X138850475Y-150811961D02*
X138898094Y-150716723D01*
X138898094Y-150716723D02*
X138945713Y-150526247D01*
X138945713Y-150526247D02*
X138945713Y-150383390D01*
X138945713Y-150383390D02*
X138898094Y-150192914D01*
X138898094Y-150192914D02*
X138850475Y-150097676D01*
X138850475Y-150097676D02*
X138755237Y-150002438D01*
X138755237Y-150002438D02*
X138612380Y-149954819D01*
X138612380Y-149954819D02*
X138517142Y-149954819D01*
X138517142Y-149954819D02*
X138374285Y-150002438D01*
X138374285Y-150002438D02*
X138326666Y-150050057D01*
X140761904Y-18002438D02*
X140857142Y-17954819D01*
X140857142Y-17954819D02*
X140999999Y-17954819D01*
X140999999Y-17954819D02*
X141142856Y-18002438D01*
X141142856Y-18002438D02*
X141238094Y-18097676D01*
X141238094Y-18097676D02*
X141285713Y-18192914D01*
X141285713Y-18192914D02*
X141333332Y-18383390D01*
X141333332Y-18383390D02*
X141333332Y-18526247D01*
X141333332Y-18526247D02*
X141285713Y-18716723D01*
X141285713Y-18716723D02*
X141238094Y-18811961D01*
X141238094Y-18811961D02*
X141142856Y-18907200D01*
X141142856Y-18907200D02*
X140999999Y-18954819D01*
X140999999Y-18954819D02*
X140904761Y-18954819D01*
X140904761Y-18954819D02*
X140761904Y-18907200D01*
X140761904Y-18907200D02*
X140714285Y-18859580D01*
X140714285Y-18859580D02*
X140714285Y-18526247D01*
X140714285Y-18526247D02*
X140904761Y-18526247D01*
X140285713Y-18954819D02*
X140285713Y-17954819D01*
X140285713Y-17954819D02*
X139714285Y-18954819D01*
X139714285Y-18954819D02*
X139714285Y-17954819D01*
X139238094Y-18954819D02*
X139238094Y-17954819D01*
X139238094Y-17954819D02*
X138999999Y-17954819D01*
X138999999Y-17954819D02*
X138857142Y-18002438D01*
X138857142Y-18002438D02*
X138761904Y-18097676D01*
X138761904Y-18097676D02*
X138714285Y-18192914D01*
X138714285Y-18192914D02*
X138666666Y-18383390D01*
X138666666Y-18383390D02*
X138666666Y-18526247D01*
X138666666Y-18526247D02*
X138714285Y-18716723D01*
X138714285Y-18716723D02*
X138761904Y-18811961D01*
X138761904Y-18811961D02*
X138857142Y-18907200D01*
X138857142Y-18907200D02*
X138999999Y-18954819D01*
X138999999Y-18954819D02*
X139238094Y-18954819D01*
X145318094Y-18669104D02*
X144841904Y-18669104D01*
X145413332Y-18954819D02*
X145079999Y-17954819D01*
X145079999Y-17954819D02*
X144746666Y-18954819D01*
X150088571Y-18431009D02*
X149945714Y-18478628D01*
X149945714Y-18478628D02*
X149898095Y-18526247D01*
X149898095Y-18526247D02*
X149850476Y-18621485D01*
X149850476Y-18621485D02*
X149850476Y-18764342D01*
X149850476Y-18764342D02*
X149898095Y-18859580D01*
X149898095Y-18859580D02*
X149945714Y-18907200D01*
X149945714Y-18907200D02*
X150040952Y-18954819D01*
X150040952Y-18954819D02*
X150421904Y-18954819D01*
X150421904Y-18954819D02*
X150421904Y-17954819D01*
X150421904Y-17954819D02*
X150088571Y-17954819D01*
X150088571Y-17954819D02*
X149993333Y-18002438D01*
X149993333Y-18002438D02*
X149945714Y-18050057D01*
X149945714Y-18050057D02*
X149898095Y-18145295D01*
X149898095Y-18145295D02*
X149898095Y-18240533D01*
X149898095Y-18240533D02*
X149945714Y-18335771D01*
X149945714Y-18335771D02*
X149993333Y-18383390D01*
X149993333Y-18383390D02*
X150088571Y-18431009D01*
X150088571Y-18431009D02*
X150421904Y-18431009D01*
X153785714Y-150859580D02*
X153833333Y-150907200D01*
X153833333Y-150907200D02*
X153976190Y-150954819D01*
X153976190Y-150954819D02*
X154071428Y-150954819D01*
X154071428Y-150954819D02*
X154214285Y-150907200D01*
X154214285Y-150907200D02*
X154309523Y-150811961D01*
X154309523Y-150811961D02*
X154357142Y-150716723D01*
X154357142Y-150716723D02*
X154404761Y-150526247D01*
X154404761Y-150526247D02*
X154404761Y-150383390D01*
X154404761Y-150383390D02*
X154357142Y-150192914D01*
X154357142Y-150192914D02*
X154309523Y-150097676D01*
X154309523Y-150097676D02*
X154214285Y-150002438D01*
X154214285Y-150002438D02*
X154071428Y-149954819D01*
X154071428Y-149954819D02*
X153976190Y-149954819D01*
X153976190Y-149954819D02*
X153833333Y-150002438D01*
X153833333Y-150002438D02*
X153785714Y-150050057D01*
X153166666Y-149954819D02*
X152976190Y-149954819D01*
X152976190Y-149954819D02*
X152880952Y-150002438D01*
X152880952Y-150002438D02*
X152785714Y-150097676D01*
X152785714Y-150097676D02*
X152738095Y-150288152D01*
X152738095Y-150288152D02*
X152738095Y-150621485D01*
X152738095Y-150621485D02*
X152785714Y-150811961D01*
X152785714Y-150811961D02*
X152880952Y-150907200D01*
X152880952Y-150907200D02*
X152976190Y-150954819D01*
X152976190Y-150954819D02*
X153166666Y-150954819D01*
X153166666Y-150954819D02*
X153261904Y-150907200D01*
X153261904Y-150907200D02*
X153357142Y-150811961D01*
X153357142Y-150811961D02*
X153404761Y-150621485D01*
X153404761Y-150621485D02*
X153404761Y-150288152D01*
X153404761Y-150288152D02*
X153357142Y-150097676D01*
X153357142Y-150097676D02*
X153261904Y-150002438D01*
X153261904Y-150002438D02*
X153166666Y-149954819D01*
X152309523Y-150954819D02*
X152309523Y-149954819D01*
X152309523Y-149954819D02*
X151976190Y-150669104D01*
X151976190Y-150669104D02*
X151642857Y-149954819D01*
X151642857Y-149954819D02*
X151642857Y-150954819D01*
X156025713Y-18954819D02*
X156025713Y-17954819D01*
X156025713Y-17954819D02*
X155454285Y-18954819D01*
X155454285Y-18954819D02*
X155454285Y-17954819D01*
X154406666Y-18859580D02*
X154454285Y-18907200D01*
X154454285Y-18907200D02*
X154597142Y-18954819D01*
X154597142Y-18954819D02*
X154692380Y-18954819D01*
X154692380Y-18954819D02*
X154835237Y-18907200D01*
X154835237Y-18907200D02*
X154930475Y-18811961D01*
X154930475Y-18811961D02*
X154978094Y-18716723D01*
X154978094Y-18716723D02*
X155025713Y-18526247D01*
X155025713Y-18526247D02*
X155025713Y-18383390D01*
X155025713Y-18383390D02*
X154978094Y-18192914D01*
X154978094Y-18192914D02*
X154930475Y-18097676D01*
X154930475Y-18097676D02*
X154835237Y-18002438D01*
X154835237Y-18002438D02*
X154692380Y-17954819D01*
X154692380Y-17954819D02*
X154597142Y-17954819D01*
X154597142Y-17954819D02*
X154454285Y-18002438D01*
X154454285Y-18002438D02*
X154406666Y-18050057D01*
X158889523Y-150954819D02*
X158889523Y-149954819D01*
X158889523Y-149954819D02*
X158318095Y-150954819D01*
X158318095Y-150954819D02*
X158318095Y-149954819D01*
X157651428Y-149954819D02*
X157460952Y-149954819D01*
X157460952Y-149954819D02*
X157365714Y-150002438D01*
X157365714Y-150002438D02*
X157270476Y-150097676D01*
X157270476Y-150097676D02*
X157222857Y-150288152D01*
X157222857Y-150288152D02*
X157222857Y-150621485D01*
X157222857Y-150621485D02*
X157270476Y-150811961D01*
X157270476Y-150811961D02*
X157365714Y-150907200D01*
X157365714Y-150907200D02*
X157460952Y-150954819D01*
X157460952Y-150954819D02*
X157651428Y-150954819D01*
X157651428Y-150954819D02*
X157746666Y-150907200D01*
X157746666Y-150907200D02*
X157841904Y-150811961D01*
X157841904Y-150811961D02*
X157889523Y-150621485D01*
X157889523Y-150621485D02*
X157889523Y-150288152D01*
X157889523Y-150288152D02*
X157841904Y-150097676D01*
X157841904Y-150097676D02*
X157746666Y-150002438D01*
X157746666Y-150002438D02*
X157651428Y-149954819D01*
X161081904Y-18002438D02*
X161177142Y-17954819D01*
X161177142Y-17954819D02*
X161319999Y-17954819D01*
X161319999Y-17954819D02*
X161462856Y-18002438D01*
X161462856Y-18002438D02*
X161558094Y-18097676D01*
X161558094Y-18097676D02*
X161605713Y-18192914D01*
X161605713Y-18192914D02*
X161653332Y-18383390D01*
X161653332Y-18383390D02*
X161653332Y-18526247D01*
X161653332Y-18526247D02*
X161605713Y-18716723D01*
X161605713Y-18716723D02*
X161558094Y-18811961D01*
X161558094Y-18811961D02*
X161462856Y-18907200D01*
X161462856Y-18907200D02*
X161319999Y-18954819D01*
X161319999Y-18954819D02*
X161224761Y-18954819D01*
X161224761Y-18954819D02*
X161081904Y-18907200D01*
X161081904Y-18907200D02*
X161034285Y-18859580D01*
X161034285Y-18859580D02*
X161034285Y-18526247D01*
X161034285Y-18526247D02*
X161224761Y-18526247D01*
X160605713Y-18954819D02*
X160605713Y-17954819D01*
X160605713Y-17954819D02*
X160034285Y-18954819D01*
X160034285Y-18954819D02*
X160034285Y-17954819D01*
X159558094Y-18954819D02*
X159558094Y-17954819D01*
X159558094Y-17954819D02*
X159319999Y-17954819D01*
X159319999Y-17954819D02*
X159177142Y-18002438D01*
X159177142Y-18002438D02*
X159081904Y-18097676D01*
X159081904Y-18097676D02*
X159034285Y-18192914D01*
X159034285Y-18192914D02*
X158986666Y-18383390D01*
X158986666Y-18383390D02*
X158986666Y-18526247D01*
X158986666Y-18526247D02*
X159034285Y-18716723D01*
X159034285Y-18716723D02*
X159081904Y-18811961D01*
X159081904Y-18811961D02*
X159177142Y-18907200D01*
X159177142Y-18907200D02*
X159319999Y-18954819D01*
X159319999Y-18954819D02*
X159558094Y-18954819D01*
X163945713Y-150954819D02*
X163945713Y-149954819D01*
X163945713Y-149954819D02*
X163374285Y-150954819D01*
X163374285Y-150954819D02*
X163374285Y-149954819D01*
X162326666Y-150859580D02*
X162374285Y-150907200D01*
X162374285Y-150907200D02*
X162517142Y-150954819D01*
X162517142Y-150954819D02*
X162612380Y-150954819D01*
X162612380Y-150954819D02*
X162755237Y-150907200D01*
X162755237Y-150907200D02*
X162850475Y-150811961D01*
X162850475Y-150811961D02*
X162898094Y-150716723D01*
X162898094Y-150716723D02*
X162945713Y-150526247D01*
X162945713Y-150526247D02*
X162945713Y-150383390D01*
X162945713Y-150383390D02*
X162898094Y-150192914D01*
X162898094Y-150192914D02*
X162850475Y-150097676D01*
X162850475Y-150097676D02*
X162755237Y-150002438D01*
X162755237Y-150002438D02*
X162612380Y-149954819D01*
X162612380Y-149954819D02*
X162517142Y-149954819D01*
X162517142Y-149954819D02*
X162374285Y-150002438D01*
X162374285Y-150002438D02*
X162326666Y-150050057D01*
X170761904Y-22002438D02*
X170857142Y-21954819D01*
X170857142Y-21954819D02*
X170999999Y-21954819D01*
X170999999Y-21954819D02*
X171142856Y-22002438D01*
X171142856Y-22002438D02*
X171238094Y-22097676D01*
X171238094Y-22097676D02*
X171285713Y-22192914D01*
X171285713Y-22192914D02*
X171333332Y-22383390D01*
X171333332Y-22383390D02*
X171333332Y-22526247D01*
X171333332Y-22526247D02*
X171285713Y-22716723D01*
X171285713Y-22716723D02*
X171238094Y-22811961D01*
X171238094Y-22811961D02*
X171142856Y-22907200D01*
X171142856Y-22907200D02*
X170999999Y-22954819D01*
X170999999Y-22954819D02*
X170904761Y-22954819D01*
X170904761Y-22954819D02*
X170761904Y-22907200D01*
X170761904Y-22907200D02*
X170714285Y-22859580D01*
X170714285Y-22859580D02*
X170714285Y-22526247D01*
X170714285Y-22526247D02*
X170904761Y-22526247D01*
X170285713Y-22954819D02*
X170285713Y-21954819D01*
X170285713Y-21954819D02*
X169714285Y-22954819D01*
X169714285Y-22954819D02*
X169714285Y-21954819D01*
X169238094Y-22954819D02*
X169238094Y-21954819D01*
X169238094Y-21954819D02*
X168999999Y-21954819D01*
X168999999Y-21954819D02*
X168857142Y-22002438D01*
X168857142Y-22002438D02*
X168761904Y-22097676D01*
X168761904Y-22097676D02*
X168714285Y-22192914D01*
X168714285Y-22192914D02*
X168666666Y-22383390D01*
X168666666Y-22383390D02*
X168666666Y-22526247D01*
X168666666Y-22526247D02*
X168714285Y-22716723D01*
X168714285Y-22716723D02*
X168761904Y-22811961D01*
X168761904Y-22811961D02*
X168857142Y-22907200D01*
X168857142Y-22907200D02*
X168999999Y-22954819D01*
X168999999Y-22954819D02*
X169238094Y-22954819D01*
X175318094Y-22669104D02*
X174841904Y-22669104D01*
X175413332Y-22954819D02*
X175079999Y-21954819D01*
X175079999Y-21954819D02*
X174746666Y-22954819D01*
X177785714Y-150859580D02*
X177833333Y-150907200D01*
X177833333Y-150907200D02*
X177976190Y-150954819D01*
X177976190Y-150954819D02*
X178071428Y-150954819D01*
X178071428Y-150954819D02*
X178214285Y-150907200D01*
X178214285Y-150907200D02*
X178309523Y-150811961D01*
X178309523Y-150811961D02*
X178357142Y-150716723D01*
X178357142Y-150716723D02*
X178404761Y-150526247D01*
X178404761Y-150526247D02*
X178404761Y-150383390D01*
X178404761Y-150383390D02*
X178357142Y-150192914D01*
X178357142Y-150192914D02*
X178309523Y-150097676D01*
X178309523Y-150097676D02*
X178214285Y-150002438D01*
X178214285Y-150002438D02*
X178071428Y-149954819D01*
X178071428Y-149954819D02*
X177976190Y-149954819D01*
X177976190Y-149954819D02*
X177833333Y-150002438D01*
X177833333Y-150002438D02*
X177785714Y-150050057D01*
X177166666Y-149954819D02*
X176976190Y-149954819D01*
X176976190Y-149954819D02*
X176880952Y-150002438D01*
X176880952Y-150002438D02*
X176785714Y-150097676D01*
X176785714Y-150097676D02*
X176738095Y-150288152D01*
X176738095Y-150288152D02*
X176738095Y-150621485D01*
X176738095Y-150621485D02*
X176785714Y-150811961D01*
X176785714Y-150811961D02*
X176880952Y-150907200D01*
X176880952Y-150907200D02*
X176976190Y-150954819D01*
X176976190Y-150954819D02*
X177166666Y-150954819D01*
X177166666Y-150954819D02*
X177261904Y-150907200D01*
X177261904Y-150907200D02*
X177357142Y-150811961D01*
X177357142Y-150811961D02*
X177404761Y-150621485D01*
X177404761Y-150621485D02*
X177404761Y-150288152D01*
X177404761Y-150288152D02*
X177357142Y-150097676D01*
X177357142Y-150097676D02*
X177261904Y-150002438D01*
X177261904Y-150002438D02*
X177166666Y-149954819D01*
X176309523Y-150954819D02*
X176309523Y-149954819D01*
X176309523Y-149954819D02*
X175976190Y-150669104D01*
X175976190Y-150669104D02*
X175642857Y-149954819D01*
X175642857Y-149954819D02*
X175642857Y-150954819D01*
X180088571Y-22431009D02*
X179945714Y-22478628D01*
X179945714Y-22478628D02*
X179898095Y-22526247D01*
X179898095Y-22526247D02*
X179850476Y-22621485D01*
X179850476Y-22621485D02*
X179850476Y-22764342D01*
X179850476Y-22764342D02*
X179898095Y-22859580D01*
X179898095Y-22859580D02*
X179945714Y-22907200D01*
X179945714Y-22907200D02*
X180040952Y-22954819D01*
X180040952Y-22954819D02*
X180421904Y-22954819D01*
X180421904Y-22954819D02*
X180421904Y-21954819D01*
X180421904Y-21954819D02*
X180088571Y-21954819D01*
X180088571Y-21954819D02*
X179993333Y-22002438D01*
X179993333Y-22002438D02*
X179945714Y-22050057D01*
X179945714Y-22050057D02*
X179898095Y-22145295D01*
X179898095Y-22145295D02*
X179898095Y-22240533D01*
X179898095Y-22240533D02*
X179945714Y-22335771D01*
X179945714Y-22335771D02*
X179993333Y-22383390D01*
X179993333Y-22383390D02*
X180088571Y-22431009D01*
X180088571Y-22431009D02*
X180421904Y-22431009D01*
X182889523Y-150954819D02*
X182889523Y-149954819D01*
X182889523Y-149954819D02*
X182318095Y-150954819D01*
X182318095Y-150954819D02*
X182318095Y-149954819D01*
X181651428Y-149954819D02*
X181460952Y-149954819D01*
X181460952Y-149954819D02*
X181365714Y-150002438D01*
X181365714Y-150002438D02*
X181270476Y-150097676D01*
X181270476Y-150097676D02*
X181222857Y-150288152D01*
X181222857Y-150288152D02*
X181222857Y-150621485D01*
X181222857Y-150621485D02*
X181270476Y-150811961D01*
X181270476Y-150811961D02*
X181365714Y-150907200D01*
X181365714Y-150907200D02*
X181460952Y-150954819D01*
X181460952Y-150954819D02*
X181651428Y-150954819D01*
X181651428Y-150954819D02*
X181746666Y-150907200D01*
X181746666Y-150907200D02*
X181841904Y-150811961D01*
X181841904Y-150811961D02*
X181889523Y-150621485D01*
X181889523Y-150621485D02*
X181889523Y-150288152D01*
X181889523Y-150288152D02*
X181841904Y-150097676D01*
X181841904Y-150097676D02*
X181746666Y-150002438D01*
X181746666Y-150002438D02*
X181651428Y-149954819D01*
X185761904Y-77073866D02*
X185000000Y-77073866D01*
X185380952Y-77454819D02*
X185380952Y-76692914D01*
X184000000Y-77454819D02*
X184571428Y-77454819D01*
X184285714Y-77454819D02*
X184285714Y-76454819D01*
X184285714Y-76454819D02*
X184380952Y-76597676D01*
X184380952Y-76597676D02*
X184476190Y-76692914D01*
X184476190Y-76692914D02*
X184571428Y-76740533D01*
X183619047Y-76550057D02*
X183571428Y-76502438D01*
X183571428Y-76502438D02*
X183476190Y-76454819D01*
X183476190Y-76454819D02*
X183238095Y-76454819D01*
X183238095Y-76454819D02*
X183142857Y-76502438D01*
X183142857Y-76502438D02*
X183095238Y-76550057D01*
X183095238Y-76550057D02*
X183047619Y-76645295D01*
X183047619Y-76645295D02*
X183047619Y-76740533D01*
X183047619Y-76740533D02*
X183095238Y-76883390D01*
X183095238Y-76883390D02*
X183666666Y-77454819D01*
X183666666Y-77454819D02*
X183047619Y-77454819D01*
X182761904Y-76454819D02*
X182428571Y-77454819D01*
X182428571Y-77454819D02*
X182095238Y-76454819D01*
X184761904Y-81582438D02*
X184857142Y-81534819D01*
X184857142Y-81534819D02*
X184999999Y-81534819D01*
X184999999Y-81534819D02*
X185142856Y-81582438D01*
X185142856Y-81582438D02*
X185238094Y-81677676D01*
X185238094Y-81677676D02*
X185285713Y-81772914D01*
X185285713Y-81772914D02*
X185333332Y-81963390D01*
X185333332Y-81963390D02*
X185333332Y-82106247D01*
X185333332Y-82106247D02*
X185285713Y-82296723D01*
X185285713Y-82296723D02*
X185238094Y-82391961D01*
X185238094Y-82391961D02*
X185142856Y-82487200D01*
X185142856Y-82487200D02*
X184999999Y-82534819D01*
X184999999Y-82534819D02*
X184904761Y-82534819D01*
X184904761Y-82534819D02*
X184761904Y-82487200D01*
X184761904Y-82487200D02*
X184714285Y-82439580D01*
X184714285Y-82439580D02*
X184714285Y-82106247D01*
X184714285Y-82106247D02*
X184904761Y-82106247D01*
X184285713Y-82534819D02*
X184285713Y-81534819D01*
X184285713Y-81534819D02*
X183714285Y-82534819D01*
X183714285Y-82534819D02*
X183714285Y-81534819D01*
X183238094Y-82534819D02*
X183238094Y-81534819D01*
X183238094Y-81534819D02*
X182999999Y-81534819D01*
X182999999Y-81534819D02*
X182857142Y-81582438D01*
X182857142Y-81582438D02*
X182761904Y-81677676D01*
X182761904Y-81677676D02*
X182714285Y-81772914D01*
X182714285Y-81772914D02*
X182666666Y-81963390D01*
X182666666Y-81963390D02*
X182666666Y-82106247D01*
X182666666Y-82106247D02*
X182714285Y-82296723D01*
X182714285Y-82296723D02*
X182761904Y-82391961D01*
X182761904Y-82391961D02*
X182857142Y-82487200D01*
X182857142Y-82487200D02*
X182999999Y-82534819D01*
X182999999Y-82534819D02*
X183238094Y-82534819D01*
X185761904Y-98073866D02*
X185000000Y-98073866D01*
X185380952Y-98454819D02*
X185380952Y-97692914D01*
X184000000Y-98454819D02*
X184571428Y-98454819D01*
X184285714Y-98454819D02*
X184285714Y-97454819D01*
X184285714Y-97454819D02*
X184380952Y-97597676D01*
X184380952Y-97597676D02*
X184476190Y-97692914D01*
X184476190Y-97692914D02*
X184571428Y-97740533D01*
X183619047Y-97550057D02*
X183571428Y-97502438D01*
X183571428Y-97502438D02*
X183476190Y-97454819D01*
X183476190Y-97454819D02*
X183238095Y-97454819D01*
X183238095Y-97454819D02*
X183142857Y-97502438D01*
X183142857Y-97502438D02*
X183095238Y-97550057D01*
X183095238Y-97550057D02*
X183047619Y-97645295D01*
X183047619Y-97645295D02*
X183047619Y-97740533D01*
X183047619Y-97740533D02*
X183095238Y-97883390D01*
X183095238Y-97883390D02*
X183666666Y-98454819D01*
X183666666Y-98454819D02*
X183047619Y-98454819D01*
X182761904Y-97454819D02*
X182428571Y-98454819D01*
X182428571Y-98454819D02*
X182095238Y-97454819D01*
X184761904Y-102582438D02*
X184857142Y-102534819D01*
X184857142Y-102534819D02*
X184999999Y-102534819D01*
X184999999Y-102534819D02*
X185142856Y-102582438D01*
X185142856Y-102582438D02*
X185238094Y-102677676D01*
X185238094Y-102677676D02*
X185285713Y-102772914D01*
X185285713Y-102772914D02*
X185333332Y-102963390D01*
X185333332Y-102963390D02*
X185333332Y-103106247D01*
X185333332Y-103106247D02*
X185285713Y-103296723D01*
X185285713Y-103296723D02*
X185238094Y-103391961D01*
X185238094Y-103391961D02*
X185142856Y-103487200D01*
X185142856Y-103487200D02*
X184999999Y-103534819D01*
X184999999Y-103534819D02*
X184904761Y-103534819D01*
X184904761Y-103534819D02*
X184761904Y-103487200D01*
X184761904Y-103487200D02*
X184714285Y-103439580D01*
X184714285Y-103439580D02*
X184714285Y-103106247D01*
X184714285Y-103106247D02*
X184904761Y-103106247D01*
X184285713Y-103534819D02*
X184285713Y-102534819D01*
X184285713Y-102534819D02*
X183714285Y-103534819D01*
X183714285Y-103534819D02*
X183714285Y-102534819D01*
X183238094Y-103534819D02*
X183238094Y-102534819D01*
X183238094Y-102534819D02*
X182999999Y-102534819D01*
X182999999Y-102534819D02*
X182857142Y-102582438D01*
X182857142Y-102582438D02*
X182761904Y-102677676D01*
X182761904Y-102677676D02*
X182714285Y-102772914D01*
X182714285Y-102772914D02*
X182666666Y-102963390D01*
X182666666Y-102963390D02*
X182666666Y-103106247D01*
X182666666Y-103106247D02*
X182714285Y-103296723D01*
X182714285Y-103296723D02*
X182761904Y-103391961D01*
X182761904Y-103391961D02*
X182857142Y-103487200D01*
X182857142Y-103487200D02*
X182999999Y-103534819D01*
X182999999Y-103534819D02*
X183238094Y-103534819D01*
X186025713Y-22954819D02*
X186025713Y-21954819D01*
X186025713Y-21954819D02*
X185454285Y-22954819D01*
X185454285Y-22954819D02*
X185454285Y-21954819D01*
X184406666Y-22859580D02*
X184454285Y-22907200D01*
X184454285Y-22907200D02*
X184597142Y-22954819D01*
X184597142Y-22954819D02*
X184692380Y-22954819D01*
X184692380Y-22954819D02*
X184835237Y-22907200D01*
X184835237Y-22907200D02*
X184930475Y-22811961D01*
X184930475Y-22811961D02*
X184978094Y-22716723D01*
X184978094Y-22716723D02*
X185025713Y-22526247D01*
X185025713Y-22526247D02*
X185025713Y-22383390D01*
X185025713Y-22383390D02*
X184978094Y-22192914D01*
X184978094Y-22192914D02*
X184930475Y-22097676D01*
X184930475Y-22097676D02*
X184835237Y-22002438D01*
X184835237Y-22002438D02*
X184692380Y-21954819D01*
X184692380Y-21954819D02*
X184597142Y-21954819D01*
X184597142Y-21954819D02*
X184454285Y-22002438D01*
X184454285Y-22002438D02*
X184406666Y-22050057D01*
X187945713Y-150954819D02*
X187945713Y-149954819D01*
X187945713Y-149954819D02*
X187374285Y-150954819D01*
X187374285Y-150954819D02*
X187374285Y-149954819D01*
X186326666Y-150859580D02*
X186374285Y-150907200D01*
X186374285Y-150907200D02*
X186517142Y-150954819D01*
X186517142Y-150954819D02*
X186612380Y-150954819D01*
X186612380Y-150954819D02*
X186755237Y-150907200D01*
X186755237Y-150907200D02*
X186850475Y-150811961D01*
X186850475Y-150811961D02*
X186898094Y-150716723D01*
X186898094Y-150716723D02*
X186945713Y-150526247D01*
X186945713Y-150526247D02*
X186945713Y-150383390D01*
X186945713Y-150383390D02*
X186898094Y-150192914D01*
X186898094Y-150192914D02*
X186850475Y-150097676D01*
X186850475Y-150097676D02*
X186755237Y-150002438D01*
X186755237Y-150002438D02*
X186612380Y-149954819D01*
X186612380Y-149954819D02*
X186517142Y-149954819D01*
X186517142Y-149954819D02*
X186374285Y-150002438D01*
X186374285Y-150002438D02*
X186326666Y-150050057D01*
X191081904Y-22002438D02*
X191177142Y-21954819D01*
X191177142Y-21954819D02*
X191319999Y-21954819D01*
X191319999Y-21954819D02*
X191462856Y-22002438D01*
X191462856Y-22002438D02*
X191558094Y-22097676D01*
X191558094Y-22097676D02*
X191605713Y-22192914D01*
X191605713Y-22192914D02*
X191653332Y-22383390D01*
X191653332Y-22383390D02*
X191653332Y-22526247D01*
X191653332Y-22526247D02*
X191605713Y-22716723D01*
X191605713Y-22716723D02*
X191558094Y-22811961D01*
X191558094Y-22811961D02*
X191462856Y-22907200D01*
X191462856Y-22907200D02*
X191319999Y-22954819D01*
X191319999Y-22954819D02*
X191224761Y-22954819D01*
X191224761Y-22954819D02*
X191081904Y-22907200D01*
X191081904Y-22907200D02*
X191034285Y-22859580D01*
X191034285Y-22859580D02*
X191034285Y-22526247D01*
X191034285Y-22526247D02*
X191224761Y-22526247D01*
X190605713Y-22954819D02*
X190605713Y-21954819D01*
X190605713Y-21954819D02*
X190034285Y-22954819D01*
X190034285Y-22954819D02*
X190034285Y-21954819D01*
X189558094Y-22954819D02*
X189558094Y-21954819D01*
X189558094Y-21954819D02*
X189319999Y-21954819D01*
X189319999Y-21954819D02*
X189177142Y-22002438D01*
X189177142Y-22002438D02*
X189081904Y-22097676D01*
X189081904Y-22097676D02*
X189034285Y-22192914D01*
X189034285Y-22192914D02*
X188986666Y-22383390D01*
X188986666Y-22383390D02*
X188986666Y-22526247D01*
X188986666Y-22526247D02*
X189034285Y-22716723D01*
X189034285Y-22716723D02*
X189081904Y-22811961D01*
X189081904Y-22811961D02*
X189177142Y-22907200D01*
X189177142Y-22907200D02*
X189319999Y-22954819D01*
X189319999Y-22954819D02*
X189558094Y-22954819D01*
X150490474Y-154501080D02*
X151119046Y-154501080D01*
X150804760Y-154501080D02*
X150804760Y-153401080D01*
X150804760Y-153401080D02*
X150909522Y-153558223D01*
X150909522Y-153558223D02*
X151014284Y-153662985D01*
X151014284Y-153662985D02*
X151119046Y-153715366D01*
X150071427Y-153505842D02*
X150019046Y-153453461D01*
X150019046Y-153453461D02*
X149914284Y-153401080D01*
X149914284Y-153401080D02*
X149652379Y-153401080D01*
X149652379Y-153401080D02*
X149547617Y-153453461D01*
X149547617Y-153453461D02*
X149495236Y-153505842D01*
X149495236Y-153505842D02*
X149442855Y-153610604D01*
X149442855Y-153610604D02*
X149442855Y-153715366D01*
X149442855Y-153715366D02*
X149495236Y-153872509D01*
X149495236Y-153872509D02*
X150123808Y-154501080D01*
X150123808Y-154501080D02*
X149442855Y-154501080D01*
X149128570Y-153401080D02*
X148761903Y-154501080D01*
X148761903Y-154501080D02*
X148395236Y-153401080D01*
X148028570Y-154501080D02*
X148028570Y-153401080D01*
X148028570Y-153401080D02*
X147766665Y-153401080D01*
X147766665Y-153401080D02*
X147609522Y-153453461D01*
X147609522Y-153453461D02*
X147504760Y-153558223D01*
X147504760Y-153558223D02*
X147452379Y-153662985D01*
X147452379Y-153662985D02*
X147399998Y-153872509D01*
X147399998Y-153872509D02*
X147399998Y-154029652D01*
X147399998Y-154029652D02*
X147452379Y-154239176D01*
X147452379Y-154239176D02*
X147504760Y-154343938D01*
X147504760Y-154343938D02*
X147609522Y-154448700D01*
X147609522Y-154448700D02*
X147766665Y-154501080D01*
X147766665Y-154501080D02*
X148028570Y-154501080D01*
X146299998Y-154396319D02*
X146352379Y-154448700D01*
X146352379Y-154448700D02*
X146509522Y-154501080D01*
X146509522Y-154501080D02*
X146614284Y-154501080D01*
X146614284Y-154501080D02*
X146771427Y-154448700D01*
X146771427Y-154448700D02*
X146876189Y-154343938D01*
X146876189Y-154343938D02*
X146928570Y-154239176D01*
X146928570Y-154239176D02*
X146980951Y-154029652D01*
X146980951Y-154029652D02*
X146980951Y-153872509D01*
X146980951Y-153872509D02*
X146928570Y-153662985D01*
X146928570Y-153662985D02*
X146876189Y-153558223D01*
X146876189Y-153558223D02*
X146771427Y-153453461D01*
X146771427Y-153453461D02*
X146614284Y-153401080D01*
X146614284Y-153401080D02*
X146509522Y-153401080D01*
X146509522Y-153401080D02*
X146352379Y-153453461D01*
X146352379Y-153453461D02*
X146299998Y-153505842D01*
X144361903Y-154396319D02*
X144414284Y-154448700D01*
X144414284Y-154448700D02*
X144571427Y-154501080D01*
X144571427Y-154501080D02*
X144676189Y-154501080D01*
X144676189Y-154501080D02*
X144833332Y-154448700D01*
X144833332Y-154448700D02*
X144938094Y-154343938D01*
X144938094Y-154343938D02*
X144990475Y-154239176D01*
X144990475Y-154239176D02*
X145042856Y-154029652D01*
X145042856Y-154029652D02*
X145042856Y-153872509D01*
X145042856Y-153872509D02*
X144990475Y-153662985D01*
X144990475Y-153662985D02*
X144938094Y-153558223D01*
X144938094Y-153558223D02*
X144833332Y-153453461D01*
X144833332Y-153453461D02*
X144676189Y-153401080D01*
X144676189Y-153401080D02*
X144571427Y-153401080D01*
X144571427Y-153401080D02*
X144414284Y-153453461D01*
X144414284Y-153453461D02*
X144361903Y-153505842D01*
X143680951Y-153401080D02*
X143471427Y-153401080D01*
X143471427Y-153401080D02*
X143366665Y-153453461D01*
X143366665Y-153453461D02*
X143261903Y-153558223D01*
X143261903Y-153558223D02*
X143209522Y-153767747D01*
X143209522Y-153767747D02*
X143209522Y-154134414D01*
X143209522Y-154134414D02*
X143261903Y-154343938D01*
X143261903Y-154343938D02*
X143366665Y-154448700D01*
X143366665Y-154448700D02*
X143471427Y-154501080D01*
X143471427Y-154501080D02*
X143680951Y-154501080D01*
X143680951Y-154501080D02*
X143785713Y-154448700D01*
X143785713Y-154448700D02*
X143890475Y-154343938D01*
X143890475Y-154343938D02*
X143942856Y-154134414D01*
X143942856Y-154134414D02*
X143942856Y-153767747D01*
X143942856Y-153767747D02*
X143890475Y-153558223D01*
X143890475Y-153558223D02*
X143785713Y-153453461D01*
X143785713Y-153453461D02*
X143680951Y-153401080D01*
X142738094Y-154501080D02*
X142738094Y-153401080D01*
X142738094Y-153401080D02*
X142109522Y-154501080D01*
X142109522Y-154501080D02*
X142109522Y-153401080D01*
X141742856Y-153401080D02*
X141114284Y-153401080D01*
X141428570Y-154501080D02*
X141428570Y-153401080D01*
X140119046Y-154501080D02*
X140485713Y-153977271D01*
X140747618Y-154501080D02*
X140747618Y-153401080D01*
X140747618Y-153401080D02*
X140328570Y-153401080D01*
X140328570Y-153401080D02*
X140223808Y-153453461D01*
X140223808Y-153453461D02*
X140171427Y-153505842D01*
X140171427Y-153505842D02*
X140119046Y-153610604D01*
X140119046Y-153610604D02*
X140119046Y-153767747D01*
X140119046Y-153767747D02*
X140171427Y-153872509D01*
X140171427Y-153872509D02*
X140223808Y-153924890D01*
X140223808Y-153924890D02*
X140328570Y-153977271D01*
X140328570Y-153977271D02*
X140747618Y-153977271D01*
X139438094Y-153401080D02*
X139228570Y-153401080D01*
X139228570Y-153401080D02*
X139123808Y-153453461D01*
X139123808Y-153453461D02*
X139019046Y-153558223D01*
X139019046Y-153558223D02*
X138966665Y-153767747D01*
X138966665Y-153767747D02*
X138966665Y-154134414D01*
X138966665Y-154134414D02*
X139019046Y-154343938D01*
X139019046Y-154343938D02*
X139123808Y-154448700D01*
X139123808Y-154448700D02*
X139228570Y-154501080D01*
X139228570Y-154501080D02*
X139438094Y-154501080D01*
X139438094Y-154501080D02*
X139542856Y-154448700D01*
X139542856Y-154448700D02*
X139647618Y-154343938D01*
X139647618Y-154343938D02*
X139699999Y-154134414D01*
X139699999Y-154134414D02*
X139699999Y-153767747D01*
X139699999Y-153767747D02*
X139647618Y-153558223D01*
X139647618Y-153558223D02*
X139542856Y-153453461D01*
X139542856Y-153453461D02*
X139438094Y-153401080D01*
X137971427Y-154501080D02*
X138495237Y-154501080D01*
X138495237Y-154501080D02*
X138495237Y-153401080D01*
X136504761Y-154867747D02*
X136504761Y-153296319D01*
X134933333Y-153505842D02*
X134880952Y-153453461D01*
X134880952Y-153453461D02*
X134776190Y-153401080D01*
X134776190Y-153401080D02*
X134514285Y-153401080D01*
X134514285Y-153401080D02*
X134409523Y-153453461D01*
X134409523Y-153453461D02*
X134357142Y-153505842D01*
X134357142Y-153505842D02*
X134304761Y-153610604D01*
X134304761Y-153610604D02*
X134304761Y-153715366D01*
X134304761Y-153715366D02*
X134357142Y-153872509D01*
X134357142Y-153872509D02*
X134985714Y-154501080D01*
X134985714Y-154501080D02*
X134304761Y-154501080D01*
X133361904Y-153767747D02*
X133361904Y-154501080D01*
X133623809Y-153348700D02*
X133885714Y-154134414D01*
X133885714Y-154134414D02*
X133204761Y-154134414D01*
X132942857Y-153401080D02*
X132576190Y-154501080D01*
X132576190Y-154501080D02*
X132209523Y-153401080D01*
X131895238Y-154186795D02*
X131371428Y-154186795D01*
X132000000Y-154501080D02*
X131633333Y-153401080D01*
X131633333Y-153401080D02*
X131266666Y-154501080D01*
X130271428Y-154396319D02*
X130323809Y-154448700D01*
X130323809Y-154448700D02*
X130480952Y-154501080D01*
X130480952Y-154501080D02*
X130585714Y-154501080D01*
X130585714Y-154501080D02*
X130742857Y-154448700D01*
X130742857Y-154448700D02*
X130847619Y-154343938D01*
X130847619Y-154343938D02*
X130900000Y-154239176D01*
X130900000Y-154239176D02*
X130952381Y-154029652D01*
X130952381Y-154029652D02*
X130952381Y-153872509D01*
X130952381Y-153872509D02*
X130900000Y-153662985D01*
X130900000Y-153662985D02*
X130847619Y-153558223D01*
X130847619Y-153558223D02*
X130742857Y-153453461D01*
X130742857Y-153453461D02*
X130585714Y-153401080D01*
X130585714Y-153401080D02*
X130480952Y-153401080D01*
X130480952Y-153401080D02*
X130323809Y-153453461D01*
X130323809Y-153453461D02*
X130271428Y-153505842D01*
X129119048Y-153401080D02*
X128752381Y-154501080D01*
X128752381Y-154501080D02*
X128385714Y-153401080D01*
X128071429Y-154186795D02*
X127547619Y-154186795D01*
X128176191Y-154501080D02*
X127809524Y-153401080D01*
X127809524Y-153401080D02*
X127442857Y-154501080D01*
X126552381Y-154501080D02*
X127076191Y-154501080D01*
X127076191Y-154501080D02*
X127076191Y-153401080D01*
X126342858Y-153401080D02*
X125976191Y-154501080D01*
X125976191Y-154501080D02*
X125609524Y-153401080D01*
X125242858Y-153924890D02*
X124876191Y-153924890D01*
X124719048Y-154501080D02*
X125242858Y-154501080D01*
X125242858Y-154501080D02*
X125242858Y-153401080D01*
X125242858Y-153401080D02*
X124719048Y-153401080D01*
X124300001Y-154448700D02*
X124142858Y-154501080D01*
X124142858Y-154501080D02*
X123880953Y-154501080D01*
X123880953Y-154501080D02*
X123776191Y-154448700D01*
X123776191Y-154448700D02*
X123723810Y-154396319D01*
X123723810Y-154396319D02*
X123671429Y-154291557D01*
X123671429Y-154291557D02*
X123671429Y-154186795D01*
X123671429Y-154186795D02*
X123723810Y-154082033D01*
X123723810Y-154082033D02*
X123776191Y-154029652D01*
X123776191Y-154029652D02*
X123880953Y-153977271D01*
X123880953Y-153977271D02*
X124090477Y-153924890D01*
X124090477Y-153924890D02*
X124195239Y-153872509D01*
X124195239Y-153872509D02*
X124247620Y-153820128D01*
X124247620Y-153820128D02*
X124300001Y-153715366D01*
X124300001Y-153715366D02*
X124300001Y-153610604D01*
X124300001Y-153610604D02*
X124247620Y-153505842D01*
X124247620Y-153505842D02*
X124195239Y-153453461D01*
X124195239Y-153453461D02*
X124090477Y-153401080D01*
X124090477Y-153401080D02*
X123828572Y-153401080D01*
X123828572Y-153401080D02*
X123671429Y-153453461D01*
X122100001Y-154867747D02*
X122100001Y-153296319D01*
X120476192Y-154501080D02*
X120476192Y-153401080D01*
X120476192Y-153401080D02*
X119847620Y-154501080D01*
X119847620Y-154501080D02*
X119847620Y-153401080D01*
X119114287Y-153401080D02*
X118904763Y-153401080D01*
X118904763Y-153401080D02*
X118800001Y-153453461D01*
X118800001Y-153453461D02*
X118695239Y-153558223D01*
X118695239Y-153558223D02*
X118642858Y-153767747D01*
X118642858Y-153767747D02*
X118642858Y-154134414D01*
X118642858Y-154134414D02*
X118695239Y-154343938D01*
X118695239Y-154343938D02*
X118800001Y-154448700D01*
X118800001Y-154448700D02*
X118904763Y-154501080D01*
X118904763Y-154501080D02*
X119114287Y-154501080D01*
X119114287Y-154501080D02*
X119219049Y-154448700D01*
X119219049Y-154448700D02*
X119323811Y-154343938D01*
X119323811Y-154343938D02*
X119376192Y-154134414D01*
X119376192Y-154134414D02*
X119376192Y-153767747D01*
X119376192Y-153767747D02*
X119323811Y-153558223D01*
X119323811Y-153558223D02*
X119219049Y-153453461D01*
X119219049Y-153453461D02*
X119114287Y-153401080D01*
X117333335Y-154501080D02*
X117333335Y-153401080D01*
X117333335Y-153401080D02*
X116966668Y-154186795D01*
X116966668Y-154186795D02*
X116600001Y-153401080D01*
X116600001Y-153401080D02*
X116600001Y-154501080D01*
X116128573Y-154186795D02*
X115604763Y-154186795D01*
X116233335Y-154501080D02*
X115866668Y-153401080D01*
X115866668Y-153401080D02*
X115500001Y-154501080D01*
X115133335Y-154501080D02*
X115133335Y-153401080D01*
X114609525Y-154501080D02*
X114609525Y-153401080D01*
X114609525Y-153401080D02*
X113980953Y-154501080D01*
X113980953Y-154501080D02*
X113980953Y-153401080D01*
X113509525Y-154448700D02*
X113352382Y-154501080D01*
X113352382Y-154501080D02*
X113090477Y-154501080D01*
X113090477Y-154501080D02*
X112985715Y-154448700D01*
X112985715Y-154448700D02*
X112933334Y-154396319D01*
X112933334Y-154396319D02*
X112880953Y-154291557D01*
X112880953Y-154291557D02*
X112880953Y-154186795D01*
X112880953Y-154186795D02*
X112933334Y-154082033D01*
X112933334Y-154082033D02*
X112985715Y-154029652D01*
X112985715Y-154029652D02*
X113090477Y-153977271D01*
X113090477Y-153977271D02*
X113300001Y-153924890D01*
X113300001Y-153924890D02*
X113404763Y-153872509D01*
X113404763Y-153872509D02*
X113457144Y-153820128D01*
X113457144Y-153820128D02*
X113509525Y-153715366D01*
X113509525Y-153715366D02*
X113509525Y-153610604D01*
X113509525Y-153610604D02*
X113457144Y-153505842D01*
X113457144Y-153505842D02*
X113404763Y-153453461D01*
X113404763Y-153453461D02*
X113300001Y-153401080D01*
X113300001Y-153401080D02*
X113038096Y-153401080D01*
X113038096Y-153401080D02*
X112880953Y-153453461D01*
M02*
