%TF.GenerationSoftware,KiCad,Pcbnew,10.0.5*%
%TF.CreationDate,2026-09-26T15:00:44-04:00*%
%TF.ProjectId,SWAFarmNodeV1,53574146-6172-46d4-9e6f-646556312e6b,POC-R1*%
%TF.SameCoordinates,Original*%
%TF.FileFunction,Copper,L1,Top*%
%TF.FilePolarity,Positive*%
%FSLAX46Y46*%
G04 Gerber Fmt 4.6, Leading zero omitted, Abs format (unit mm)*
G04 Created by KiCad (PCBNEW 10.0.5) date 2026-09-26 15:00:44*
%MOMM*%
%LPD*%
G01*
G04 APERTURE LIST*
G04 Aperture macros list*
%AMRoundRect*
0 Rectangle with rounded corners*
0 $1 Rounding radius*
0 $2 $3 $4 $5 $6 $7 $8 $9 X,Y pos of 4 corners*
0 Add a 4 corners polygon primitive as box body*
4,1,4,$2,$3,$4,$5,$6,$7,$8,$9,$2,$3,0*
0 Add four circle primitives for the rounded corners*
1,1,$1+$1,$2,$3*
1,1,$1+$1,$4,$5*
1,1,$1+$1,$6,$7*
1,1,$1+$1,$8,$9*
0 Add four rect primitives between the rounded corners*
20,1,$1+$1,$2,$3,$4,$5,0*
20,1,$1+$1,$4,$5,$6,$7,0*
20,1,$1+$1,$6,$7,$8,$9,0*
20,1,$1+$1,$8,$9,$2,$3,0*%
G04 Aperture macros list end*
%TA.AperFunction,SMDPad,CuDef*%
%ADD10C,1.000000*%
%TD*%
%TA.AperFunction,SMDPad,CuDef*%
%ADD11RoundRect,0.250000X0.650000X-0.325000X0.650000X0.325000X-0.650000X0.325000X-0.650000X-0.325000X0*%
%TD*%
%TA.AperFunction,SMDPad,CuDef*%
%ADD12RoundRect,0.250000X-0.262500X-0.450000X0.262500X-0.450000X0.262500X0.450000X-0.262500X0.450000X0*%
%TD*%
%TA.AperFunction,SMDPad,CuDef*%
%ADD13C,1.500000*%
%TD*%
%TA.AperFunction,SMDPad,CuDef*%
%ADD14C,2.000000*%
%TD*%
%TA.AperFunction,SMDPad,CuDef*%
%ADD15RoundRect,0.250000X0.450000X-0.262500X0.450000X0.262500X-0.450000X0.262500X-0.450000X-0.262500X0*%
%TD*%
%TA.AperFunction,SMDPad,CuDef*%
%ADD16R,1.960000X3.150000*%
%TD*%
%TA.AperFunction,SMDPad,CuDef*%
%ADD17RoundRect,0.150000X-0.587500X-0.150000X0.587500X-0.150000X0.587500X0.150000X-0.587500X0.150000X0*%
%TD*%
%TA.AperFunction,ComponentPad*%
%ADD18RoundRect,0.249999X-0.790001X-1.550001X0.790001X-1.550001X0.790001X1.550001X-0.790001X1.550001X0*%
%TD*%
%TA.AperFunction,ComponentPad*%
%ADD19O,2.080000X3.600000*%
%TD*%
%TA.AperFunction,SMDPad,CuDef*%
%ADD20RoundRect,0.225000X0.250000X-0.225000X0.250000X0.225000X-0.250000X0.225000X-0.250000X-0.225000X0*%
%TD*%
%TA.AperFunction,ComponentPad*%
%ADD21R,1.500000X3.000000*%
%TD*%
%TA.AperFunction,ComponentPad*%
%ADD22O,1.500000X3.000000*%
%TD*%
%TA.AperFunction,SMDPad,CuDef*%
%ADD23RoundRect,0.250000X0.900000X-1.000000X0.900000X1.000000X-0.900000X1.000000X-0.900000X-1.000000X0*%
%TD*%
%TA.AperFunction,ComponentPad*%
%ADD24R,2.300000X2.300000*%
%TD*%
%TA.AperFunction,ComponentPad*%
%ADD25C,2.300000*%
%TD*%
%TA.AperFunction,ComponentPad*%
%ADD26R,1.700000X1.700000*%
%TD*%
%TA.AperFunction,ComponentPad*%
%ADD27C,1.700000*%
%TD*%
%TA.AperFunction,SMDPad,CuDef*%
%ADD28RoundRect,0.150000X-0.150000X0.875000X-0.150000X-0.875000X0.150000X-0.875000X0.150000X0.875000X0*%
%TD*%
%TA.AperFunction,SMDPad,CuDef*%
%ADD29RoundRect,0.225000X-0.225000X-0.250000X0.225000X-0.250000X0.225000X0.250000X-0.225000X0.250000X0*%
%TD*%
%TA.AperFunction,SMDPad,CuDef*%
%ADD30RoundRect,0.200000X0.275000X-0.200000X0.275000X0.200000X-0.275000X0.200000X-0.275000X-0.200000X0*%
%TD*%
%TA.AperFunction,SMDPad,CuDef*%
%ADD31RoundRect,0.225000X0.225000X0.250000X-0.225000X0.250000X-0.225000X-0.250000X0.225000X-0.250000X0*%
%TD*%
%TA.AperFunction,SMDPad,CuDef*%
%ADD32RoundRect,0.243750X-0.243750X-0.456250X0.243750X-0.456250X0.243750X0.456250X-0.243750X0.456250X0*%
%TD*%
%TA.AperFunction,SMDPad,CuDef*%
%ADD33RoundRect,0.250000X0.475000X-0.250000X0.475000X0.250000X-0.475000X0.250000X-0.475000X-0.250000X0*%
%TD*%
%TA.AperFunction,SMDPad,CuDef*%
%ADD34RoundRect,0.250000X-0.325000X-0.650000X0.325000X-0.650000X0.325000X0.650000X-0.325000X0.650000X0*%
%TD*%
%TA.AperFunction,ComponentPad*%
%ADD35RoundRect,0.249999X-1.550001X0.790001X-1.550001X-0.790001X1.550001X-0.790001X1.550001X0.790001X0*%
%TD*%
%TA.AperFunction,ComponentPad*%
%ADD36O,3.600000X2.080000*%
%TD*%
%TA.AperFunction,SMDPad,CuDef*%
%ADD37RoundRect,0.250000X-0.325000X-1.100000X0.325000X-1.100000X0.325000X1.100000X-0.325000X1.100000X0*%
%TD*%
%TA.AperFunction,SMDPad,CuDef*%
%ADD38RoundRect,0.300000X0.000010X0.325000X-0.000010X0.325000X-0.000010X-0.325000X0.000010X-0.325000X0*%
%TD*%
%TA.AperFunction,SMDPad,CuDef*%
%ADD39RoundRect,0.150000X0.150000X0.425000X-0.150000X0.425000X-0.150000X-0.425000X0.150000X-0.425000X0*%
%TD*%
%TA.AperFunction,SMDPad,CuDef*%
%ADD40RoundRect,0.075000X0.075000X0.500000X-0.075000X0.500000X-0.075000X-0.500000X0.075000X-0.500000X0*%
%TD*%
%TA.AperFunction,ComponentPad*%
%ADD41O,1.000000X2.100000*%
%TD*%
%TA.AperFunction,ComponentPad*%
%ADD42O,1.000000X1.800000*%
%TD*%
%TA.AperFunction,SMDPad,CuDef*%
%ADD43RoundRect,0.150000X0.150000X-0.587500X0.150000X0.587500X-0.150000X0.587500X-0.150000X-0.587500X0*%
%TD*%
%TA.AperFunction,ComponentPad*%
%ADD44C,2.050000*%
%TD*%
%TA.AperFunction,ComponentPad*%
%ADD45C,2.250000*%
%TD*%
%TA.AperFunction,ComponentPad*%
%ADD46RoundRect,0.250000X-1.050000X1.050000X-1.050000X-1.050000X1.050000X-1.050000X1.050000X1.050000X0*%
%TD*%
%TA.AperFunction,ComponentPad*%
%ADD47C,2.600000*%
%TD*%
%TA.AperFunction,ComponentPad*%
%ADD48RoundRect,0.250000X-0.550000X-0.550000X0.550000X-0.550000X0.550000X0.550000X-0.550000X0.550000X0*%
%TD*%
%TA.AperFunction,ComponentPad*%
%ADD49C,1.600000*%
%TD*%
%TA.AperFunction,SMDPad,CuDef*%
%ADD50RoundRect,0.120000X-0.180000X0.430000X-0.180000X-0.430000X0.180000X-0.430000X0.180000X0.430000X0*%
%TD*%
%TA.AperFunction,SMDPad,CuDef*%
%ADD51RoundRect,0.100000X-0.687500X-0.100000X0.687500X-0.100000X0.687500X0.100000X-0.687500X0.100000X0*%
%TD*%
%TA.AperFunction,HeatsinkPad*%
%ADD52C,0.700000*%
%TD*%
%TA.AperFunction,HeatsinkPad*%
%ADD53R,3.400000X5.000000*%
%TD*%
%TA.AperFunction,SMDPad,CuDef*%
%ADD54RoundRect,0.150000X-0.825000X-0.150000X0.825000X-0.150000X0.825000X0.150000X-0.825000X0.150000X0*%
%TD*%
%TA.AperFunction,ComponentPad*%
%ADD55R,1.700000X2.500000*%
%TD*%
%TA.AperFunction,ComponentPad*%
%ADD56O,1.700000X2.500000*%
%TD*%
%TA.AperFunction,SMDPad,CuDef*%
%ADD57RoundRect,0.200000X-0.200000X-0.275000X0.200000X-0.275000X0.200000X0.275000X-0.200000X0.275000X0*%
%TD*%
%TA.AperFunction,SMDPad,CuDef*%
%ADD58R,0.900000X1.700000*%
%TD*%
%TA.AperFunction,SMDPad,CuDef*%
%ADD59R,1.500000X0.900000*%
%TD*%
%TA.AperFunction,SMDPad,CuDef*%
%ADD60R,0.900000X1.500000*%
%TD*%
%TA.AperFunction,HeatsinkPad*%
%ADD61R,3.900000X3.900000*%
%TD*%
%TA.AperFunction,SMDPad,CuDef*%
%ADD62RoundRect,0.150000X-0.875000X-0.150000X0.875000X-0.150000X0.875000X0.150000X-0.875000X0.150000X0*%
%TD*%
%TA.AperFunction,SMDPad,CuDef*%
%ADD63RoundRect,0.250000X0.325000X0.650000X-0.325000X0.650000X-0.325000X-0.650000X0.325000X-0.650000X0*%
%TD*%
%TA.AperFunction,SMDPad,CuDef*%
%ADD64RoundRect,0.175000X0.725000X0.175000X-0.725000X0.175000X-0.725000X-0.175000X0.725000X-0.175000X0*%
%TD*%
%TA.AperFunction,SMDPad,CuDef*%
%ADD65RoundRect,0.175000X-0.175000X0.725000X-0.175000X-0.725000X0.175000X-0.725000X0.175000X0.725000X0*%
%TD*%
%TA.AperFunction,SMDPad,CuDef*%
%ADD66RoundRect,0.250000X-0.250000X-0.475000X0.250000X-0.475000X0.250000X0.475000X-0.250000X0.475000X0*%
%TD*%
%TA.AperFunction,ViaPad*%
%ADD67C,0.800000*%
%TD*%
%TA.AperFunction,ViaPad*%
%ADD68C,0.650000*%
%TD*%
%TA.AperFunction,Conductor*%
%ADD69C,0.800000*%
%TD*%
%TA.AperFunction,Conductor*%
%ADD70C,0.250000*%
%TD*%
%TA.AperFunction,Conductor*%
%ADD71C,0.187400*%
%TD*%
%TA.AperFunction,Conductor*%
%ADD72C,0.400600*%
%TD*%
%TA.AperFunction,Conductor*%
%ADD73C,0.600000*%
%TD*%
%TA.AperFunction,Conductor*%
%ADD74C,0.601000*%
%TD*%
%TA.AperFunction,Conductor*%
%ADD75C,0.701200*%
%TD*%
%TA.AperFunction,Conductor*%
%ADD76C,1.000000*%
%TD*%
%TA.AperFunction,Conductor*%
%ADD77C,0.500000*%
%TD*%
%TA.AperFunction,Conductor*%
%ADD78C,0.130000*%
%TD*%
%TA.AperFunction,Conductor*%
%ADD79C,0.150000*%
%TD*%
G04 APERTURE END LIST*
D10*
%TO.P,FID2,*%
%TO.N,*%
X190000000Y-65000000D03*
%TD*%
D11*
%TO.P,C_OUT2,1*%
%TO.N,+5V*%
X149000000Y-81475000D03*
%TO.P,C_OUT2,2*%
%TO.N,GND*%
X149000000Y-78525000D03*
%TD*%
D12*
%TO.P,R_SER2,1*%
%TO.N,/Sensors & LORA/net_CH2_SIG*%
X43087500Y-70000000D03*
%TO.P,R_SER2,2*%
%TO.N,SENSOR_CH2*%
X44912500Y-70000000D03*
%TD*%
D13*
%TO.P,TP_LORABOOT1,1,1_1*%
%TO.N,/Sensors & LORA/net_LORA_BOOT0*%
X104000000Y-55000000D03*
%TD*%
D14*
%TO.P,TP_IMON1,1*%
%TO.N,/Power/EF_IMON*%
X162000000Y-96000000D03*
%TD*%
D15*
%TO.P,R_CC2_1,1*%
%TO.N,/Power/net_CC2*%
X38000000Y-11912500D03*
%TO.P,R_CC2_1,2*%
%TO.N,GND*%
X38000000Y-10087500D03*
%TD*%
D16*
%TO.P,F2,1*%
%TO.N,12V_SW*%
X164545000Y-104000000D03*
%TO.P,F2,2*%
%TO.N,+12V*%
X169455000Y-104000000D03*
%TD*%
D17*
%TO.P,D_CLHI2,1,G_1*%
%TO.N,GND*%
X56062500Y-77050000D03*
%TO.P,D_CLHI2,2,S_2*%
%TO.N,+3V3*%
X56062500Y-78950000D03*
%TO.P,D_CLHI2,3,D_3*%
%TO.N,SENSOR_CH2*%
X57937500Y-78000000D03*
%TD*%
D18*
%TO.P,J_RS485_LOC1,1*%
%TO.N,ISO_GND*%
X140000000Y-12000000D03*
D19*
%TO.P,J_RS485_LOC1,2*%
%TO.N,/RS-485/net_LOC_A_RAW*%
X145080000Y-12000000D03*
%TO.P,J_RS485_LOC1,3*%
%TO.N,/RS-485/net_LOC_B_RAW*%
X150160000Y-12000000D03*
%TO.P,J_RS485_LOC1,4*%
%TO.N,unconnected-(J_RS485_LOC1-Pin_4-Pad4)*%
X155240000Y-12000000D03*
%TO.P,J_RS485_LOC1,5*%
%TO.N,ISO_GND*%
X160320000Y-12000000D03*
%TD*%
D20*
%TO.P,C_FILT6,1*%
%TO.N,SENSOR_CH6*%
X75000000Y-95775000D03*
%TO.P,C_FILT6,2*%
%TO.N,GND*%
X75000000Y-94225000D03*
%TD*%
D18*
%TO.P,J_RELAY8,1*%
%TO.N,/Motor Valve/RLY8_COM*%
X177000000Y-145000000D03*
D19*
%TO.P,J_RELAY8,2*%
%TO.N,/Motor Valve/RLY8_NO*%
X182080000Y-145000000D03*
%TO.P,J_RELAY8,3*%
%TO.N,/Motor Valve/RLY8_NC*%
X187160000Y-145000000D03*
%TD*%
D18*
%TO.P,J_RS485_OUT1,1*%
%TO.N,ISO_GND*%
X170000000Y-16000000D03*
D19*
%TO.P,J_RS485_OUT1,2*%
%TO.N,/RS-485/net_MAIN_A*%
X175080000Y-16000000D03*
%TO.P,J_RS485_OUT1,3*%
%TO.N,/RS-485/net_MAIN_B*%
X180160000Y-16000000D03*
%TO.P,J_RS485_OUT1,4*%
%TO.N,unconnected-(J_RS485_OUT1-Pin_4-Pad4)*%
X185240000Y-16000000D03*
%TO.P,J_RS485_OUT1,5*%
%TO.N,ISO_GND*%
X190320000Y-16000000D03*
%TD*%
D21*
%TO.P,U_ISODCDC1,1*%
%TO.N,GND*%
X101000000Y-28000000D03*
D22*
%TO.P,U_ISODCDC1,2*%
%TO.N,+5V*%
X103540000Y-28000000D03*
%TO.P,U_ISODCDC1,4*%
%TO.N,ISO_5V*%
X108620000Y-28000000D03*
%TO.P,U_ISODCDC1,6*%
%TO.N,ISO_GND*%
X113700000Y-28000000D03*
%TD*%
D15*
%TO.P,R_BURDEN6,1*%
%TO.N,SENSOR_CH6*%
X70000000Y-101912500D03*
%TO.P,R_BURDEN6,2*%
%TO.N,Net-(JP_IGND6-Pin_1)*%
X70000000Y-100087500D03*
%TD*%
D23*
%TO.P,D1,1,A1_1*%
%TO.N,VIN_12V*%
X171000000Y-80150000D03*
%TO.P,D1,2,A2_2*%
%TO.N,GND*%
X171000000Y-75850000D03*
%TD*%
D14*
%TO.P,TP_12V_SW1,1*%
%TO.N,12V_SW*%
X178000000Y-92000000D03*
%TD*%
D24*
%TO.P,K1,1*%
%TO.N,/Motor Valve/COIL_LOW1*%
X10000000Y-118000000D03*
D25*
%TO.P,K1,2*%
%TO.N,/Motor Valve/RLY1_COM*%
X10000000Y-128160000D03*
%TO.P,K1,3*%
%TO.N,/Motor Valve/RLY1_NO*%
X10000000Y-135780000D03*
%TO.P,K1,4*%
%TO.N,/Motor Valve/RLY1_NC*%
X17620000Y-133240000D03*
%TO.P,K1,5*%
%TO.N,+12V*%
X17620000Y-118000000D03*
%TD*%
D26*
%TO.P,J_PROG1,1,Pin_1_1*%
%TO.N,/MCU/net_DEBUG_TX*%
X83000000Y-20000000D03*
D27*
%TO.P,J_PROG1,2,Pin_2_2*%
%TO.N,/MCU/net_DEBUG_RX*%
X83000000Y-22540000D03*
%TO.P,J_PROG1,3,Pin_3_3*%
%TO.N,GND*%
X83000000Y-25080000D03*
%TD*%
D28*
%TO.P,U_VALVEEXP1,1,GPB0_1*%
%TO.N,unconnected-(U_VALVEEXP1-GPB0-Pad1)*%
X111255000Y-77350000D03*
%TO.P,U_VALVEEXP1,2,GPB1_2*%
%TO.N,unconnected-(U_VALVEEXP1-GPB1-Pad2)*%
X109985000Y-77350000D03*
%TO.P,U_VALVEEXP1,3,GPB2_3*%
%TO.N,unconnected-(U_VALVEEXP1-GPB2-Pad3)*%
X108715000Y-77350000D03*
%TO.P,U_VALVEEXP1,4,GPB3_4*%
%TO.N,unconnected-(U_VALVEEXP1-GPB3-Pad4)*%
X107445000Y-77350000D03*
%TO.P,U_VALVEEXP1,5,GPB4_5*%
%TO.N,unconnected-(U_VALVEEXP1-GPB4-Pad5)*%
X106175000Y-77350000D03*
%TO.P,U_VALVEEXP1,6,GPB5_6*%
%TO.N,unconnected-(U_VALVEEXP1-GPB5-Pad6)*%
X104905000Y-77350000D03*
%TO.P,U_VALVEEXP1,7,GPB6_7*%
%TO.N,unconnected-(U_VALVEEXP1-GPB6-Pad7)*%
X103635000Y-77350000D03*
%TO.P,U_VALVEEXP1,8,GPB7_8*%
%TO.N,unconnected-(U_VALVEEXP1-GPB7-Pad8)*%
X102365000Y-77350000D03*
%TO.P,U_VALVEEXP1,9,V_{DD}_9*%
%TO.N,+3V3*%
X101095000Y-77350000D03*
%TO.P,U_VALVEEXP1,10,V_{SS}_10*%
%TO.N,GND*%
X99825000Y-77350000D03*
%TO.P,U_VALVEEXP1,11,~{CS}_11*%
%TO.N,VALVE_SPI_CS*%
X98555000Y-77350000D03*
%TO.P,U_VALVEEXP1,12,SCK_12*%
%TO.N,VALVE_SPI_SCLK*%
X97285000Y-77350000D03*
%TO.P,U_VALVEEXP1,13,SI_13*%
%TO.N,VALVE_SPI_MOSI*%
X96015000Y-77350000D03*
%TO.P,U_VALVEEXP1,14,SO_14*%
%TO.N,VALVE_SPI_MISO*%
X94745000Y-77350000D03*
%TO.P,U_VALVEEXP1,15,A0_15*%
%TO.N,GND*%
X94745000Y-86650000D03*
%TO.P,U_VALVEEXP1,16,A1_16*%
X96015000Y-86650000D03*
%TO.P,U_VALVEEXP1,17,A2_17*%
X97285000Y-86650000D03*
%TO.P,U_VALVEEXP1,18,~{RESET}_18*%
%TO.N,/Motor Valve/EXP_RESET_N*%
X98555000Y-86650000D03*
%TO.P,U_VALVEEXP1,19,INTB_19*%
%TO.N,unconnected-(U_VALVEEXP1-INTB-Pad19)*%
X99825000Y-86650000D03*
%TO.P,U_VALVEEXP1,20,INTA_20*%
%TO.N,unconnected-(U_VALVEEXP1-INTA-Pad20)*%
X101095000Y-86650000D03*
%TO.P,U_VALVEEXP1,21,GPA0_21*%
%TO.N,/Motor Valve/RELAY_CMD1*%
X102365000Y-86650000D03*
%TO.P,U_VALVEEXP1,22,GPA1_22*%
%TO.N,/Motor Valve/RELAY_CMD2*%
X103635000Y-86650000D03*
%TO.P,U_VALVEEXP1,23,GPA2_23*%
%TO.N,/Motor Valve/RELAY_CMD3*%
X104905000Y-86650000D03*
%TO.P,U_VALVEEXP1,24,GPA3_24*%
%TO.N,/Motor Valve/RELAY_CMD4*%
X106175000Y-86650000D03*
%TO.P,U_VALVEEXP1,25,GPA4_25*%
%TO.N,/Motor Valve/RELAY_CMD5*%
X107445000Y-86650000D03*
%TO.P,U_VALVEEXP1,26,GPA5_26*%
%TO.N,/Motor Valve/RELAY_CMD6*%
X108715000Y-86650000D03*
%TO.P,U_VALVEEXP1,27,GPA6_27*%
%TO.N,/Motor Valve/RELAY_CMD7*%
X109985000Y-86650000D03*
%TO.P,U_VALVEEXP1,28,GPA7_28*%
%TO.N,/Motor Valve/RELAY_CMD8*%
X111255000Y-86650000D03*
%TD*%
D29*
%TO.P,C_ISODEC1,1*%
%TO.N,+3V3*%
X102225000Y-40000000D03*
%TO.P,C_ISODEC1,2*%
%TO.N,GND*%
X103775000Y-40000000D03*
%TD*%
D16*
%TO.P,F1,1*%
%TO.N,/Power/DC_IN_RAW_P*%
X178545000Y-78000000D03*
%TO.P,F1,2*%
%TO.N,VIN_12V*%
X183455000Y-78000000D03*
%TD*%
D30*
%TO.P,R_RELAY_PD5,1*%
%TO.N,/Motor Valve/RELAY_CMD5*%
X103000000Y-95825000D03*
%TO.P,R_RELAY_PD5,2*%
%TO.N,GND*%
X103000000Y-94175000D03*
%TD*%
D31*
%TO.P,C_ISOOUT1,1*%
%TO.N,ISO_5V*%
X120275000Y-40000000D03*
%TO.P,C_ISOOUT1,2*%
%TO.N,ISO_GND*%
X118725000Y-40000000D03*
%TD*%
D15*
%TO.P,R_VBOT6,1*%
%TO.N,SENSOR_CH6*%
X71000000Y-95912500D03*
%TO.P,R_VBOT6,2*%
%TO.N,GND*%
X71000000Y-94087500D03*
%TD*%
D30*
%TO.P,R_ISODE1,1*%
%TO.N,/RS-485/net_ISO_DIR*%
X122000000Y-44825000D03*
%TO.P,R_ISODE1,2*%
%TO.N,ISO_GND*%
X122000000Y-43175000D03*
%TD*%
D18*
%TO.P,J_RELAY5,1*%
%TO.N,/Motor Valve/RLY5_COM*%
X105000000Y-145000000D03*
D19*
%TO.P,J_RELAY5,2*%
%TO.N,/Motor Valve/RLY5_NO*%
X110080000Y-145000000D03*
%TO.P,J_RELAY5,3*%
%TO.N,/Motor Valve/RLY5_NC*%
X115160000Y-145000000D03*
%TD*%
D15*
%TO.P,R_CC1_1,1*%
%TO.N,/Power/net_CC1*%
X29000000Y-11912500D03*
%TO.P,R_CC1_1,2*%
%TO.N,GND*%
X29000000Y-10087500D03*
%TD*%
D32*
%TO.P,D_PWR1,1,K_1*%
%TO.N,GND*%
X90062500Y-14000000D03*
%TO.P,D_PWR1,2,A_2*%
%TO.N,Net-(D_PWR1-A)*%
X91937500Y-14000000D03*
%TD*%
D17*
%TO.P,D_CLHI5,1,G_1*%
%TO.N,GND*%
X56062500Y-102050000D03*
%TO.P,D_CLHI5,2,S_2*%
%TO.N,+3V3*%
X56062500Y-103950000D03*
%TO.P,D_CLHI5,3,D_3*%
%TO.N,SENSOR_CH5*%
X57937500Y-103000000D03*
%TD*%
D13*
%TO.P,TP_RS485DI1,1,1_1*%
%TO.N,/RS-485/net_ISO_DI*%
X125000000Y-54000000D03*
%TD*%
D17*
%TO.P,D_CLHI3,1,G_1*%
%TO.N,GND*%
X75062500Y-77050000D03*
%TO.P,D_CLHI3,2,S_2*%
%TO.N,+3V3*%
X75062500Y-78950000D03*
%TO.P,D_CLHI3,3,D_3*%
%TO.N,SENSOR_CH3*%
X76937500Y-78000000D03*
%TD*%
D15*
%TO.P,R_VBOT2,1*%
%TO.N,SENSOR_CH2*%
X52000000Y-70912500D03*
%TO.P,R_VBOT2,2*%
%TO.N,GND*%
X52000000Y-69087500D03*
%TD*%
D33*
%TO.P,C_DVDT1,1*%
%TO.N,/Power/EF_DVDT*%
X168000000Y-94950000D03*
%TO.P,C_DVDT1,2*%
%TO.N,/Power/EF_RTN*%
X168000000Y-93050000D03*
%TD*%
D34*
%TO.P,C_OUT1,1*%
%TO.N,12V_SW*%
X160525000Y-74000000D03*
%TO.P,C_OUT1,2*%
%TO.N,GND*%
X163475000Y-74000000D03*
%TD*%
D12*
%TO.P,R_LORABOOT1,1*%
%TO.N,/Sensors & LORA/net_LORA_BOOT0*%
X99087500Y-51000000D03*
%TO.P,R_LORABOOT1,2*%
%TO.N,GND*%
X100912500Y-51000000D03*
%TD*%
%TO.P,R_PWR1,1*%
%TO.N,/MCU/LED_PWR*%
X95087500Y-14000000D03*
%TO.P,R_PWR1,2*%
%TO.N,Net-(D_PWR1-A)*%
X96912500Y-14000000D03*
%TD*%
%TO.P,R_SER5,1*%
%TO.N,/Sensors & LORA/net_CH5_SIG*%
X43087500Y-95000000D03*
%TO.P,R_SER5,2*%
%TO.N,SENSOR_CH5*%
X44912500Y-95000000D03*
%TD*%
D13*
%TO.P,TP_USBVBUS1,1,1_1*%
%TO.N,/Power/net_USB_VBUS*%
X23000000Y-11000000D03*
%TD*%
D35*
%TO.P,J_OUT1,1*%
%TO.N,12V_SW*%
X190000000Y-98000000D03*
D36*
%TO.P,J_OUT1,2*%
%TO.N,GND*%
X190000000Y-103080000D03*
%TD*%
D14*
%TO.P,TP_GND1,1*%
%TO.N,GND*%
X182000000Y-105000000D03*
%TD*%
D10*
%TO.P,FID5,*%
%TO.N,*%
X80000000Y-33000000D03*
%TD*%
D12*
%TO.P,R_SHDN1,1*%
%TO.N,VIN_12V*%
X153087500Y-92000000D03*
%TO.P,R_SHDN1,2*%
%TO.N,/Power/EF_SHDN*%
X154912500Y-92000000D03*
%TD*%
D32*
%TO.P,D_LINK1,1,K_1*%
%TO.N,GND*%
X91062500Y-5000000D03*
%TO.P,D_LINK1,2,A_2*%
%TO.N,Net-(D_LINK1-A)*%
X92937500Y-5000000D03*
%TD*%
D30*
%TO.P,R_RELAY_PD8,1*%
%TO.N,/Motor Valve/RELAY_CMD8*%
X112000000Y-95825000D03*
%TO.P,R_RELAY_PD8,2*%
%TO.N,GND*%
X112000000Y-94175000D03*
%TD*%
D29*
%TO.P,C_DEC7,1*%
%TO.N,+3V3*%
X80225000Y-70000000D03*
%TO.P,C_DEC7,2*%
%TO.N,GND*%
X81775000Y-70000000D03*
%TD*%
D15*
%TO.P,R_UVLO2,1*%
%TO.N,/Power/EF_UVLO*%
X153000000Y-80912500D03*
%TO.P,R_UVLO2,2*%
%TO.N,/Power/EF_RTN*%
X153000000Y-79087500D03*
%TD*%
D11*
%TO.P,C_IN3,1*%
%TO.N,12V_SW*%
X132000000Y-98475000D03*
%TO.P,C_IN3,2*%
%TO.N,GND*%
X132000000Y-95525000D03*
%TD*%
D12*
%TO.P,R_SER3,1*%
%TO.N,/Sensors & LORA/net_CH3_SIG*%
X62087500Y-70000000D03*
%TO.P,R_SER3,2*%
%TO.N,SENSOR_CH3*%
X63912500Y-70000000D03*
%TD*%
D37*
%TO.P,C_IN1,1*%
%TO.N,VIN_12V*%
X173525000Y-84000000D03*
%TO.P,C_IN1,2*%
%TO.N,GND*%
X176475000Y-84000000D03*
%TD*%
D30*
%TO.P,R_RSDE1,1*%
%TO.N,RS485_DE*%
X103000000Y-45825000D03*
%TO.P,R_RSDE1,2*%
%TO.N,GND*%
X103000000Y-44175000D03*
%TD*%
D32*
%TO.P,D_FLT1,1,K_1*%
%TO.N,GND*%
X98062500Y-5000000D03*
%TO.P,D_FLT1,2,A_2*%
%TO.N,Net-(D_FLT1-A)*%
X99937500Y-5000000D03*
%TD*%
D13*
%TO.P,TP_ISO5V1,1,1_1*%
%TO.N,ISO_5V*%
X145000000Y-30000000D03*
%TD*%
D15*
%TO.P,R_VBOT4,1*%
%TO.N,SENSOR_CH4*%
X33000000Y-95912500D03*
%TO.P,R_VBOT4,2*%
%TO.N,GND*%
X33000000Y-94087500D03*
%TD*%
D26*
%TO.P,JP_IGND3,1,Pin_1_1*%
%TO.N,Net-(JP_IGND3-Pin_1)*%
X69000000Y-83000000D03*
D27*
%TO.P,JP_IGND3,2,Pin_2_2*%
%TO.N,GND*%
X71540000Y-83000000D03*
%TD*%
D15*
%TO.P,R_VBOT3,1*%
%TO.N,SENSOR_CH3*%
X71000000Y-70912500D03*
%TO.P,R_VBOT3,2*%
%TO.N,GND*%
X71000000Y-69087500D03*
%TD*%
D31*
%TO.P,C_DEC1,1*%
%TO.N,+3V3*%
X52775000Y-9000000D03*
%TO.P,C_DEC1,2*%
%TO.N,GND*%
X51225000Y-9000000D03*
%TD*%
D38*
%TO.P,J_USB1,A1*%
%TO.N,GND*%
X37200000Y-6780000D03*
D39*
%TO.P,J_USB1,A4*%
%TO.N,/Power/net_USB_VBUS*%
X36400000Y-6680000D03*
D40*
%TO.P,J_USB1,A5*%
%TO.N,/Power/net_CC1*%
X35250000Y-6680000D03*
%TO.P,J_USB1,A6*%
%TO.N,net_USB_DP*%
X34250000Y-6680000D03*
%TO.P,J_USB1,A7*%
%TO.N,net_USB_DM*%
X33750000Y-6680000D03*
%TO.P,J_USB1,A8*%
%TO.N,unconnected-(J_USB1-SBU1-PadA8)*%
X32750000Y-6680000D03*
D39*
%TO.P,J_USB1,A9*%
%TO.N,/Power/net_USB_VBUS*%
X31600000Y-6680000D03*
D38*
%TO.P,J_USB1,A12*%
%TO.N,GND*%
X30800000Y-6780000D03*
%TO.P,J_USB1,B1*%
X30800000Y-6780000D03*
D39*
%TO.P,J_USB1,B4*%
%TO.N,/Power/net_USB_VBUS*%
X31600000Y-6680000D03*
D40*
%TO.P,J_USB1,B5*%
%TO.N,/Power/net_CC2*%
X32250000Y-6680000D03*
%TO.P,J_USB1,B6*%
%TO.N,net_USB_DP*%
X33250000Y-6680000D03*
%TO.P,J_USB1,B7*%
%TO.N,net_USB_DM*%
X34750000Y-6680000D03*
%TO.P,J_USB1,B8*%
%TO.N,unconnected-(J_USB1-SBU2-PadB8)*%
X35750000Y-6680000D03*
D39*
%TO.P,J_USB1,B9*%
%TO.N,/Power/net_USB_VBUS*%
X36400000Y-6680000D03*
D38*
%TO.P,J_USB1,B12*%
%TO.N,GND*%
X37200000Y-6780000D03*
D41*
%TO.P,J_USB1,SH*%
X38320000Y-6105000D03*
D42*
X38320000Y-1925000D03*
D41*
X29680000Y-6105000D03*
D42*
X29680000Y-1925000D03*
%TD*%
D26*
%TO.P,JP_VBYP3,1,Pin_1_1*%
%TO.N,/Sensors & LORA/net_CH3_SIG*%
X63000000Y-75000000D03*
D27*
%TO.P,JP_VBYP3,2,Pin_2_2*%
%TO.N,SENSOR_CH3*%
X65540000Y-75000000D03*
%TD*%
D12*
%TO.P,R_SER4,1*%
%TO.N,/Sensors & LORA/net_CH4_SIG*%
X24087500Y-95000000D03*
%TO.P,R_SER4,2*%
%TO.N,SENSOR_CH4*%
X25912500Y-95000000D03*
%TD*%
D14*
%TO.P,TP_3V3,1*%
%TO.N,+3V3*%
X145000000Y-109000000D03*
%TD*%
D30*
%TO.P,R_RELAY_PD6,1*%
%TO.N,/Motor Valve/RELAY_CMD6*%
X106000000Y-95825000D03*
%TO.P,R_RELAY_PD6,2*%
%TO.N,GND*%
X106000000Y-94175000D03*
%TD*%
D28*
%TO.P,U_RELAY1,1*%
%TO.N,/Motor Valve/RELAY_CMD1*%
X108080000Y-98350000D03*
%TO.P,U_RELAY1,2*%
%TO.N,/Motor Valve/RELAY_CMD2*%
X106810000Y-98350000D03*
%TO.P,U_RELAY1,3*%
%TO.N,/Motor Valve/RELAY_CMD3*%
X105540000Y-98350000D03*
%TO.P,U_RELAY1,4*%
%TO.N,/Motor Valve/RELAY_CMD4*%
X104270000Y-98350000D03*
%TO.P,U_RELAY1,5*%
%TO.N,/Motor Valve/RELAY_CMD5*%
X103000000Y-98350000D03*
%TO.P,U_RELAY1,6*%
%TO.N,/Motor Valve/RELAY_CMD6*%
X101730000Y-98350000D03*
%TO.P,U_RELAY1,7*%
%TO.N,/Motor Valve/RELAY_CMD7*%
X100460000Y-98350000D03*
%TO.P,U_RELAY1,8*%
%TO.N,/Motor Valve/RELAY_CMD8*%
X99190000Y-98350000D03*
%TO.P,U_RELAY1,9*%
%TO.N,GND*%
X97920000Y-98350000D03*
%TO.P,U_RELAY1,10*%
%TO.N,+12V*%
X97920000Y-107650000D03*
%TO.P,U_RELAY1,11*%
%TO.N,/Motor Valve/COIL_LOW8*%
X99190000Y-107650000D03*
%TO.P,U_RELAY1,12*%
%TO.N,/Motor Valve/COIL_LOW7*%
X100460000Y-107650000D03*
%TO.P,U_RELAY1,13*%
%TO.N,/Motor Valve/COIL_LOW6*%
X101730000Y-107650000D03*
%TO.P,U_RELAY1,14*%
%TO.N,/Motor Valve/COIL_LOW5*%
X103000000Y-107650000D03*
%TO.P,U_RELAY1,15*%
%TO.N,/Motor Valve/COIL_LOW4*%
X104270000Y-107650000D03*
%TO.P,U_RELAY1,16*%
%TO.N,/Motor Valve/COIL_LOW3*%
X105540000Y-107650000D03*
%TO.P,U_RELAY1,17*%
%TO.N,/Motor Valve/COIL_LOW2*%
X106810000Y-107650000D03*
%TO.P,U_RELAY1,18*%
%TO.N,/Motor Valve/COIL_LOW1*%
X108080000Y-107650000D03*
%TD*%
D29*
%TO.P,C_DEC3,1*%
%TO.N,+3V3*%
X77225000Y-27000000D03*
%TO.P,C_DEC3,2*%
%TO.N,GND*%
X78775000Y-27000000D03*
%TD*%
D12*
%TO.P,R_SER6,1*%
%TO.N,/Sensors & LORA/net_CH6_SIG*%
X62087500Y-95000000D03*
%TO.P,R_SER6,2*%
%TO.N,SENSOR_CH6*%
X63912500Y-95000000D03*
%TD*%
D43*
%TO.P,D_RS485PROT2,1,A1_1*%
%TO.N,/RS-485/net_LOC_A_RAW*%
X148050000Y-21937500D03*
%TO.P,D_RS485PROT2,2,A2_2*%
%TO.N,/RS-485/net_LOC_B_RAW*%
X149950000Y-21937500D03*
%TO.P,D_RS485PROT2,3,common_3*%
%TO.N,ISO_GND*%
X149000000Y-20062500D03*
%TD*%
D15*
%TO.P,R_BURDEN1,1*%
%TO.N,SENSOR_CH1*%
X32000000Y-76912500D03*
%TO.P,R_BURDEN1,2*%
%TO.N,Net-(JP_IGND1-Pin_1)*%
X32000000Y-75087500D03*
%TD*%
D13*
%TO.P,TP_LORARST1,1,1_1*%
%TO.N,/Sensors & LORA/net_LORA_RST*%
X104000000Y-59000000D03*
%TD*%
D44*
%TO.P,J_LORASMA1,1,In_1*%
%TO.N,/Sensors & LORA/LORA_RF*%
X72000000Y-57000000D03*
D45*
%TO.P,J_LORASMA1,2,Ext_2*%
%TO.N,GND*%
X69460000Y-54460000D03*
X69460000Y-59540000D03*
X74540000Y-54460000D03*
X74540000Y-59540000D03*
%TD*%
D15*
%TO.P,R_OVP1,1*%
%TO.N,VIN_12V*%
X153000000Y-85912500D03*
%TO.P,R_OVP1,2*%
%TO.N,/Power/EF_OVP*%
X153000000Y-84087500D03*
%TD*%
D31*
%TO.P,C_DEC10,1*%
%TO.N,+3V3*%
X99775000Y-39000000D03*
%TO.P,C_DEC10,2*%
%TO.N,GND*%
X98225000Y-39000000D03*
%TD*%
D29*
%TO.P,C_DEC5,1*%
%TO.N,+3V3*%
X39225000Y-44000000D03*
%TO.P,C_DEC5,2*%
%TO.N,GND*%
X40775000Y-44000000D03*
%TD*%
D20*
%TO.P,C_FILT2,1*%
%TO.N,SENSOR_CH2*%
X56000000Y-70775000D03*
%TO.P,C_FILT2,2*%
%TO.N,GND*%
X56000000Y-69225000D03*
%TD*%
D29*
%TO.P,C_DEC8,1*%
%TO.N,+3V3*%
X85225000Y-84000000D03*
%TO.P,C_DEC8,2*%
%TO.N,GND*%
X86775000Y-84000000D03*
%TD*%
D18*
%TO.P,J_RS485_IN1,1*%
%TO.N,ISO_GND*%
X110000000Y-12000000D03*
D19*
%TO.P,J_RS485_IN1,2*%
%TO.N,/RS-485/net_IN_A_RAW*%
X115080000Y-12000000D03*
%TO.P,J_RS485_IN1,3*%
%TO.N,/RS-485/net_IN_B_RAW*%
X120160000Y-12000000D03*
%TO.P,J_RS485_IN1,4*%
%TO.N,unconnected-(J_RS485_IN1-Pin_4-Pad4)*%
X125240000Y-12000000D03*
%TO.P,J_RS485_IN1,5*%
%TO.N,ISO_GND*%
X130320000Y-12000000D03*
%TD*%
D26*
%TO.P,JP_VBYP6,1,Pin_1_1*%
%TO.N,/Sensors & LORA/net_CH6_SIG*%
X63000000Y-100000000D03*
D27*
%TO.P,JP_VBYP6,2,Pin_2_2*%
%TO.N,SENSOR_CH6*%
X65540000Y-100000000D03*
%TD*%
D31*
%TO.P,C_RSDEC1,1*%
%TO.N,ISO_5V*%
X137775000Y-40000000D03*
%TO.P,C_RSDEC1,2*%
%TO.N,ISO_GND*%
X136225000Y-40000000D03*
%TD*%
D15*
%TO.P,R_BURDEN2,1*%
%TO.N,SENSOR_CH2*%
X51000000Y-76912500D03*
%TO.P,R_BURDEN2,2*%
%TO.N,Net-(JP_IGND2-Pin_1)*%
X51000000Y-75087500D03*
%TD*%
D46*
%TO.P,J_SENSOR_RET1,1,Pin_1_1*%
%TO.N,GND*%
X7000000Y-30000000D03*
D47*
%TO.P,J_SENSOR_RET1,2,Pin_2_2*%
X7000000Y-35080000D03*
%TO.P,J_SENSOR_RET1,3,Pin_3_3*%
X7000000Y-40160000D03*
%TO.P,J_SENSOR_RET1,4,Pin_4_4*%
X7000000Y-45240000D03*
%TO.P,J_SENSOR_RET1,5,Pin_5_5*%
X7000000Y-50320000D03*
%TO.P,J_SENSOR_RET1,6,Pin_6_6*%
X7000000Y-55400000D03*
%TD*%
D29*
%TO.P,C_DEC6,1*%
%TO.N,+3V3*%
X58225000Y-45000000D03*
%TO.P,C_DEC6,2*%
%TO.N,GND*%
X59775000Y-45000000D03*
%TD*%
D18*
%TO.P,J_RELAY3,1*%
%TO.N,/Motor Valve/RLY3_COM*%
X57000000Y-145000000D03*
D19*
%TO.P,J_RELAY3,2*%
%TO.N,/Motor Valve/RLY3_NO*%
X62080000Y-145000000D03*
%TO.P,J_RELAY3,3*%
%TO.N,/Motor Valve/RLY3_NC*%
X67160000Y-145000000D03*
%TD*%
D24*
%TO.P,K4,1*%
%TO.N,/Motor Valve/COIL_LOW4*%
X82000000Y-118000000D03*
D25*
%TO.P,K4,2*%
%TO.N,/Motor Valve/RLY4_COM*%
X82000000Y-128160000D03*
%TO.P,K4,3*%
%TO.N,/Motor Valve/RLY4_NO*%
X82000000Y-135780000D03*
%TO.P,K4,4*%
%TO.N,/Motor Valve/RLY4_NC*%
X89620000Y-133240000D03*
%TO.P,K4,5*%
%TO.N,+12V*%
X89620000Y-118000000D03*
%TD*%
D15*
%TO.P,R_BURDEN3,1*%
%TO.N,SENSOR_CH3*%
X70000000Y-76912500D03*
%TO.P,R_BURDEN3,2*%
%TO.N,Net-(JP_IGND3-Pin_1)*%
X70000000Y-75087500D03*
%TD*%
D20*
%TO.P,C_FILT1,1*%
%TO.N,SENSOR_CH1*%
X37000000Y-70775000D03*
%TO.P,C_FILT1,2*%
%TO.N,GND*%
X37000000Y-69225000D03*
%TD*%
D43*
%TO.P,D_RS485PROT1,1,A1_1*%
%TO.N,/RS-485/net_IN_A_RAW*%
X118050000Y-21937500D03*
%TO.P,D_RS485PROT1,2,A2_2*%
%TO.N,/RS-485/net_IN_B_RAW*%
X119950000Y-21937500D03*
%TO.P,D_RS485PROT1,3,common_3*%
%TO.N,ISO_GND*%
X119000000Y-20062500D03*
%TD*%
D48*
%TO.P,C_RELAYBULK1,1*%
%TO.N,+12V*%
X119000000Y-105000000D03*
D49*
%TO.P,C_RELAYBULK1,2*%
%TO.N,GND*%
X121500000Y-105000000D03*
%TD*%
D14*
%TO.P,TP_FLT1,1*%
%TO.N,/Power/EF_FLT_N*%
X176000000Y-70000000D03*
%TD*%
D17*
%TO.P,D_CLHI1,1,G_1*%
%TO.N,GND*%
X37062500Y-77050000D03*
%TO.P,D_CLHI1,2,S_2*%
%TO.N,+3V3*%
X37062500Y-78950000D03*
%TO.P,D_CLHI1,3,D_3*%
%TO.N,SENSOR_CH1*%
X38937500Y-78000000D03*
%TD*%
D50*
%TO.P,CMC_RS485_2,1*%
%TO.N,/RS-485/net_LOC_A_RAW*%
X154500000Y-20650000D03*
%TO.P,CMC_RS485_2,2*%
%TO.N,/RS-485/net_MAIN_A*%
X154500000Y-23350000D03*
%TO.P,CMC_RS485_2,3*%
%TO.N,/RS-485/net_MAIN_B*%
X153500000Y-23350000D03*
%TO.P,CMC_RS485_2,4*%
%TO.N,/RS-485/net_LOC_B_RAW*%
X153500000Y-20650000D03*
%TD*%
D12*
%TO.P,R_LORARST1,1*%
%TO.N,+3V3*%
X99087500Y-47000000D03*
%TO.P,R_LORARST1,2*%
%TO.N,/Sensors & LORA/net_LORA_RST*%
X100912500Y-47000000D03*
%TD*%
D30*
%TO.P,R_RELAY_PD1,1*%
%TO.N,/Motor Valve/RELAY_CMD1*%
X91000000Y-95825000D03*
%TO.P,R_RELAY_PD1,2*%
%TO.N,GND*%
X91000000Y-94175000D03*
%TD*%
D26*
%TO.P,JP_IGND5,1,Pin_1_1*%
%TO.N,Net-(JP_IGND5-Pin_1)*%
X50000000Y-108000000D03*
D27*
%TO.P,JP_IGND5,2,Pin_2_2*%
%TO.N,GND*%
X52540000Y-108000000D03*
%TD*%
D24*
%TO.P,K2,1*%
%TO.N,/Motor Valve/COIL_LOW2*%
X34000000Y-118000000D03*
D25*
%TO.P,K2,2*%
%TO.N,/Motor Valve/RLY2_COM*%
X34000000Y-128160000D03*
%TO.P,K2,3*%
%TO.N,/Motor Valve/RLY2_NO*%
X34000000Y-135780000D03*
%TO.P,K2,4*%
%TO.N,/Motor Valve/RLY2_NC*%
X41620000Y-133240000D03*
%TO.P,K2,5*%
%TO.N,+12V*%
X41620000Y-118000000D03*
%TD*%
D15*
%TO.P,R_LED2,1*%
%TO.N,/Power/LED_3V3_K*%
X154000000Y-101912500D03*
%TO.P,R_LED2,2*%
%TO.N,GND*%
X154000000Y-100087500D03*
%TD*%
D26*
%TO.P,JP_IGND6,1,Pin_1_1*%
%TO.N,Net-(JP_IGND6-Pin_1)*%
X69000000Y-108000000D03*
D27*
%TO.P,JP_IGND6,2,Pin_2_2*%
%TO.N,GND*%
X71540000Y-108000000D03*
%TD*%
D26*
%TO.P,JP_IGND1,1,Pin_1_1*%
%TO.N,Net-(JP_IGND1-Pin_1)*%
X31000000Y-83000000D03*
D27*
%TO.P,JP_IGND1,2,Pin_2_2*%
%TO.N,GND*%
X33540000Y-83000000D03*
%TD*%
D13*
%TO.P,TP_RS485RO1,1,1_1*%
%TO.N,/RS-485/net_ISO_RO*%
X129000000Y-54000000D03*
%TD*%
D15*
%TO.P,R_VBOT5,1*%
%TO.N,SENSOR_CH5*%
X52000000Y-95912500D03*
%TO.P,R_VBOT5,2*%
%TO.N,GND*%
X52000000Y-94087500D03*
%TD*%
%TO.P,R_IMON1,1*%
%TO.N,/Power/EF_IMON*%
X166000000Y-91912500D03*
%TO.P,R_IMON1,2*%
%TO.N,/Power/EF_RTN*%
X166000000Y-90087500D03*
%TD*%
D12*
%TO.P,R_BIASB1,1*%
%TO.N,/RS-485/net_MAIN_B*%
X139087500Y-48000000D03*
%TO.P,R_BIASB1,2*%
%TO.N,ISO_GND*%
X140912500Y-48000000D03*
%TD*%
D11*
%TO.P,C_ISOBULK1,1*%
%TO.N,+5V*%
X97000000Y-32475000D03*
%TO.P,C_ISOBULK1,2*%
%TO.N,GND*%
X97000000Y-29525000D03*
%TD*%
D14*
%TO.P,TP_5V1,1*%
%TO.N,+5V*%
X143000000Y-89000000D03*
%TD*%
D12*
%TO.P,R_SER1,1*%
%TO.N,/Sensors & LORA/net_CH1_SIG*%
X24087500Y-70000000D03*
%TO.P,R_SER1,2*%
%TO.N,SENSOR_CH1*%
X25912500Y-70000000D03*
%TD*%
%TO.P,R_OVP2,1*%
%TO.N,/Power/EF_OVP*%
X155087500Y-88000000D03*
%TO.P,R_OVP2,2*%
%TO.N,/Power/EF_RTN*%
X156912500Y-88000000D03*
%TD*%
D15*
%TO.P,R_VBOT1,1*%
%TO.N,SENSOR_CH1*%
X33000000Y-70912500D03*
%TO.P,R_VBOT1,2*%
%TO.N,GND*%
X33000000Y-69087500D03*
%TD*%
D26*
%TO.P,JP_IGND2,1,Pin_1_1*%
%TO.N,Net-(JP_IGND2-Pin_1)*%
X50000000Y-83000000D03*
D27*
%TO.P,JP_IGND2,2,Pin_2_2*%
%TO.N,GND*%
X52540000Y-83000000D03*
%TD*%
D46*
%TO.P,J_SENSOR_SIG1,1,Pin_1_1*%
%TO.N,/Sensors & LORA/net_CH1_SIG*%
X7000000Y-70000000D03*
D47*
%TO.P,J_SENSOR_SIG1,2,Pin_2_2*%
%TO.N,/Sensors & LORA/net_CH2_SIG*%
X7000000Y-75080000D03*
%TO.P,J_SENSOR_SIG1,3,Pin_3_3*%
%TO.N,/Sensors & LORA/net_CH3_SIG*%
X7000000Y-80160000D03*
%TO.P,J_SENSOR_SIG1,4,Pin_4_4*%
%TO.N,/Sensors & LORA/net_CH4_SIG*%
X7000000Y-85240000D03*
%TO.P,J_SENSOR_SIG1,5,Pin_5_5*%
%TO.N,/Sensors & LORA/net_CH5_SIG*%
X7000000Y-90320000D03*
%TO.P,J_SENSOR_SIG1,6,Pin_6_6*%
%TO.N,/Sensors & LORA/net_CH6_SIG*%
X7000000Y-95400000D03*
%TD*%
D24*
%TO.P,K8,1*%
%TO.N,/Motor Valve/COIL_LOW8*%
X178000000Y-118000000D03*
D25*
%TO.P,K8,2*%
%TO.N,/Motor Valve/RLY8_COM*%
X178000000Y-128160000D03*
%TO.P,K8,3*%
%TO.N,/Motor Valve/RLY8_NO*%
X178000000Y-135780000D03*
%TO.P,K8,4*%
%TO.N,/Motor Valve/RLY8_NC*%
X185620000Y-133240000D03*
%TO.P,K8,5*%
%TO.N,+12V*%
X185620000Y-118000000D03*
%TD*%
D29*
%TO.P,C_DEC4,1*%
%TO.N,+3V3*%
X58225000Y-32000000D03*
%TO.P,C_DEC4,2*%
%TO.N,GND*%
X59775000Y-32000000D03*
%TD*%
%TO.P,C_ISOIN1,1*%
%TO.N,+5V*%
X100225000Y-24000000D03*
%TO.P,C_ISOIN1,2*%
%TO.N,GND*%
X101775000Y-24000000D03*
%TD*%
D11*
%TO.P,C_ISOBULK2,1*%
%TO.N,ISO_5V*%
X120000000Y-31475000D03*
%TO.P,C_ISOBULK2,2*%
%TO.N,ISO_GND*%
X120000000Y-28525000D03*
%TD*%
D24*
%TO.P,K6,1*%
%TO.N,/Motor Valve/COIL_LOW6*%
X130000000Y-118000000D03*
D25*
%TO.P,K6,2*%
%TO.N,/Motor Valve/RLY6_COM*%
X130000000Y-128160000D03*
%TO.P,K6,3*%
%TO.N,/Motor Valve/RLY6_NO*%
X130000000Y-135780000D03*
%TO.P,K6,4*%
%TO.N,/Motor Valve/RLY6_NC*%
X137620000Y-133240000D03*
%TO.P,K6,5*%
%TO.N,+12V*%
X137620000Y-118000000D03*
%TD*%
D10*
%TO.P,FID4,*%
%TO.N,*%
X43878680Y-17121320D03*
%TD*%
D20*
%TO.P,C_FILT4,1*%
%TO.N,SENSOR_CH4*%
X37000000Y-95775000D03*
%TO.P,C_FILT4,2*%
%TO.N,GND*%
X37000000Y-94225000D03*
%TD*%
D14*
%TO.P,TP_VALVE_PWR1,1*%
%TO.N,+12V*%
X158000000Y-108000000D03*
%TD*%
D30*
%TO.P,R_RELAY_PD3,1*%
%TO.N,/Motor Valve/RELAY_CMD3*%
X97000000Y-95825000D03*
%TO.P,R_RELAY_PD3,2*%
%TO.N,GND*%
X97000000Y-94175000D03*
%TD*%
D35*
%TO.P,J1,1*%
%TO.N,/Power/DC_IN_RAW_P*%
X190000000Y-77000000D03*
D36*
%TO.P,J1,2*%
%TO.N,GND*%
X190000000Y-82080000D03*
%TD*%
D30*
%TO.P,R_RELAY_PD7,1*%
%TO.N,/Motor Valve/RELAY_CMD7*%
X109000000Y-95825000D03*
%TO.P,R_RELAY_PD7,2*%
%TO.N,GND*%
X109000000Y-94175000D03*
%TD*%
D32*
%TO.P,D_LED2,1,K_1*%
%TO.N,/Power/LED_3V3_K*%
X153062500Y-105000000D03*
%TO.P,D_LED2,2,A_2*%
%TO.N,+3V3*%
X154937500Y-105000000D03*
%TD*%
D13*
%TO.P,TP_ISOGND1,1,1_1*%
%TO.N,ISO_GND*%
X151000000Y-30000000D03*
%TD*%
D26*
%TO.P,JP_VBYP2,1,Pin_1_1*%
%TO.N,/Sensors & LORA/net_CH2_SIG*%
X44000000Y-75000000D03*
D27*
%TO.P,JP_VBYP2,2,Pin_2_2*%
%TO.N,SENSOR_CH2*%
X46540000Y-75000000D03*
%TD*%
D51*
%TO.P,U1,1*%
%TO.N,VIN_12V*%
X159137500Y-78725000D03*
%TO.P,U1,2*%
X159137500Y-79375000D03*
%TO.P,U1,3*%
%TO.N,/Power/EF_UVLO*%
X159137500Y-80025000D03*
%TO.P,U1,4*%
%TO.N,unconnected-(U1-NC-Pad4)*%
X159137500Y-80675000D03*
%TO.P,U1,5*%
%TO.N,/Power/EF_OVP*%
X159137500Y-81325000D03*
%TO.P,U1,6*%
%TO.N,/Power/EF_RTN*%
X159137500Y-81975000D03*
%TO.P,U1,7*%
%TO.N,/Power/EF_SHDN*%
X159137500Y-82625000D03*
%TO.P,U1,8*%
%TO.N,/Power/EF_RTN*%
X159137500Y-83275000D03*
%TO.P,U1,9*%
%TO.N,GND*%
X164862500Y-83275000D03*
%TO.P,U1,10*%
%TO.N,/Power/EF_IMON*%
X164862500Y-82625000D03*
%TO.P,U1,11*%
%TO.N,/Power/EF_ILIM*%
X164862500Y-81975000D03*
%TO.P,U1,12*%
%TO.N,/Power/EF_DVDT*%
X164862500Y-81325000D03*
%TO.P,U1,13*%
%TO.N,unconnected-(U1-NC-Pad13)*%
X164862500Y-80675000D03*
%TO.P,U1,14*%
%TO.N,/Power/EF_FLT_N*%
X164862500Y-80025000D03*
%TO.P,U1,15*%
%TO.N,12V_SW*%
X164862500Y-79375000D03*
%TO.P,U1,16*%
X164862500Y-78725000D03*
D52*
%TO.P,U1,17*%
%TO.N,/Power/EF_RTN*%
X160800000Y-79200000D03*
X160800000Y-80400000D03*
X160800000Y-81600000D03*
X160800000Y-82800000D03*
X162000000Y-79200000D03*
X162000000Y-80400000D03*
D53*
X162000000Y-81000000D03*
D52*
X162000000Y-81600000D03*
X162000000Y-82800000D03*
X163200000Y-79200000D03*
X163200000Y-80400000D03*
X163200000Y-81600000D03*
X163200000Y-82800000D03*
%TD*%
D11*
%TO.P,C_IN2,1*%
%TO.N,12V_SW*%
X132000000Y-81475000D03*
%TO.P,C_IN2,2*%
%TO.N,GND*%
X132000000Y-78525000D03*
%TD*%
D15*
%TO.P,R_ENPU1,1*%
%TO.N,+3V3*%
X48000000Y-18912500D03*
%TO.P,R_ENPU1,2*%
%TO.N,/MCU/net_CHIP_EN*%
X48000000Y-17087500D03*
%TD*%
D17*
%TO.P,D_CLHI6,1,G_1*%
%TO.N,GND*%
X75062500Y-102050000D03*
%TO.P,D_CLHI6,2,S_2*%
%TO.N,+3V3*%
X75062500Y-103950000D03*
%TO.P,D_CLHI6,3,D_3*%
%TO.N,SENSOR_CH6*%
X76937500Y-103000000D03*
%TD*%
D24*
%TO.P,K5,1*%
%TO.N,/Motor Valve/COIL_LOW5*%
X106000000Y-118000000D03*
D25*
%TO.P,K5,2*%
%TO.N,/Motor Valve/RLY5_COM*%
X106000000Y-128160000D03*
%TO.P,K5,3*%
%TO.N,/Motor Valve/RLY5_NO*%
X106000000Y-135780000D03*
%TO.P,K5,4*%
%TO.N,/Motor Valve/RLY5_NC*%
X113620000Y-133240000D03*
%TO.P,K5,5*%
%TO.N,+12V*%
X113620000Y-118000000D03*
%TD*%
D29*
%TO.P,C_DEC2,1*%
%TO.N,+3V3*%
X77225000Y-13000000D03*
%TO.P,C_DEC2,2*%
%TO.N,GND*%
X78775000Y-13000000D03*
%TD*%
D26*
%TO.P,JP_IGND4,1,Pin_1_1*%
%TO.N,Net-(JP_IGND4-Pin_1)*%
X31000000Y-108000000D03*
D27*
%TO.P,JP_IGND4,2,Pin_2_2*%
%TO.N,GND*%
X33540000Y-108000000D03*
%TD*%
D54*
%TO.P,U_RS485_TX1,1,RO_1*%
%TO.N,/RS-485/net_ISO_RO*%
X127525000Y-41095000D03*
%TO.P,U_RS485_TX1,2,~{RE}_2*%
%TO.N,/RS-485/net_ISO_DIR*%
X127525000Y-42365000D03*
%TO.P,U_RS485_TX1,3,DE_3*%
X127525000Y-43635000D03*
%TO.P,U_RS485_TX1,4,DI_4*%
%TO.N,/RS-485/net_ISO_DI*%
X127525000Y-44905000D03*
%TO.P,U_RS485_TX1,5,GND_5*%
%TO.N,ISO_GND*%
X132475000Y-44905000D03*
%TO.P,U_RS485_TX1,6,A_6*%
%TO.N,/RS-485/net_MAIN_A*%
X132475000Y-43635000D03*
%TO.P,U_RS485_TX1,7,B_7*%
%TO.N,/RS-485/net_MAIN_B*%
X132475000Y-42365000D03*
%TO.P,U_RS485_TX1,8,VCC_8*%
%TO.N,ISO_5V*%
X132475000Y-41095000D03*
%TD*%
D26*
%TO.P,JP_VBYP1,1,Pin_1_1*%
%TO.N,/Sensors & LORA/net_CH1_SIG*%
X25000000Y-75000000D03*
D27*
%TO.P,JP_VBYP1,2,Pin_2_2*%
%TO.N,SENSOR_CH1*%
X27540000Y-75000000D03*
%TD*%
D15*
%TO.P,R_BURDEN4,1*%
%TO.N,SENSOR_CH4*%
X32000000Y-101912500D03*
%TO.P,R_BURDEN4,2*%
%TO.N,Net-(JP_IGND4-Pin_1)*%
X32000000Y-100087500D03*
%TD*%
D18*
%TO.P,J_RELAY6,1*%
%TO.N,/Motor Valve/RLY6_COM*%
X129000000Y-145000000D03*
D19*
%TO.P,J_RELAY6,2*%
%TO.N,/Motor Valve/RLY6_NO*%
X134080000Y-145000000D03*
%TO.P,J_RELAY6,3*%
%TO.N,/Motor Valve/RLY6_NC*%
X139160000Y-145000000D03*
%TD*%
D24*
%TO.P,K3,1*%
%TO.N,/Motor Valve/COIL_LOW3*%
X58000000Y-118000000D03*
D25*
%TO.P,K3,2*%
%TO.N,/Motor Valve/RLY3_COM*%
X58000000Y-128160000D03*
%TO.P,K3,3*%
%TO.N,/Motor Valve/RLY3_NO*%
X58000000Y-135780000D03*
%TO.P,K3,4*%
%TO.N,/Motor Valve/RLY3_NC*%
X65620000Y-133240000D03*
%TO.P,K3,5*%
%TO.N,+12V*%
X65620000Y-118000000D03*
%TD*%
D10*
%TO.P,FID1,*%
%TO.N,*%
X10000000Y-10000000D03*
%TD*%
D15*
%TO.P,R_BURDEN5,1*%
%TO.N,SENSOR_CH5*%
X51000000Y-101912500D03*
%TO.P,R_BURDEN5,2*%
%TO.N,Net-(JP_IGND5-Pin_1)*%
X51000000Y-100087500D03*
%TD*%
D12*
%TO.P,R_SETUP1,1*%
%TO.N,+3V3*%
X71087500Y-28000000D03*
%TO.P,R_SETUP1,2*%
%TO.N,/MCU/SETUP_BTN*%
X72912500Y-28000000D03*
%TD*%
D11*
%TO.P,C_OUT3,1*%
%TO.N,+3V3*%
X149000000Y-98475000D03*
%TO.P,C_OUT3,2*%
%TO.N,GND*%
X149000000Y-95525000D03*
%TD*%
D55*
%TO.P,U3,1*%
%TO.N,12V_SW*%
X138000000Y-96000000D03*
D56*
%TO.P,U3,2*%
%TO.N,GND*%
X140540000Y-96000000D03*
%TO.P,U3,3*%
%TO.N,+3V3*%
X143080000Y-96000000D03*
%TD*%
D18*
%TO.P,J_RELAY4,1*%
%TO.N,/Motor Valve/RLY4_COM*%
X81000000Y-145000000D03*
D19*
%TO.P,J_RELAY4,2*%
%TO.N,/Motor Valve/RLY4_NO*%
X86080000Y-145000000D03*
%TO.P,J_RELAY4,3*%
%TO.N,/Motor Valve/RLY4_NC*%
X91160000Y-145000000D03*
%TD*%
D24*
%TO.P,K7,1*%
%TO.N,/Motor Valve/COIL_LOW7*%
X154000000Y-118000000D03*
D25*
%TO.P,K7,2*%
%TO.N,/Motor Valve/RLY7_COM*%
X154000000Y-128160000D03*
%TO.P,K7,3*%
%TO.N,/Motor Valve/RLY7_NO*%
X154000000Y-135780000D03*
%TO.P,K7,4*%
%TO.N,/Motor Valve/RLY7_NC*%
X161620000Y-133240000D03*
%TO.P,K7,5*%
%TO.N,+12V*%
X161620000Y-118000000D03*
%TD*%
D31*
%TO.P,C_DEC9,1*%
%TO.N,+3V3*%
X101775000Y-42000000D03*
%TO.P,C_DEC9,2*%
%TO.N,GND*%
X100225000Y-42000000D03*
%TD*%
D20*
%TO.P,C_FILT5,1*%
%TO.N,SENSOR_CH5*%
X56000000Y-95775000D03*
%TO.P,C_FILT5,2*%
%TO.N,GND*%
X56000000Y-94225000D03*
%TD*%
D18*
%TO.P,J_RELAY1,1*%
%TO.N,/Motor Valve/RLY1_COM*%
X9000000Y-145000000D03*
D19*
%TO.P,J_RELAY1,2*%
%TO.N,/Motor Valve/RLY1_NO*%
X14080000Y-145000000D03*
%TO.P,J_RELAY1,3*%
%TO.N,/Motor Valve/RLY1_NC*%
X19160000Y-145000000D03*
%TD*%
D26*
%TO.P,JP_VBYP4,1,Pin_1_1*%
%TO.N,/Sensors & LORA/net_CH4_SIG*%
X25000000Y-100000000D03*
D27*
%TO.P,JP_VBYP4,2,Pin_2_2*%
%TO.N,SENSOR_CH4*%
X27540000Y-100000000D03*
%TD*%
D57*
%TO.P,R_EXP_RESET1,1*%
%TO.N,+3V3*%
X96175000Y-91000000D03*
%TO.P,R_EXP_RESET1,2*%
%TO.N,/Motor Valve/EXP_RESET_N*%
X97825000Y-91000000D03*
%TD*%
D30*
%TO.P,R_RELAY_PD4,1*%
%TO.N,/Motor Valve/RELAY_CMD4*%
X100000000Y-95825000D03*
%TO.P,R_RELAY_PD4,2*%
%TO.N,GND*%
X100000000Y-94175000D03*
%TD*%
D12*
%TO.P,R_LEDFLT1,1*%
%TO.N,/MCU/LED_FAULT*%
X98087500Y-9000000D03*
%TO.P,R_LEDFLT1,2*%
%TO.N,Net-(D_FLT1-A)*%
X99912500Y-9000000D03*
%TD*%
%TO.P,R_FLT1,1*%
%TO.N,12V_SW*%
X170087500Y-73000000D03*
%TO.P,R_FLT1,2*%
%TO.N,/Power/EF_FLT_N*%
X171912500Y-73000000D03*
%TD*%
D58*
%TO.P,SW_BOOT1,1,1_1*%
%TO.N,/MCU/net_BOOT*%
X47300000Y-30000000D03*
%TO.P,SW_BOOT1,2,2_2*%
%TO.N,GND*%
X50700000Y-30000000D03*
%TD*%
D20*
%TO.P,C_FILT3,1*%
%TO.N,SENSOR_CH3*%
X75000000Y-70775000D03*
%TO.P,C_FILT3,2*%
%TO.N,GND*%
X75000000Y-69225000D03*
%TD*%
D55*
%TO.P,U2,1*%
%TO.N,12V_SW*%
X138000000Y-79000000D03*
D56*
%TO.P,U2,2*%
%TO.N,GND*%
X140540000Y-79000000D03*
%TO.P,U2,3*%
%TO.N,+5V*%
X143080000Y-79000000D03*
%TD*%
D30*
%TO.P,R_RELAY_PD2,1*%
%TO.N,/Motor Valve/RELAY_CMD2*%
X94000000Y-95825000D03*
%TO.P,R_RELAY_PD2,2*%
%TO.N,GND*%
X94000000Y-94175000D03*
%TD*%
D59*
%TO.P,U_MCU1,1*%
%TO.N,GND*%
X56250000Y-7740000D03*
%TO.P,U_MCU1,2*%
%TO.N,+3V3*%
X56250000Y-9010000D03*
%TO.P,U_MCU1,3*%
%TO.N,/MCU/net_CHIP_EN*%
X56250000Y-10280000D03*
%TO.P,U_MCU1,4*%
%TO.N,SENSOR_CH3*%
X56250000Y-11550000D03*
%TO.P,U_MCU1,5*%
%TO.N,SENSOR_CH4*%
X56250000Y-12820000D03*
%TO.P,U_MCU1,6*%
%TO.N,SENSOR_CH5*%
X56250000Y-14090000D03*
%TO.P,U_MCU1,7*%
%TO.N,SENSOR_CH6*%
X56250000Y-15360000D03*
%TO.P,U_MCU1,8*%
%TO.N,RS485_TX*%
X56250000Y-16630000D03*
%TO.P,U_MCU1,9*%
%TO.N,RS485_RX*%
X56250000Y-17900000D03*
%TO.P,U_MCU1,10*%
%TO.N,LORA_UART_TX*%
X56250000Y-19170000D03*
%TO.P,U_MCU1,11*%
%TO.N,LORA_UART_RX*%
X56250000Y-20440000D03*
%TO.P,U_MCU1,12*%
%TO.N,unconnected-(U_MCU1-IO8-Pad12)*%
X56250000Y-21710000D03*
%TO.P,U_MCU1,13*%
%TO.N,net_USB_DM*%
X56250000Y-22980000D03*
%TO.P,U_MCU1,14*%
%TO.N,net_USB_DP*%
X56250000Y-24250000D03*
D60*
%TO.P,U_MCU1,15*%
%TO.N,unconnected-(U_MCU1-IO3-Pad15)*%
X58015000Y-25500000D03*
%TO.P,U_MCU1,16*%
%TO.N,unconnected-(U_MCU1-IO46-Pad16)*%
X59285000Y-25500000D03*
%TO.P,U_MCU1,17*%
%TO.N,unconnected-(U_MCU1-IO9-Pad17)*%
X60555000Y-25500000D03*
%TO.P,U_MCU1,18*%
%TO.N,VALVE_SPI_CS*%
X61825000Y-25500000D03*
%TO.P,U_MCU1,19*%
%TO.N,VALVE_SPI_MOSI*%
X63095000Y-25500000D03*
%TO.P,U_MCU1,20*%
%TO.N,VALVE_SPI_SCLK*%
X64365000Y-25500000D03*
%TO.P,U_MCU1,21*%
%TO.N,VALVE_SPI_MISO*%
X65635000Y-25500000D03*
%TO.P,U_MCU1,22*%
%TO.N,/MCU/SETUP_BTN*%
X66905000Y-25500000D03*
%TO.P,U_MCU1,23*%
%TO.N,unconnected-(U_MCU1-IO21-Pad23)*%
X68175000Y-25500000D03*
%TO.P,U_MCU1,24*%
%TO.N,unconnected-(U_MCU1-IO47-Pad24)*%
X69445000Y-25500000D03*
%TO.P,U_MCU1,25*%
%TO.N,unconnected-(U_MCU1-IO48-Pad25)*%
X70715000Y-25500000D03*
%TO.P,U_MCU1,26*%
%TO.N,unconnected-(U_MCU1-IO45-Pad26)*%
X71985000Y-25500000D03*
D59*
%TO.P,U_MCU1,27*%
%TO.N,/MCU/net_BOOT*%
X73750000Y-24250000D03*
%TO.P,U_MCU1,28*%
%TO.N,unconnected-(U_MCU1-IO35-Pad28)*%
X73750000Y-22980000D03*
%TO.P,U_MCU1,29*%
%TO.N,unconnected-(U_MCU1-IO36-Pad29)*%
X73750000Y-21710000D03*
%TO.P,U_MCU1,30*%
%TO.N,unconnected-(U_MCU1-IO37-Pad30)*%
X73750000Y-20440000D03*
%TO.P,U_MCU1,31*%
%TO.N,/MCU/LED_PWR*%
X73750000Y-19170000D03*
%TO.P,U_MCU1,32*%
%TO.N,/MCU/LED_LINK*%
X73750000Y-17900000D03*
%TO.P,U_MCU1,33*%
%TO.N,/MCU/LED_FAULT*%
X73750000Y-16630000D03*
%TO.P,U_MCU1,34*%
%TO.N,RS485_DE*%
X73750000Y-15360000D03*
%TO.P,U_MCU1,35*%
%TO.N,unconnected-(U_MCU1-IO42-Pad35)*%
X73750000Y-14090000D03*
%TO.P,U_MCU1,36*%
%TO.N,/MCU/net_DEBUG_RX*%
X73750000Y-12820000D03*
%TO.P,U_MCU1,37*%
%TO.N,/MCU/net_DEBUG_TX*%
X73750000Y-11550000D03*
%TO.P,U_MCU1,38*%
%TO.N,SENSOR_CH2*%
X73750000Y-10280000D03*
%TO.P,U_MCU1,39*%
%TO.N,SENSOR_CH1*%
X73750000Y-9010000D03*
%TO.P,U_MCU1,40*%
%TO.N,GND*%
X73750000Y-7740000D03*
D52*
%TO.P,U_MCU1,41*%
X62100000Y-14760000D03*
X62100000Y-16160000D03*
X62800000Y-14060000D03*
X62800000Y-15460000D03*
X62800000Y-16860000D03*
X63500000Y-14760000D03*
D61*
X63500000Y-15460000D03*
D52*
X63500000Y-16160000D03*
X64200000Y-14060000D03*
X64200000Y-15460000D03*
X64200000Y-16860000D03*
X64900000Y-14760000D03*
X64900000Y-16160000D03*
%TD*%
D30*
%TO.P,R_ILIM1,1*%
%TO.N,/Power/EF_ILIM*%
X169000000Y-89825000D03*
%TO.P,R_ILIM1,2*%
%TO.N,/Power/EF_RTN*%
X169000000Y-88175000D03*
%TD*%
D12*
%TO.P,R_BIASA1,1*%
%TO.N,ISO_5V*%
X139087500Y-44000000D03*
%TO.P,R_BIASA1,2*%
%TO.N,/RS-485/net_MAIN_A*%
X140912500Y-44000000D03*
%TD*%
D18*
%TO.P,J_RELAY7,1*%
%TO.N,/Motor Valve/RLY7_COM*%
X153000000Y-145000000D03*
D19*
%TO.P,J_RELAY7,2*%
%TO.N,/Motor Valve/RLY7_NO*%
X158080000Y-145000000D03*
%TO.P,J_RELAY7,3*%
%TO.N,/Motor Valve/RLY7_NC*%
X163160000Y-145000000D03*
%TD*%
D12*
%TO.P,R_BOOT1,1*%
%TO.N,+3V3*%
X54087500Y-30000000D03*
%TO.P,R_BOOT1,2*%
%TO.N,/MCU/net_BOOT*%
X55912500Y-30000000D03*
%TD*%
D62*
%TO.P,U_ISO1,1,Vcc1_1*%
%TO.N,+3V3*%
X106350000Y-40555000D03*
%TO.P,U_ISO1,2,INA_2*%
%TO.N,RS485_TX*%
X106350000Y-41825000D03*
%TO.P,U_ISO1,3,INB_3*%
%TO.N,RS485_DE*%
X106350000Y-43095000D03*
%TO.P,U_ISO1,4,INC_4*%
%TO.N,GND*%
X106350000Y-44365000D03*
%TO.P,U_ISO1,5,IND_5*%
X106350000Y-45635000D03*
%TO.P,U_ISO1,6,INE_6*%
X106350000Y-46905000D03*
%TO.P,U_ISO1,7,OUTF_7*%
%TO.N,RS485_RX*%
X106350000Y-48175000D03*
%TO.P,U_ISO1,8,GND1_8*%
%TO.N,GND*%
X106350000Y-49445000D03*
%TO.P,U_ISO1,9,GND2_9*%
%TO.N,ISO_GND*%
X115650000Y-49445000D03*
%TO.P,U_ISO1,10,INF_10*%
%TO.N,/RS-485/net_ISO_RO*%
X115650000Y-48175000D03*
%TO.P,U_ISO1,11,OUTE_11*%
%TO.N,unconnected-(U_ISO1-OUTE-Pad11)*%
X115650000Y-46905000D03*
%TO.P,U_ISO1,12,OUTD_12*%
%TO.N,unconnected-(U_ISO1-OUTD-Pad12)*%
X115650000Y-45635000D03*
%TO.P,U_ISO1,13,OUTC_13*%
%TO.N,unconnected-(U_ISO1-OUTC-Pad13)*%
X115650000Y-44365000D03*
%TO.P,U_ISO1,14,OUTB_14*%
%TO.N,/RS-485/net_ISO_DIR*%
X115650000Y-43095000D03*
%TO.P,U_ISO1,15,OUTA_15*%
%TO.N,/RS-485/net_ISO_DI*%
X115650000Y-41825000D03*
%TO.P,U_ISO1,16,Vcc2_16*%
%TO.N,ISO_5V*%
X115650000Y-40555000D03*
%TD*%
D15*
%TO.P,R_TERM1,1*%
%TO.N,/RS-485/net_MAIN_A*%
X139000000Y-52912500D03*
%TO.P,R_TERM1,2*%
%TO.N,/RS-485/net_MAIN_B*%
X139000000Y-51087500D03*
%TD*%
D10*
%TO.P,FID3,*%
%TO.N,*%
X190000000Y-156000000D03*
%TD*%
D58*
%TO.P,SW_RESET1,1,1_1*%
%TO.N,/MCU/net_CHIP_EN*%
X41300000Y-25000000D03*
%TO.P,SW_RESET1,2,2_2*%
%TO.N,GND*%
X44700000Y-25000000D03*
%TD*%
%TO.P,SW_SETUP1,1,1_1*%
%TO.N,/MCU/SETUP_BTN*%
X70300000Y-32000000D03*
%TO.P,SW_SETUP1,2,2_2*%
%TO.N,GND*%
X73700000Y-32000000D03*
%TD*%
D63*
%TO.P,C_BULK2,1*%
%TO.N,+3V3*%
X48475000Y-9000000D03*
%TO.P,C_BULK2,2*%
%TO.N,GND*%
X45525000Y-9000000D03*
%TD*%
D18*
%TO.P,J_RELAY2,1*%
%TO.N,/Motor Valve/RLY2_COM*%
X33000000Y-145000000D03*
D19*
%TO.P,J_RELAY2,2*%
%TO.N,/Motor Valve/RLY2_NO*%
X38080000Y-145000000D03*
%TO.P,J_RELAY2,3*%
%TO.N,/Motor Valve/RLY2_NC*%
X43160000Y-145000000D03*
%TD*%
D26*
%TO.P,JP_VBYP5,1,Pin_1_1*%
%TO.N,/Sensors & LORA/net_CH5_SIG*%
X44000000Y-100000000D03*
D27*
%TO.P,JP_VBYP5,2,Pin_2_2*%
%TO.N,SENSOR_CH5*%
X46540000Y-100000000D03*
%TD*%
D20*
%TO.P,C_EXP1,1*%
%TO.N,+3V3*%
X101000000Y-73775000D03*
%TO.P,C_EXP1,2*%
%TO.N,GND*%
X101000000Y-72225000D03*
%TD*%
D64*
%TO.P,U_LORA1,1,UART2_RX/PA3_1*%
%TO.N,LORA_UART_TX*%
X80600000Y-46000000D03*
%TO.P,U_LORA1,2,UART2_TX/PA2_2*%
%TO.N,LORA_UART_RX*%
X80600000Y-47000000D03*
%TO.P,U_LORA1,3,PA15/PIN_A4_3*%
%TO.N,unconnected-(U_LORA1-PA15{slash}PIN_A4-Pad3)*%
X80600000Y-48000000D03*
%TO.P,U_LORA1,4,PB6/UART1_TX_4*%
%TO.N,unconnected-(U_LORA1-PB6{slash}UART1_TX-Pad4)*%
X80600000Y-49000000D03*
%TO.P,U_LORA1,5,PB7/UART1_RX_5*%
%TO.N,unconnected-(U_LORA1-PB7{slash}UART1_RX-Pad5)*%
X80600000Y-50000000D03*
%TO.P,U_LORA1,6,PA1_6*%
%TO.N,unconnected-(U_LORA1-PA1-Pad6)*%
X80600000Y-51000000D03*
%TO.P,U_LORA1,7,PA13/SWDIO_7*%
%TO.N,unconnected-(U_LORA1-PA13{slash}SWDIO-Pad7)*%
X80600000Y-52000000D03*
%TO.P,U_LORA1,8,PA14/SWCLK_8*%
%TO.N,unconnected-(U_LORA1-PA14{slash}SWCLK-Pad8)*%
X80600000Y-53000000D03*
%TO.P,U_LORA1,9,PA12/SCL_9*%
%TO.N,unconnected-(U_LORA1-PA12{slash}SCL-Pad9)*%
X80600000Y-54000000D03*
%TO.P,U_LORA1,10,PA11/SDA_10*%
%TO.N,unconnected-(U_LORA1-PA11{slash}SDA-Pad10)*%
X80600000Y-55000000D03*
%TO.P,U_LORA1,11,GND_11*%
%TO.N,GND*%
X80600000Y-56000000D03*
%TO.P,U_LORA1,12,RF_12*%
%TO.N,/Sensors & LORA/LORA_RF*%
X80600000Y-57000000D03*
D65*
%TO.P,U_LORA1,13,PA7/SPI1_MOSI_13*%
%TO.N,unconnected-(U_LORA1-PA7{slash}SPI1_MOSI-Pad13)*%
X88500000Y-59150000D03*
%TO.P,U_LORA1,14,PA6/SPI1_MISO_14*%
%TO.N,unconnected-(U_LORA1-PA6{slash}SPI1_MISO-Pad14)*%
X89500000Y-59150000D03*
%TO.P,U_LORA1,15,PA5/SPI1_CLK_15*%
%TO.N,unconnected-(U_LORA1-PA5{slash}SPI1_CLK-Pad15)*%
X90500000Y-59150000D03*
%TO.P,U_LORA1,16,PA4/~{SPI1_SS}_16*%
%TO.N,unconnected-(U_LORA1-PA4{slash}~{SPI1_SS}-Pad16)*%
X91500000Y-59150000D03*
D64*
%TO.P,U_LORA1,17,GND_17*%
%TO.N,GND*%
X95400000Y-57000000D03*
%TO.P,U_LORA1,18,GND_18*%
X95400000Y-56000000D03*
%TO.P,U_LORA1,19,PA8_19*%
%TO.N,unconnected-(U_LORA1-PA8-Pad19)*%
X95400000Y-55000000D03*
%TO.P,U_LORA1,20,PA9_20*%
%TO.N,unconnected-(U_LORA1-PA9-Pad20)*%
X95400000Y-50000000D03*
%TO.P,U_LORA1,21,BOOT0_21*%
%TO.N,/Sensors & LORA/net_LORA_BOOT0*%
X95400000Y-49000000D03*
%TO.P,U_LORA1,22,~{RST}_22*%
%TO.N,/Sensors & LORA/net_LORA_RST*%
X95400000Y-48000000D03*
%TO.P,U_LORA1,23,GND_23*%
%TO.N,GND*%
X95400000Y-47000000D03*
%TO.P,U_LORA1,24,VDD_24*%
%TO.N,+3V3*%
X95400000Y-46000000D03*
D65*
%TO.P,U_LORA1,25,PA10/PIN_A3_25*%
%TO.N,unconnected-(U_LORA1-PA10{slash}PIN_A3-Pad25)*%
X91500000Y-44350000D03*
%TO.P,U_LORA1,26,PB2/PIN_A2_26*%
%TO.N,unconnected-(U_LORA1-PB2{slash}PIN_A2-Pad26)*%
X90500000Y-44350000D03*
%TO.P,U_LORA1,27,PB12_27*%
%TO.N,unconnected-(U_LORA1-PB12-Pad27)*%
X89500000Y-44350000D03*
%TO.P,U_LORA1,28,GND_28*%
%TO.N,GND*%
X88500000Y-44350000D03*
%TO.P,U_LORA1,29,PA0_29*%
%TO.N,unconnected-(U_LORA1-PA0-Pad29)*%
X87500000Y-44350000D03*
%TO.P,U_LORA1,30,PB5_30*%
%TO.N,unconnected-(U_LORA1-PB5-Pad30)*%
X86500000Y-44350000D03*
%TO.P,U_LORA1,31,PB4/PIN_A1_31*%
%TO.N,unconnected-(U_LORA1-PB4{slash}PIN_A1-Pad31)*%
X85500000Y-44350000D03*
%TO.P,U_LORA1,32,PB3/PIN_A0_32*%
%TO.N,unconnected-(U_LORA1-PB3{slash}PIN_A0-Pad32)*%
X84500000Y-44350000D03*
%TD*%
D15*
%TO.P,R_UVLO1,1*%
%TO.N,VIN_12V*%
X153000000Y-75912500D03*
%TO.P,R_UVLO1,2*%
%TO.N,/Power/EF_UVLO*%
X153000000Y-74087500D03*
%TD*%
D17*
%TO.P,D_CLHI4,1,G_1*%
%TO.N,GND*%
X37062500Y-102050000D03*
%TO.P,D_CLHI4,2,S_2*%
%TO.N,+3V3*%
X37062500Y-103950000D03*
%TO.P,D_CLHI4,3,D_3*%
%TO.N,SENSOR_CH4*%
X38937500Y-103000000D03*
%TD*%
D12*
%TO.P,R_LINK1,1*%
%TO.N,/MCU/LED_LINK*%
X91087500Y-9000000D03*
%TO.P,R_LINK1,2*%
%TO.N,Net-(D_LINK1-A)*%
X92912500Y-9000000D03*
%TD*%
D50*
%TO.P,CMC_RS485_1,1*%
%TO.N,/RS-485/net_IN_A_RAW*%
X124500000Y-20650000D03*
%TO.P,CMC_RS485_1,2*%
%TO.N,/RS-485/net_MAIN_A*%
X124500000Y-23350000D03*
%TO.P,CMC_RS485_1,3*%
%TO.N,/RS-485/net_MAIN_B*%
X123500000Y-23350000D03*
%TO.P,CMC_RS485_1,4*%
%TO.N,/RS-485/net_IN_B_RAW*%
X123500000Y-20650000D03*
%TD*%
D29*
%TO.P,C_RELAY1,1*%
%TO.N,+12V*%
X96225000Y-110000000D03*
%TO.P,C_RELAY1,2*%
%TO.N,GND*%
X97775000Y-110000000D03*
%TD*%
D66*
%TO.P,C_EN1,1*%
%TO.N,/MCU/net_CHIP_EN*%
X51050000Y-14000000D03*
%TO.P,C_EN1,2*%
%TO.N,GND*%
X52950000Y-14000000D03*
%TD*%
D67*
%TO.N,GND*%
X150637500Y-95525000D03*
X103000000Y-93275000D03*
X32650000Y-9705255D03*
X75062500Y-76150000D03*
X132000000Y-79725000D03*
X103387300Y-51000000D03*
X59557096Y-46490696D03*
X164111396Y-75551796D03*
X80675000Y-14000000D03*
X38172500Y-68952500D03*
X95400000Y-57900000D03*
X56062500Y-100850000D03*
X164862500Y-84175000D03*
X37062500Y-100050000D03*
X90509500Y-7254000D03*
X169000000Y-75850000D03*
X98779500Y-37968700D03*
X93012704Y-84636396D03*
X96015000Y-88650000D03*
X75062500Y-101150000D03*
X60975000Y-32000000D03*
X49286904Y-29363604D03*
X102975000Y-24000000D03*
X57200000Y-94225000D03*
X112000000Y-93275000D03*
X38250000Y-8100000D03*
X91357300Y-47000000D03*
X37150000Y-8100000D03*
X132000000Y-96725000D03*
X54010660Y-12939340D03*
X75065400Y-68259600D03*
X37062500Y-76150000D03*
X38200000Y-94225000D03*
X56062500Y-76150000D03*
X32250000Y-5201923D03*
X98975000Y-110000000D03*
X91000000Y-93275000D03*
%TO.N,SENSOR_CH2*%
X72299000Y-23266800D03*
X74209000Y-42249400D03*
X51000000Y-78035100D03*
%TO.N,/Power/net_CC2*%
X32251200Y-7871900D03*
X35934900Y-10963900D03*
%TO.N,+12V*%
X158761500Y-109591000D03*
X91929400Y-113642000D03*
%TO.N,+3V3*%
X140365900Y-91214000D03*
X78536300Y-69886300D03*
X68278900Y-9010000D03*
X68938100Y-27423900D03*
X77225000Y-11813400D03*
X77272600Y-25865600D03*
%TO.N,ISO_GND*%
X121900000Y-42275000D03*
X136068900Y-44905000D03*
X115650000Y-50345000D03*
X149900000Y-20062500D03*
%TO.N,SENSOR_CH6*%
X57857300Y-15360000D03*
%TO.N,/RS-485/net_MAIN_B*%
X130897300Y-42459800D03*
X129132800Y-22409300D03*
X134570100Y-46489000D03*
%TO.N,VALVE_SPI_CS*%
X61901500Y-26884300D03*
X62864600Y-52766000D03*
%TO.N,VALVE_SPI_SCLK*%
X70601700Y-23273300D03*
X76740100Y-62060400D03*
%TO.N,VALVE_SPI_MOSI*%
X63022300Y-26855800D03*
X65152700Y-56563400D03*
%TO.N,VALVE_SPI_MISO*%
X84034500Y-76430000D03*
X66279900Y-24130700D03*
%TO.N,/Motor Valve/RELAY_CMD2*%
X103012000Y-85173900D03*
X93194400Y-95019400D03*
%TO.N,/Motor Valve/RELAY_CMD3*%
X101616700Y-88243500D03*
X96130300Y-96577200D03*
%TO.N,/Motor Valve/RELAY_CMD6*%
X107441000Y-95835300D03*
X108481200Y-88297700D03*
X95981300Y-98086100D03*
%TO.N,/Motor Valve/RELAY_CMD7*%
X96837900Y-98646400D03*
X109985000Y-88313500D03*
X108947800Y-96848000D03*
%TO.N,/Motor Valve/RELAY_CMD8*%
X114533100Y-94418000D03*
X114533100Y-88010000D03*
X98886800Y-96711700D03*
%TO.N,/Power/net_CC1*%
X33805600Y-4706000D03*
X30305700Y-11650600D03*
%TO.N,SENSOR_CH5*%
X54869900Y-14995600D03*
%TO.N,SENSOR_CH3*%
X54894900Y-11585800D03*
%TO.N,/Power/EF_DVDT*%
X166576100Y-80947400D03*
X166548000Y-94950000D03*
%TO.N,/Power/EF_RTN*%
X152581700Y-77966200D03*
%TO.N,/MCU/LED_PWR*%
X75502900Y-19170000D03*
X79172900Y-15682900D03*
%TO.N,/Power/net_USB_VBUS*%
X36692100Y-10270600D03*
X33501000Y-11034000D03*
%TO.N,/Power/EF_SHDN*%
X156031000Y-91719500D03*
X157727100Y-83200100D03*
%TO.N,SENSOR_CH4*%
X44483800Y-19806800D03*
D68*
%TO.N,net_USB_DM*%
X35250000Y-8100000D03*
X33750000Y-7800000D03*
D67*
%TO.N,/Motor Valve/COIL_LOW2*%
X38820000Y-121218300D03*
%TO.N,SENSOR_CH1*%
X69750100Y-11933200D03*
X31676900Y-78027700D03*
%TO.N,/Power/EF_ILIM*%
X166598400Y-81976600D03*
X167914400Y-89758200D03*
%TO.N,/MCU/net_CHIP_EN*%
X43216400Y-23150900D03*
X47720900Y-15525000D03*
%TO.N,/MCU/LED_FAULT*%
X84799000Y-10688600D03*
X77551400Y-18152900D03*
%TO.N,RS485_TX*%
X71822600Y-11125100D03*
X104729000Y-42306500D03*
%TO.N,RS485_RX*%
X72830800Y-34749700D03*
X61135600Y-17900000D03*
X107987400Y-48175000D03*
X98126800Y-41128200D03*
%TO.N,LORA_UART_TX*%
X75783900Y-43154000D03*
X71034800Y-20945100D03*
%TO.N,LORA_UART_RX*%
X59335000Y-20440000D03*
X73367100Y-47000000D03*
%TO.N,/MCU/LED_LINK*%
X75119000Y-17831500D03*
X82971700Y-9000000D03*
%TD*%
%TO.N,+5V*%
D69*
X103540000Y-30101700D02*
X101166700Y-32475000D01*
X143000000Y-87475000D02*
X143000000Y-89000000D01*
X100225000Y-24171300D02*
X101952000Y-25898300D01*
X101166700Y-32475000D02*
X97000000Y-32475000D01*
X103540000Y-28000000D02*
X103540000Y-25898300D01*
X149000000Y-81475000D02*
X143000000Y-87475000D01*
X146525000Y-79000000D02*
X149000000Y-81475000D01*
X101952000Y-25898300D02*
X103540000Y-25898300D01*
X103540000Y-28000000D02*
X103540000Y-30101700D01*
X143080000Y-79000000D02*
X146525000Y-79000000D01*
X100225000Y-24000000D02*
X100225000Y-24171300D01*
%TO.N,GND*%
D70*
X75065400Y-69159600D02*
X80934600Y-69159600D01*
X73750000Y-7740000D02*
X74826700Y-7740000D01*
X78775000Y-13000000D02*
X78775000Y-11688300D01*
X149437500Y-95525000D02*
X150637500Y-95525000D01*
X50700000Y-30000000D02*
X49923300Y-30000000D01*
X190000000Y-82080000D02*
X190000000Y-83446700D01*
X95400000Y-57000000D02*
X95400000Y-57900000D01*
X55862500Y-69087500D02*
X56000000Y-69225000D01*
X45476700Y-25553400D02*
X45476700Y-25000000D01*
X99679500Y-37968700D02*
X101743700Y-37968700D01*
D71*
X99449300Y-38198900D02*
X99679500Y-37968700D01*
D70*
X49923300Y-30000000D02*
X45476700Y-25553400D01*
X80695000Y-25080000D02*
X78775000Y-27000000D01*
X93649100Y-84000000D02*
X93012704Y-84636396D01*
X74540000Y-54460000D02*
X74540000Y-55675900D01*
X37000000Y-69225000D02*
X37272500Y-68952500D01*
X75065400Y-69159600D02*
X75065400Y-68259600D01*
X71137500Y-69225000D02*
X71000000Y-69087500D01*
X75062500Y-102050000D02*
X75062500Y-101150000D01*
D71*
X100225000Y-41198900D02*
X100892500Y-41198900D01*
X99224100Y-38198900D02*
X99449300Y-38198900D01*
D70*
X56000000Y-94225000D02*
X57200000Y-94225000D01*
X90950000Y-94225000D02*
X91000000Y-94175000D01*
X75062500Y-77050000D02*
X75062500Y-76150000D01*
X132000000Y-95525000D02*
X132000000Y-96725000D01*
X102487300Y-51000000D02*
X103387300Y-51000000D01*
X163475000Y-74915400D02*
X164111396Y-75551796D01*
X102988200Y-47038600D02*
X102186000Y-46236400D01*
X33137500Y-94225000D02*
X33000000Y-94087500D01*
X88500000Y-45042700D02*
X90457300Y-47000000D01*
X106350000Y-49445000D02*
X105914700Y-49445000D01*
X90509500Y-5254000D02*
X90509500Y-7254000D01*
X100225000Y-42000000D02*
X100225000Y-41198900D01*
X52950000Y-14000000D02*
X54010660Y-12939340D01*
X101000000Y-29826700D02*
X97301700Y-29826700D01*
X97775000Y-110000000D02*
X98975000Y-110000000D01*
X164862500Y-83275000D02*
X164862500Y-84175000D01*
X99825000Y-77824100D02*
X99825000Y-77350000D01*
X61448100Y-33673100D02*
X71250200Y-33673100D01*
X71250200Y-33673100D02*
X72923300Y-32000000D01*
X98062500Y-5000000D02*
X96999400Y-3936900D01*
X97920000Y-98350000D02*
X97920000Y-95095000D01*
X29967500Y-6680000D02*
X29967500Y-9120000D01*
X102487300Y-51000000D02*
X104978500Y-48508800D01*
X99679500Y-37968700D02*
X98779500Y-37968700D01*
X97920000Y-95095000D02*
X97000000Y-94175000D01*
D71*
X104978500Y-47185500D02*
X106069500Y-47185500D01*
D70*
X56062500Y-77050000D02*
X56062500Y-76150000D01*
X51225000Y-7762700D02*
X46762300Y-7762700D01*
X190000000Y-103080000D02*
X183920000Y-103080000D01*
X37910000Y-6515000D02*
X37910000Y-6680000D01*
X100912500Y-51000000D02*
X102487300Y-51000000D01*
X147881400Y-77406400D02*
X149000000Y-78525000D01*
X163475000Y-74915400D02*
X163475000Y-74000000D01*
X51247700Y-7740000D02*
X51225000Y-7762700D01*
X29680000Y-6105000D02*
X29967500Y-6392500D01*
X93649100Y-84000000D02*
X99825000Y-77824100D01*
X171000000Y-75850000D02*
X169000000Y-75850000D01*
X112000000Y-94175000D02*
X112000000Y-93275000D01*
X141716700Y-78264600D02*
X142574900Y-77406400D01*
X78775000Y-11688300D02*
X74826700Y-7740000D01*
X56000000Y-94225000D02*
X52137500Y-94225000D01*
X183920000Y-103080000D02*
X182000000Y-105000000D01*
X92125600Y-3936900D02*
X91062500Y-5000000D01*
X176475000Y-84000000D02*
X189446700Y-84000000D01*
X101000000Y-28000000D02*
X101000000Y-29826700D01*
X97285000Y-86650000D02*
X96015000Y-86650000D01*
X73700000Y-32000000D02*
X72923300Y-32000000D01*
X102186000Y-44989000D02*
X103000000Y-44175000D01*
X132000000Y-78525000D02*
X132000000Y-79725000D01*
X55727300Y-7740000D02*
X51247700Y-7740000D01*
X49923300Y-30000000D02*
X49286904Y-29363604D01*
X59775000Y-45000000D02*
X58920700Y-45854300D01*
X102847300Y-40927700D02*
X103775000Y-40000000D01*
X94000000Y-94175000D02*
X91000000Y-94175000D01*
X80934600Y-69159600D02*
X81775000Y-70000000D01*
D71*
X104978500Y-47185500D02*
X104831600Y-47038600D01*
D70*
X38000000Y-9000000D02*
X45525000Y-9000000D01*
X98225000Y-39000000D02*
X99026100Y-38198900D01*
X37000000Y-94225000D02*
X33137500Y-94225000D01*
X37272500Y-68952500D02*
X38172500Y-68952500D01*
X86775000Y-84000000D02*
X93649100Y-84000000D01*
X104831600Y-47038600D02*
X102988200Y-47038600D01*
X101743700Y-37968700D02*
X103775000Y-40000000D01*
X37000000Y-69225000D02*
X33137500Y-69225000D01*
X37062500Y-77050000D02*
X37062500Y-76150000D01*
X75000000Y-94225000D02*
X90950000Y-94225000D01*
X106000000Y-94175000D02*
X109000000Y-94175000D01*
X96015000Y-86650000D02*
X96015000Y-88650000D01*
D71*
X104978500Y-47549200D02*
X104978500Y-47185500D01*
D70*
X52000000Y-69087500D02*
X55862500Y-69087500D01*
X91062500Y-5000000D02*
X90763500Y-5000000D01*
X83000000Y-25080000D02*
X80695000Y-25080000D01*
X88500000Y-44350000D02*
X88500000Y-45042700D01*
X58920700Y-45854300D02*
X42629300Y-45854300D01*
X75000000Y-69225000D02*
X71137500Y-69225000D01*
X97301700Y-29826700D02*
X97000000Y-29525000D01*
X90457300Y-47000000D02*
X95400000Y-47000000D01*
X38000000Y-9000000D02*
X38000000Y-10087500D01*
X44700000Y-25000000D02*
X45476700Y-25000000D01*
X101783100Y-40927700D02*
X102847300Y-40927700D01*
X96015000Y-86650000D02*
X94745000Y-86650000D01*
X78775000Y-13000000D02*
X79775000Y-14000000D01*
X51865000Y-68952500D02*
X52000000Y-69087500D01*
D71*
X100892500Y-40927700D02*
X101783100Y-40927700D01*
D70*
X56062500Y-102050000D02*
X56062500Y-100850000D01*
X37910000Y-6680000D02*
X37200000Y-6680000D01*
D71*
X56250000Y-7740000D02*
X55727300Y-7740000D01*
D70*
X106350000Y-45635000D02*
X106350000Y-46905000D01*
X79775000Y-14000000D02*
X80675000Y-14000000D01*
X99825000Y-73400000D02*
X99825000Y-77350000D01*
X29967500Y-9120000D02*
X29000000Y-10087500D01*
X103000000Y-94175000D02*
X103000000Y-93275000D01*
X58920700Y-45854300D02*
X59557096Y-46490696D01*
X33137500Y-69225000D02*
X33000000Y-69087500D01*
X46762300Y-7762700D02*
X45525000Y-9000000D01*
X37000000Y-94225000D02*
X38200000Y-94225000D01*
X75000000Y-69225000D02*
X75065400Y-69159600D01*
X59775000Y-32000000D02*
X60975000Y-32000000D01*
X37272500Y-68952500D02*
X51865000Y-68952500D01*
X97000000Y-94175000D02*
X94000000Y-94175000D01*
X79775000Y-14000000D02*
X90062500Y-14000000D01*
X142574900Y-77406400D02*
X147881400Y-77406400D01*
X51225000Y-9000000D02*
X51225000Y-7762700D01*
X149437500Y-95525000D02*
X149000000Y-95525000D01*
X100892500Y-41198900D02*
X100892500Y-40927700D01*
X29967500Y-6680000D02*
X30800000Y-6680000D01*
X104978500Y-48508800D02*
X104978500Y-47549200D01*
X91000000Y-94175000D02*
X91000000Y-93275000D01*
X75000000Y-94225000D02*
X71137500Y-94225000D01*
X37910000Y-6680000D02*
X37910000Y-8910000D01*
X154000000Y-100087500D02*
X149437500Y-95525000D01*
X100000000Y-94175000D02*
X103000000Y-94175000D01*
X189446700Y-84000000D02*
X190000000Y-83446700D01*
X37910000Y-8910000D02*
X38000000Y-9000000D01*
X71137500Y-94225000D02*
X71000000Y-94087500D01*
X52137500Y-94225000D02*
X52000000Y-94087500D01*
X90457300Y-47000000D02*
X91357300Y-47000000D01*
D71*
X74540000Y-55675900D02*
X80275900Y-55675900D01*
D70*
X42629300Y-45854300D02*
X40775000Y-44000000D01*
X106350000Y-45635000D02*
X106350000Y-44365000D01*
X102186000Y-46236400D02*
X102186000Y-44989000D01*
X95400000Y-56000000D02*
X95400000Y-57000000D01*
X59775000Y-32000000D02*
X61448100Y-33673100D01*
X105914700Y-49445000D02*
X104978500Y-48508800D01*
D71*
X80275900Y-55675900D02*
X80600000Y-56000000D01*
D70*
X99026100Y-38198900D02*
X99224100Y-38198900D01*
X62800000Y-15460000D02*
X63500000Y-15460000D01*
X109000000Y-94175000D02*
X112000000Y-94175000D01*
X38320000Y-6105000D02*
X37910000Y-6515000D01*
X101000000Y-72225000D02*
X99825000Y-73400000D01*
X29967500Y-6392500D02*
X29967500Y-6680000D01*
D71*
X106069500Y-47185500D02*
X106350000Y-46905000D01*
D70*
X96999400Y-3936900D02*
X92125600Y-3936900D01*
X141716700Y-79000000D02*
X141716700Y-78264600D01*
X37062500Y-102050000D02*
X37062500Y-100050000D01*
X101775000Y-24000000D02*
X102975000Y-24000000D01*
X140540000Y-79000000D02*
X141716700Y-79000000D01*
X90763500Y-5000000D02*
X90509500Y-5254000D01*
%TO.N,/Sensors & LORA/net_CH2_SIG*%
X28716700Y-75487500D02*
X28716700Y-75383500D01*
X31189400Y-72910800D02*
X43087500Y-72910800D01*
X8096700Y-76176700D02*
X28027500Y-76176700D01*
X44000000Y-73823300D02*
X43087500Y-72910800D01*
X43087500Y-72910800D02*
X43087500Y-70000000D01*
X28027500Y-76176700D02*
X28716700Y-75487500D01*
X7000000Y-75080000D02*
X8096700Y-76176700D01*
X44000000Y-75000000D02*
X44000000Y-73823300D01*
X28716700Y-75383500D02*
X31189400Y-72910800D01*
%TO.N,SENSOR_CH2*%
X60610100Y-53959400D02*
X65648300Y-48921200D01*
X52087500Y-78000000D02*
X57937500Y-78000000D01*
X73750000Y-10280000D02*
X72673300Y-10280000D01*
X52137500Y-70775000D02*
X52000000Y-70912500D01*
X51000000Y-76912500D02*
X52087500Y-78000000D01*
X60610100Y-66164900D02*
X60610100Y-53959400D01*
X72673300Y-22892500D02*
X72299000Y-23266800D01*
X45825000Y-70912500D02*
X44912500Y-70000000D01*
X72673300Y-10280000D02*
X72673300Y-22892500D01*
X65648300Y-48921200D02*
X67537200Y-48921200D01*
X56000000Y-70775000D02*
X60610100Y-66164900D01*
X46540000Y-70912500D02*
X45825000Y-70912500D01*
X46540000Y-75000000D02*
X46540000Y-70912500D01*
X51000000Y-78035100D02*
X51000000Y-76912500D01*
X52000000Y-70912500D02*
X46540000Y-70912500D01*
X56000000Y-70775000D02*
X52137500Y-70775000D01*
X67537200Y-48921200D02*
X74209000Y-42249400D01*
%TO.N,/Sensors & LORA/net_LORA_BOOT0*%
X104000000Y-55000000D02*
X103087500Y-55000000D01*
D71*
X97691400Y-49324100D02*
X95724100Y-49324100D01*
D70*
X99087500Y-51000000D02*
X97691400Y-49603900D01*
X97691400Y-49603900D02*
X97691400Y-49324100D01*
X103087500Y-55000000D02*
X99087500Y-51000000D01*
D71*
X95724100Y-49324100D02*
X95400000Y-49000000D01*
%TO.N,/Power/EF_IMON*%
D70*
X164943900Y-91912500D02*
X164943900Y-85399000D01*
X162000000Y-94856400D02*
X162000000Y-96000000D01*
X164943900Y-85399000D02*
X165989600Y-84353300D01*
X165989600Y-82960700D02*
X165653900Y-82625000D01*
X165653900Y-82625000D02*
X164862500Y-82625000D01*
X165989600Y-84353300D02*
X165989600Y-82960700D01*
X164943900Y-91912500D02*
X162000000Y-94856400D01*
X166000000Y-91912500D02*
X164943900Y-91912500D01*
%TO.N,/Power/net_CC2*%
X35934900Y-10963900D02*
X35934900Y-11924800D01*
X36775400Y-12765300D02*
X37147200Y-12765300D01*
X32250000Y-6680000D02*
X32250000Y-7870700D01*
X35934900Y-11924800D02*
X36775400Y-12765300D01*
X32250000Y-7870700D02*
X32251200Y-7871900D01*
X37147200Y-12765300D02*
X38000000Y-11912500D01*
%TO.N,12V_SW*%
D69*
X134475000Y-96000000D02*
X138000000Y-96000000D01*
X139876400Y-94123600D02*
X138000000Y-96000000D01*
X153086900Y-94123600D02*
X139876400Y-94123600D01*
X164545000Y-104000000D02*
X166126700Y-104000000D01*
X145031400Y-71968600D02*
X138000000Y-79000000D01*
X158493600Y-71968600D02*
X145031400Y-71968600D01*
X164545000Y-104000000D02*
X162963300Y-104000000D01*
D72*
X164862500Y-79222700D02*
X164862500Y-79375000D01*
D69*
X160525000Y-76126000D02*
X160525000Y-74000000D01*
X132000000Y-98475000D02*
X134475000Y-96000000D01*
X184000000Y-98000000D02*
X178000000Y-92000000D01*
X164862500Y-78725000D02*
X164862500Y-79222700D01*
X162963300Y-104000000D02*
X153086900Y-94123600D01*
D73*
X162298800Y-77899800D02*
X160525000Y-76126000D01*
D69*
X160525000Y-74000000D02*
X158493600Y-71968600D01*
D73*
X164862500Y-77899800D02*
X162298800Y-77899800D01*
D69*
X166126700Y-104000000D02*
X166126700Y-103873300D01*
X170087500Y-73000000D02*
X165196200Y-77891300D01*
X165196200Y-77891300D02*
X165196200Y-77899800D01*
X190000000Y-98000000D02*
X184000000Y-98000000D01*
X134475000Y-79000000D02*
X132000000Y-81475000D01*
X138000000Y-79000000D02*
X134475000Y-79000000D01*
X164862500Y-78725000D02*
X164862500Y-77899800D01*
X166126700Y-103873300D02*
X178000000Y-92000000D01*
D73*
X165196200Y-77899800D02*
X164862500Y-77899800D01*
%TO.N,+12V*%
D69*
X97920000Y-106824700D02*
X97920000Y-107650000D01*
X117173200Y-103173200D02*
X101571500Y-103173200D01*
X159868300Y-119751700D02*
X161620000Y-118000000D01*
X43371700Y-116248300D02*
X63868300Y-116248300D01*
X158761500Y-109591000D02*
X158000000Y-108829500D01*
X67420900Y-119800900D02*
X87819100Y-119800900D01*
X96225000Y-110000000D02*
X96225000Y-109345000D01*
X158000000Y-108829500D02*
X158000000Y-108000000D01*
X41620000Y-118000000D02*
X39868300Y-119751700D01*
X183868300Y-119751700D02*
X163371700Y-119751700D01*
X135868300Y-119751700D02*
X137620000Y-118000000D01*
X19371700Y-119751700D02*
X17620000Y-118000000D01*
X167873300Y-104098900D02*
X163972200Y-108000000D01*
X115371700Y-119751700D02*
X135868300Y-119751700D01*
X163972200Y-108000000D02*
X158000000Y-108000000D01*
X39868300Y-119751700D02*
X19371700Y-119751700D01*
X92583000Y-113642000D02*
X96225000Y-110000000D01*
X41620000Y-118000000D02*
X43371700Y-116248300D01*
X101571500Y-103173200D02*
X97920000Y-106824700D01*
X113620000Y-118000000D02*
X115371700Y-119751700D01*
X87819100Y-119800900D02*
X89620000Y-118000000D01*
X169455000Y-104000000D02*
X167873300Y-104000000D01*
X63868300Y-116248300D02*
X65620000Y-118000000D01*
X185620000Y-118000000D02*
X183868300Y-119751700D01*
X119000000Y-105000000D02*
X117173200Y-103173200D01*
X96225000Y-109345000D02*
X97920000Y-107650000D01*
X163371700Y-119751700D02*
X161620000Y-118000000D01*
X137620000Y-118000000D02*
X139371700Y-119751700D01*
X65620000Y-118000000D02*
X67420900Y-119800900D01*
X167873300Y-104000000D02*
X167873300Y-104098900D01*
X139371700Y-119751700D02*
X159868300Y-119751700D01*
X91929400Y-113642000D02*
X92583000Y-113642000D01*
%TO.N,+3V3*%
X77272600Y-25865600D02*
X77272600Y-26952400D01*
X140365900Y-91214000D02*
X127208000Y-91214000D01*
X80225000Y-70000000D02*
X80225000Y-76571300D01*
X68278900Y-9010000D02*
X56250000Y-9010000D01*
X153725100Y-106332600D02*
X154937500Y-105120200D01*
X87386400Y-86257100D02*
X85225000Y-84095700D01*
X75062500Y-106549800D02*
X72140700Y-109471600D01*
X104718600Y-41034600D02*
X104718600Y-41031700D01*
X104718600Y-41031700D02*
X104826100Y-40924200D01*
X93031700Y-86257100D02*
X93031700Y-87856700D01*
X57390700Y-105278100D02*
X56062500Y-103950000D01*
X75062500Y-103950000D02*
X75062500Y-106549800D01*
X54888300Y-9000000D02*
X52775000Y-9000000D01*
D74*
X104826100Y-40924200D02*
X105980800Y-40924200D01*
D69*
X72392500Y-33748000D02*
X71740700Y-34399800D01*
X54898300Y-9010000D02*
X54888300Y-9000000D01*
X99160600Y-43076100D02*
X99160600Y-40204500D01*
D75*
X96801000Y-46049100D02*
X95449100Y-46049100D01*
D69*
X58225000Y-34399800D02*
X58225000Y-42900600D01*
X39225000Y-43857900D02*
X39225000Y-44000000D01*
X57390700Y-105278100D02*
X53217100Y-109451700D01*
X54087500Y-30150300D02*
X54087500Y-30000000D01*
X101225000Y-39000000D02*
X102225000Y-40000000D01*
X77225000Y-32822300D02*
X76299300Y-33748000D01*
D74*
X104718600Y-41034600D02*
X103284000Y-42469200D01*
D69*
X80225000Y-76571300D02*
X77846300Y-78950000D01*
X42571200Y-84458700D02*
X56062500Y-84458700D01*
X71740700Y-34399800D02*
X58225000Y-34399800D01*
X51784700Y-10107800D02*
X52775000Y-9117500D01*
X49582800Y-10107800D02*
X51784700Y-10107800D01*
X144531700Y-96000000D02*
X147006700Y-98475000D01*
X55937200Y-32000000D02*
X54087500Y-30150300D01*
X72140700Y-109471600D02*
X61584100Y-109471600D01*
X52775000Y-9117500D02*
X52775000Y-9000000D01*
X99775000Y-39000000D02*
X99775000Y-39434100D01*
X77225000Y-13000000D02*
X77225000Y-11813400D01*
X58225000Y-32000000D02*
X58225000Y-34399800D01*
X101775000Y-42000000D02*
X102244200Y-42469200D01*
X72159700Y-84458700D02*
X76365500Y-80252900D01*
X76365500Y-80252900D02*
X75062500Y-78950000D01*
X70511400Y-27423900D02*
X71087500Y-28000000D01*
X101095000Y-75722700D02*
X101095000Y-77350000D01*
D73*
X98136600Y-44738300D02*
X98136600Y-44100100D01*
D69*
X99160600Y-40204500D02*
X99082600Y-40126500D01*
X102244200Y-42755900D02*
X101924000Y-43076100D01*
X76299300Y-33748000D02*
X72392500Y-33748000D01*
X80111300Y-69886300D02*
X80225000Y-70000000D01*
D74*
X103284000Y-42469200D02*
X102244200Y-42469200D01*
D69*
X111716700Y-75722700D02*
X101095000Y-75722700D01*
X154937500Y-105120200D02*
X154937500Y-105000000D01*
X37062500Y-78950000D02*
X42571200Y-84458700D01*
X143080000Y-96000000D02*
X144531700Y-96000000D01*
X58225000Y-42900600D02*
X58225000Y-45000000D01*
X102244200Y-42469200D02*
X102244200Y-42755900D01*
X98136600Y-44738300D02*
X98136600Y-46049100D01*
X58225000Y-32000000D02*
X55937200Y-32000000D01*
X101000000Y-73775000D02*
X101095000Y-73870000D01*
X58225000Y-42900600D02*
X40182300Y-42900600D01*
X78536300Y-69886300D02*
X80111300Y-69886300D01*
X99087500Y-47000000D02*
X98136600Y-46049100D01*
X46671600Y-109451700D02*
X41169900Y-103950000D01*
X40182300Y-42900600D02*
X39225000Y-43857900D01*
X47890100Y-18912500D02*
X48000000Y-18912500D01*
X93031700Y-87856700D02*
X96175000Y-91000000D01*
X49431700Y-9956700D02*
X49582800Y-10107800D01*
D73*
X99160600Y-43076100D02*
X101924000Y-43076100D01*
D74*
X105980800Y-40924200D02*
X106350000Y-40555000D01*
D69*
X44835200Y-15857600D02*
X47890100Y-18912500D01*
X49431700Y-9956700D02*
X44835200Y-14553200D01*
X98136600Y-46049100D02*
X96801000Y-46049100D01*
X48475000Y-9000000D02*
X49431700Y-9956700D01*
X85225000Y-84000000D02*
X80112500Y-84000000D01*
D73*
X98136600Y-44100100D02*
X99160600Y-43076100D01*
D69*
X41169900Y-85860000D02*
X42571200Y-84458700D01*
X101095000Y-77350000D02*
X101095000Y-78193800D01*
X56062500Y-84458700D02*
X72159700Y-84458700D01*
X127208000Y-91214000D02*
X111716700Y-75722700D01*
X85225000Y-84095700D02*
X85225000Y-84000000D01*
X147006700Y-98475000D02*
X149000000Y-98475000D01*
X56250000Y-9010000D02*
X54898300Y-9010000D01*
X37062500Y-103950000D02*
X41169900Y-103950000D01*
X149000000Y-106332600D02*
X146332600Y-109000000D01*
X149000000Y-106332600D02*
X153725100Y-106332600D01*
X99775000Y-39000000D02*
X101225000Y-39000000D01*
X149000000Y-98475000D02*
X149000000Y-106332600D01*
X61584100Y-109471600D02*
X57390700Y-105278100D01*
X44835200Y-14553200D02*
X44835200Y-15857600D01*
X99775000Y-39434100D02*
X99082600Y-40126500D01*
X77225000Y-32822300D02*
X77225000Y-27000000D01*
X84529200Y-40126500D02*
X77225000Y-32822300D01*
X101095000Y-73870000D02*
X101095000Y-75722700D01*
D75*
X95449100Y-46049100D02*
X95400000Y-46000000D01*
D69*
X77846300Y-78950000D02*
X75062500Y-78950000D01*
X93031700Y-86257100D02*
X87386400Y-86257100D01*
X68938100Y-27423900D02*
X70511400Y-27423900D01*
X53217100Y-109451700D02*
X46671600Y-109451700D01*
X41169900Y-103950000D02*
X41169900Y-85860000D01*
X56062500Y-78950000D02*
X56062500Y-84458700D01*
X146332600Y-109000000D02*
X145000000Y-109000000D01*
X80112500Y-84000000D02*
X76365500Y-80252900D01*
X99082600Y-40126500D02*
X84529200Y-40126500D01*
X77272600Y-26952400D02*
X77225000Y-27000000D01*
X101095000Y-78193800D02*
X93031700Y-86257100D01*
%TO.N,ISO_GND*%
D70*
X119000000Y-28000000D02*
X119475000Y-28000000D01*
X140000000Y-43272800D02*
X140000000Y-44697400D01*
X140460800Y-42809900D02*
X140460800Y-42812000D01*
X119475000Y-28000000D02*
X120000000Y-28525000D01*
X135168900Y-41056100D02*
X135168900Y-44260800D01*
X149294300Y-33976400D02*
X140460800Y-42809900D01*
X140460800Y-42812000D02*
X140000000Y-43272800D01*
X113700000Y-28000000D02*
X119000000Y-28000000D01*
X140000000Y-44697400D02*
X138805000Y-45892400D01*
D71*
X135168900Y-44260800D02*
X135168900Y-44853000D01*
D70*
X135168900Y-44905000D02*
X136068900Y-44905000D01*
X138805000Y-45892400D02*
X140912500Y-48000000D01*
X118725000Y-40000000D02*
X121900000Y-43175000D01*
X149294300Y-31705700D02*
X149294300Y-33976400D01*
X149000000Y-20062500D02*
X149900000Y-20062500D01*
X115650000Y-49445000D02*
X115650000Y-50345000D01*
X151000000Y-30000000D02*
X149294300Y-31705700D01*
X121900000Y-43175000D02*
X122000000Y-43175000D01*
X135168900Y-44905000D02*
X137817500Y-44905000D01*
X119000000Y-28000000D02*
X119000000Y-20062500D01*
X137817500Y-44905000D02*
X138805000Y-45892400D01*
X121900000Y-43175000D02*
X121900000Y-42275000D01*
X135168900Y-44905000D02*
X132475000Y-44905000D01*
X135168900Y-44853000D02*
X135168900Y-44905000D01*
X136225000Y-40000000D02*
X135168900Y-41056100D01*
%TO.N,/RS-485/net_LOC_A_RAW*%
X153725000Y-17198000D02*
X154500000Y-17973000D01*
X150736100Y-9873300D02*
X153725000Y-12862200D01*
X153725000Y-12862200D02*
X153725000Y-17198000D01*
X154500000Y-17973000D02*
X154500000Y-20650000D01*
X145080000Y-18967500D02*
X148050000Y-21937500D01*
X145080000Y-9873300D02*
X150736100Y-9873300D01*
X145080000Y-12000000D02*
X145080000Y-9873300D01*
X145080000Y-12000000D02*
X145080000Y-18967500D01*
%TO.N,/RS-485/net_LOC_B_RAW*%
X150160000Y-12000000D02*
X150160000Y-14126700D01*
X153500000Y-20650000D02*
X152212500Y-21937500D01*
X150160000Y-14126700D02*
X150160000Y-17310000D01*
X152212500Y-21937500D02*
X149950000Y-21937500D01*
X150160000Y-17310000D02*
X153500000Y-20650000D01*
%TO.N,SENSOR_CH6*%
X71137500Y-95775000D02*
X71000000Y-95912500D01*
X64825000Y-95912500D02*
X63912500Y-95000000D01*
X71052500Y-99299800D02*
X71052500Y-100860000D01*
X66292700Y-99247300D02*
X71000000Y-99247300D01*
X71000000Y-95912500D02*
X71000000Y-99247300D01*
X70000000Y-101912500D02*
X71087500Y-103000000D01*
X65540000Y-100000000D02*
X66292700Y-99247300D01*
X71000000Y-99247300D02*
X71052500Y-99299800D01*
X75000000Y-95775000D02*
X71137500Y-95775000D01*
X71052500Y-100860000D02*
X70000000Y-101912500D01*
X56250000Y-15360000D02*
X57857300Y-15360000D01*
X71000000Y-95912500D02*
X64825000Y-95912500D01*
X71087500Y-103000000D02*
X76937500Y-103000000D01*
%TO.N,/Motor Valve/RLY8_COM*%
D76*
X178000000Y-128160000D02*
X175000000Y-131160000D01*
X175000000Y-143000000D02*
X177000000Y-145000000D01*
X175000000Y-131160000D02*
X175000000Y-143000000D01*
%TO.N,/Motor Valve/RLY8_NO*%
X182080000Y-139860000D02*
X182080000Y-145000000D01*
X178000000Y-135780000D02*
X182080000Y-139860000D01*
%TO.N,/Motor Valve/RLY8_NC*%
X188160000Y-143900000D02*
X187160000Y-145000000D01*
X188160000Y-135780000D02*
X188160000Y-143900000D01*
X185620000Y-133240000D02*
X188160000Y-135780000D01*
%TO.N,/RS-485/net_MAIN_A*%
D70*
X141769900Y-44857400D02*
X141769900Y-50142600D01*
X138747700Y-52912500D02*
X139000000Y-52912500D01*
X131154000Y-45318800D02*
X138747700Y-52912500D01*
X175080000Y-16000000D02*
X175080000Y-18126700D01*
X152082400Y-24258300D02*
X153842400Y-24258300D01*
X169856700Y-23350000D02*
X154500000Y-23350000D01*
X152082400Y-32830100D02*
X140912500Y-44000000D01*
X152082400Y-24258300D02*
X152082400Y-32830100D01*
X124500000Y-23350000D02*
X125408300Y-24258300D01*
X125408300Y-24258300D02*
X152082400Y-24258300D01*
X141769900Y-50142600D02*
X139000000Y-52912500D01*
X131154000Y-44569600D02*
X131154000Y-45318800D01*
X154500000Y-23600700D02*
X154500000Y-23350000D01*
X140912500Y-44000000D02*
X141769900Y-44857400D01*
X153842400Y-24258300D02*
X154500000Y-23600700D01*
X175080000Y-18126700D02*
X169856700Y-23350000D01*
X132475000Y-43635000D02*
X132088600Y-43635000D01*
X132088600Y-43635000D02*
X131154000Y-44569600D01*
%TO.N,/RS-485/net_MAIN_B*%
X129132800Y-22409300D02*
X124182100Y-22409300D01*
X139000000Y-51087500D02*
X139087500Y-51000000D01*
X153194700Y-22405700D02*
X159659200Y-22405700D01*
X132475000Y-42365000D02*
X132380200Y-42459800D01*
X153163600Y-23350000D02*
X152869600Y-23056000D01*
X139087500Y-51000000D02*
X139087500Y-48000000D01*
X152869600Y-23056000D02*
X152869600Y-22730800D01*
X180160000Y-16000000D02*
X180160000Y-13873300D01*
X152869600Y-22730800D02*
X153194700Y-22405700D01*
X180134100Y-13847400D02*
X180160000Y-13873300D01*
X124182100Y-22409300D02*
X123500000Y-23091400D01*
X129779500Y-23056000D02*
X129132800Y-22409300D01*
X123500000Y-23091400D02*
X123500000Y-23350000D01*
X168217500Y-13847400D02*
X180134100Y-13847400D01*
X137576500Y-46489000D02*
X139087500Y-48000000D01*
X159659200Y-22405700D02*
X168217500Y-13847400D01*
X153500000Y-23350000D02*
X153163600Y-23350000D01*
X132380200Y-42459800D02*
X130897300Y-42459800D01*
X134570100Y-46489000D02*
X137576500Y-46489000D01*
X152869600Y-23056000D02*
X129779500Y-23056000D01*
%TO.N,ISO_5V*%
D69*
X137775000Y-38922400D02*
X137775000Y-40000000D01*
X134647600Y-38922400D02*
X137775000Y-38922400D01*
X145000000Y-30000000D02*
X137775000Y-37225000D01*
X120275000Y-39825200D02*
X120275000Y-40000000D01*
X137775000Y-40000000D02*
X139087500Y-41312500D01*
X131380000Y-40000000D02*
X132475000Y-41095000D01*
X120000000Y-32112700D02*
X118327400Y-33785300D01*
X118327400Y-37877600D02*
X115650000Y-40555000D01*
X112303600Y-33785300D02*
X108620000Y-30101700D01*
X137775000Y-37225000D02*
X137775000Y-38922400D01*
X118327400Y-33785300D02*
X112303600Y-33785300D01*
X139087500Y-41312500D02*
X139087500Y-44000000D01*
X118327400Y-33785300D02*
X118327400Y-37877600D01*
X120275000Y-40000000D02*
X131380000Y-40000000D01*
X132475000Y-41095000D02*
X134647600Y-38922400D01*
X120000000Y-31475000D02*
X120000000Y-32112700D01*
X108620000Y-28000000D02*
X108620000Y-30101700D01*
X118327400Y-37877600D02*
X120275000Y-39825200D01*
%TO.N,Net-(JP_IGND6-Pin_1)*%
D70*
X68929800Y-106753100D02*
X68929800Y-101157700D01*
X68929800Y-101157700D02*
X70000000Y-100087500D01*
X69000000Y-108000000D02*
X69000000Y-106823300D01*
X69000000Y-106823300D02*
X68929800Y-106753100D01*
%TO.N,VIN_12V*%
D69*
X154313500Y-73470300D02*
X154313500Y-75912500D01*
X153000000Y-75912500D02*
X154313500Y-75912500D01*
X151218300Y-84287500D02*
X151218300Y-73943400D01*
X153087500Y-92000000D02*
X153087500Y-92177400D01*
X173525000Y-81354800D02*
X178617400Y-81354800D01*
X166856500Y-98102800D02*
X173525000Y-91434300D01*
X152843300Y-85912500D02*
X151218300Y-84287500D01*
X153000000Y-85912500D02*
X153087500Y-86000000D01*
X153000000Y-85912500D02*
X152843300Y-85912500D01*
X183455000Y-78000000D02*
X181873300Y-78000000D01*
X153813500Y-72970300D02*
X154313500Y-73470300D01*
X159012900Y-98102800D02*
X166856500Y-98102800D01*
X151218300Y-73943400D02*
X152191400Y-72970300D01*
X153087500Y-86000000D02*
X153087500Y-92000000D01*
X171000000Y-80150000D02*
X172204800Y-81354800D01*
X153087500Y-92177400D02*
X159012900Y-98102800D01*
X156325000Y-75912500D02*
X159137500Y-78725000D01*
X159137500Y-78725000D02*
X159137500Y-79222700D01*
X172204800Y-81354800D02*
X173525000Y-81354800D01*
X178617400Y-81354800D02*
X181873300Y-78098900D01*
X154313500Y-75912500D02*
X156325000Y-75912500D01*
X173525000Y-84000000D02*
X173525000Y-81354800D01*
D72*
X159137500Y-79222700D02*
X159137500Y-79375000D01*
D69*
X181873300Y-78098900D02*
X181873300Y-78000000D01*
X152191400Y-72970300D02*
X153813500Y-72970300D01*
X173525000Y-91434300D02*
X173525000Y-84000000D01*
%TO.N,/Motor Valve/COIL_LOW1*%
D77*
X94284400Y-122108100D02*
X108080000Y-108312500D01*
X10000000Y-118000000D02*
X11601700Y-118000000D01*
X108080000Y-108312500D02*
X108080000Y-107650000D01*
X11601700Y-118000000D02*
X15709800Y-122108100D01*
X15709800Y-122108100D02*
X94284400Y-122108100D01*
%TO.N,/Motor Valve/RLY1_COM*%
D76*
X10000000Y-128160000D02*
X7000000Y-131160000D01*
X7000000Y-131160000D02*
X7000000Y-143000000D01*
X7000000Y-143000000D02*
X9000000Y-145000000D01*
%TO.N,/Motor Valve/RLY1_NO*%
X10000000Y-135780000D02*
X14080000Y-139860000D01*
X14080000Y-139860000D02*
X14080000Y-145000000D01*
%TO.N,/Motor Valve/RLY1_NC*%
X17620000Y-133240000D02*
X20160000Y-135780000D01*
X20160000Y-135780000D02*
X20160000Y-143900000D01*
X20160000Y-143900000D02*
X19160000Y-145000000D01*
%TO.N,/MCU/net_DEBUG_TX*%
D70*
X81823300Y-19361200D02*
X77352500Y-14890400D01*
X83000000Y-20000000D02*
X81823300Y-20000000D01*
X76847000Y-15021600D02*
X76186200Y-14360800D01*
X76978300Y-14890400D02*
X76847100Y-15021600D01*
X76186200Y-14360800D02*
X76186200Y-12044800D01*
D71*
X73750000Y-11550000D02*
X74795400Y-11550000D01*
X75290200Y-12044800D02*
X74795400Y-11550000D01*
D70*
X81823300Y-20000000D02*
X81823300Y-19361200D01*
X77352500Y-14890400D02*
X76978300Y-14890400D01*
D71*
X76186200Y-12044800D02*
X75290200Y-12044800D01*
D70*
X76847100Y-15021600D02*
X76847000Y-15021600D01*
%TO.N,/MCU/net_DEBUG_RX*%
X77006300Y-15501200D02*
X77113700Y-15393800D01*
X74826700Y-12820000D02*
X74826700Y-13640100D01*
X77217100Y-15393800D02*
X78540700Y-16717400D01*
X81635200Y-20493500D02*
X81635200Y-21175200D01*
X74826700Y-13640100D02*
X76687800Y-15501200D01*
X76687800Y-15501200D02*
X77006300Y-15501200D01*
X81635200Y-21175200D02*
X83000000Y-22540000D01*
X73750000Y-12820000D02*
X74826700Y-12820000D01*
X77113700Y-15393800D02*
X77217100Y-15393800D01*
X78540700Y-17399000D02*
X81635200Y-20493500D01*
X78540700Y-16717400D02*
X78540700Y-17399000D01*
%TO.N,VALVE_SPI_CS*%
X61901500Y-26653200D02*
X61901500Y-26884300D01*
X98555000Y-76901100D02*
X98555000Y-77350000D01*
X62864600Y-52766000D02*
X65495900Y-52766000D01*
X73803400Y-61073500D02*
X82727400Y-61073500D01*
X61825000Y-25500000D02*
X61825000Y-26576700D01*
X61825000Y-26576700D02*
X61901500Y-26653200D01*
X65495900Y-52766000D02*
X73803400Y-61073500D01*
X82727400Y-61073500D02*
X98555000Y-76901100D01*
%TO.N,VALVE_SPI_SCLK*%
X97285000Y-76824000D02*
X82521400Y-62060400D01*
X82521400Y-62060400D02*
X76740100Y-62060400D01*
X97285000Y-77350000D02*
X97285000Y-76824000D01*
X64365000Y-25500000D02*
X64365000Y-24423300D01*
X65515000Y-23273300D02*
X70601700Y-23273300D01*
X64365000Y-24423300D02*
X65515000Y-23273300D01*
%TO.N,VALVE_SPI_MOSI*%
X63095000Y-25500000D02*
X63095000Y-26783100D01*
X63095000Y-26783100D02*
X63022300Y-26855800D01*
X96015000Y-76889500D02*
X86098200Y-66972700D01*
X79063800Y-66972700D02*
X68654500Y-56563400D01*
X68654500Y-56563400D02*
X65152700Y-56563400D01*
X86098200Y-66972700D02*
X79063800Y-66972700D01*
X96015000Y-77350000D02*
X96015000Y-76889500D01*
%TO.N,VALVE_SPI_MISO*%
X65635000Y-25500000D02*
X65635000Y-24423300D01*
X93825000Y-76430000D02*
X84034500Y-76430000D01*
X94745000Y-77350000D02*
X93825000Y-76430000D01*
X65635000Y-24423300D02*
X65987300Y-24423300D01*
X65987300Y-24423300D02*
X66279900Y-24130700D01*
%TO.N,/Motor Valve/EXP_RESET_N*%
X98555000Y-90270000D02*
X98555000Y-86650000D01*
X97825000Y-91000000D02*
X98555000Y-90270000D01*
%TO.N,/Motor Valve/RELAY_CMD1*%
X108080000Y-98905500D02*
X108080000Y-98350000D01*
X105147700Y-93739900D02*
X105147700Y-96193800D01*
X105540000Y-96586100D02*
X106748400Y-96586100D01*
X106748400Y-96586100D02*
X108080000Y-97917700D01*
X108080000Y-97917700D02*
X108080000Y-98350000D01*
X110620000Y-87920500D02*
X110774300Y-88074800D01*
X102245400Y-84844200D02*
X102660000Y-84429600D01*
X105850600Y-101134900D02*
X108080000Y-98905500D01*
X91000000Y-95825000D02*
X96309900Y-101134900D01*
X110774300Y-88074800D02*
X110774300Y-88590800D01*
X102245400Y-86530400D02*
X102245400Y-84844200D01*
X102365000Y-86650000D02*
X102245400Y-86530400D01*
X110620000Y-85584600D02*
X110620000Y-87920500D01*
X110774300Y-88590800D02*
X106447300Y-92917800D01*
X105147700Y-96193800D02*
X105540000Y-96586100D01*
X96309900Y-101134900D02*
X105850600Y-101134900D01*
X102660000Y-84429600D02*
X109465000Y-84429600D01*
X106447300Y-92917800D02*
X105969800Y-92917800D01*
X109465000Y-84429600D02*
X110620000Y-85584600D01*
X105969800Y-92917800D02*
X105147700Y-93739900D01*
%TO.N,/Motor Valve/RELAY_CMD2*%
X103635000Y-85796900D02*
X103012000Y-85173900D01*
X94000000Y-97486900D02*
X97196300Y-100683200D01*
X106810000Y-98835700D02*
X106810000Y-98350000D01*
X94000000Y-95825000D02*
X94000000Y-97486900D01*
X97196300Y-100683200D02*
X104962500Y-100683200D01*
X103635000Y-86650000D02*
X103635000Y-85796900D01*
X104962500Y-100683200D02*
X106810000Y-98835700D01*
X94000000Y-95825000D02*
X93194400Y-95019400D01*
%TO.N,/Motor Valve/RELAY_CMD3*%
X105540000Y-97224800D02*
X105540000Y-98350000D01*
X105795300Y-85296900D02*
X109092800Y-85296900D01*
X109207900Y-88062700D02*
X109207900Y-89040900D01*
X104696000Y-96380900D02*
X105539900Y-97224800D01*
X96882500Y-95825000D02*
X96130300Y-96577200D01*
X104905000Y-86650000D02*
X104905000Y-86187200D01*
X109350000Y-85554100D02*
X109350000Y-87920600D01*
X97000000Y-95825000D02*
X96882500Y-95825000D01*
X103876000Y-88243500D02*
X101616700Y-88243500D01*
X109207900Y-89040900D02*
X104696000Y-93552800D01*
X104696000Y-93552800D02*
X104696000Y-96380900D01*
X105539900Y-97224800D02*
X105540000Y-97224800D01*
X109092800Y-85296900D02*
X109350000Y-85554100D01*
X104905000Y-86650000D02*
X104905000Y-87214500D01*
X104905000Y-86187200D02*
X105795300Y-85296900D01*
X104905000Y-87214500D02*
X103876000Y-88243500D01*
X109350000Y-87920600D02*
X109207900Y-88062700D01*
%TO.N,/Motor Valve/RELAY_CMD4*%
X103090700Y-96736700D02*
X100911700Y-96736700D01*
X99191700Y-95016700D02*
X100000000Y-95825000D01*
X106175000Y-87133700D02*
X100000700Y-93308000D01*
X106175000Y-86650000D02*
X106175000Y-87133700D01*
X104270000Y-98350000D02*
X104270000Y-97916000D01*
X100000700Y-93308000D02*
X99621700Y-93308000D01*
X100911700Y-96736700D02*
X100000000Y-95825000D01*
X99621700Y-93308000D02*
X99191700Y-93738000D01*
X99191700Y-93738000D02*
X99191700Y-95016700D01*
X104270000Y-97916000D02*
X103090700Y-96736700D01*
%TO.N,/Motor Valve/RELAY_CMD5*%
X103000000Y-95825000D02*
X103449700Y-95825000D01*
X103000000Y-98858300D02*
X103000000Y-98350000D01*
X104905000Y-97280300D02*
X104905000Y-99418100D01*
X104244300Y-90748100D02*
X104244300Y-95030400D01*
X103449700Y-95825000D02*
X104905000Y-97280300D01*
X107445000Y-87547400D02*
X104244300Y-90748100D01*
X104618000Y-99705100D02*
X103846800Y-99705100D01*
X104244300Y-95030400D02*
X103449700Y-95825000D01*
X103846800Y-99705100D02*
X103000000Y-98858300D01*
X104905000Y-99418100D02*
X104618000Y-99705100D01*
X107445000Y-86650000D02*
X107445000Y-87547400D01*
%TO.N,/Motor Valve/RELAY_CMD6*%
X101730000Y-98350000D02*
X101730000Y-98811400D01*
X108715000Y-86650000D02*
X108715000Y-88063900D01*
X95981300Y-98829400D02*
X95981300Y-98086100D01*
X100309900Y-100231500D02*
X97383400Y-100231500D01*
X106000000Y-95825000D02*
X106010300Y-95835300D01*
X101730000Y-98811400D02*
X100309900Y-100231500D01*
X106010300Y-95835300D02*
X107441000Y-95835300D01*
X108715000Y-88063900D02*
X108481200Y-88297700D01*
X97383400Y-100231500D02*
X95981300Y-98829400D01*
%TO.N,/Motor Valve/RELAY_CMD7*%
X97567400Y-99744200D02*
X96837900Y-99014700D01*
X109985000Y-86650000D02*
X109985000Y-88313500D01*
X99501600Y-99744200D02*
X97567400Y-99744200D01*
X100460000Y-98350000D02*
X100460000Y-98785800D01*
X108947800Y-95877200D02*
X108947800Y-96848000D01*
X109000000Y-95825000D02*
X108947800Y-95877200D01*
X100460000Y-98785800D02*
X99501600Y-99744200D01*
X96837900Y-99014700D02*
X96837900Y-98646400D01*
%TO.N,/Motor Valve/RELAY_CMD8*%
X98886800Y-98046800D02*
X98886800Y-96711700D01*
X99190000Y-98350000D02*
X98886800Y-98046800D01*
X112615000Y-88010000D02*
X111255000Y-86650000D01*
X114533100Y-88010000D02*
X112615000Y-88010000D01*
X112000000Y-95825000D02*
X113407000Y-94418000D01*
X113407000Y-94418000D02*
X114533100Y-94418000D01*
%TO.N,/Power/DC_IN_RAW_P*%
D69*
X180126700Y-77901100D02*
X180126700Y-78000000D01*
X182267900Y-75759900D02*
X180126700Y-77901100D01*
X190000000Y-77000000D02*
X188759900Y-75759900D01*
X178545000Y-78000000D02*
X180126700Y-78000000D01*
X188759900Y-75759900D02*
X182267900Y-75759900D01*
%TO.N,/RS-485/net_ISO_DIR*%
D71*
X116294200Y-43739200D02*
X115650000Y-43095000D01*
D70*
X121199000Y-44024000D02*
X121199000Y-43739200D01*
D71*
X121199000Y-43739200D02*
X116294200Y-43739200D01*
D70*
X122000000Y-44825000D02*
X121199000Y-44024000D01*
D71*
X122801000Y-44279200D02*
X126880800Y-44279200D01*
X126880800Y-44279200D02*
X127525000Y-43635000D01*
D70*
X122000000Y-44825000D02*
X122255200Y-44825000D01*
X127525000Y-43635000D02*
X127525000Y-42365000D01*
X122255200Y-44825000D02*
X122801000Y-44279200D01*
%TO.N,/Motor Valve/RLY5_COM*%
D76*
X106000000Y-128160000D02*
X103000000Y-131160000D01*
X103000000Y-143000000D02*
X105000000Y-145000000D01*
X103000000Y-131160000D02*
X103000000Y-143000000D01*
%TO.N,/Motor Valve/RLY5_NO*%
X110080000Y-139860000D02*
X110080000Y-145000000D01*
X106000000Y-135780000D02*
X110080000Y-139860000D01*
%TO.N,/Motor Valve/RLY5_NC*%
X116160000Y-135780000D02*
X116160000Y-143900000D01*
X116160000Y-143900000D02*
X115160000Y-145000000D01*
X113620000Y-133240000D02*
X116160000Y-135780000D01*
%TO.N,/Power/net_CC1*%
D70*
X29000000Y-11912500D02*
X30043800Y-11912500D01*
X33805600Y-4706000D02*
X33956800Y-4706000D01*
X33956800Y-4706000D02*
X35250000Y-5999200D01*
X35250000Y-5999200D02*
X35250000Y-6680000D01*
X30043800Y-11912500D02*
X30305700Y-11650600D01*
%TO.N,Net-(D_PWR1-A)*%
X91937500Y-14000000D02*
X92976900Y-12960600D01*
X95873100Y-12960600D02*
X96912500Y-14000000D01*
X92976900Y-12960600D02*
X95873100Y-12960600D01*
%TO.N,SENSOR_CH5*%
X52058300Y-95970800D02*
X52058300Y-100854200D01*
X46540000Y-95912500D02*
X45825000Y-95912500D01*
X45825000Y-95912500D02*
X44912500Y-95000000D01*
X52272100Y-103184600D02*
X57752900Y-103184600D01*
X52058300Y-100854200D02*
X51000000Y-101912500D01*
X46540000Y-100000000D02*
X46540000Y-95912500D01*
X51000000Y-101912500D02*
X52272100Y-103184600D01*
X57752900Y-103184600D02*
X57937500Y-103000000D01*
X52000000Y-95912500D02*
X52058300Y-95970800D01*
X56000000Y-95775000D02*
X52137500Y-95775000D01*
X56250000Y-14090000D02*
X55173300Y-14090000D01*
X52137500Y-95775000D02*
X52000000Y-95912500D01*
X55173300Y-14090000D02*
X55173300Y-14692200D01*
X55173300Y-14692200D02*
X54869900Y-14995600D01*
X52000000Y-95912500D02*
X46540000Y-95912500D01*
%TO.N,/RS-485/net_ISO_DI*%
X115650000Y-41825000D02*
X115168600Y-41825000D01*
X125000000Y-53243000D02*
X125000000Y-54000000D01*
X115168600Y-41825000D02*
X114260400Y-42733200D01*
X114260400Y-44693700D02*
X114566700Y-45000000D01*
X116757000Y-45000000D02*
X122093500Y-50336500D01*
X114566700Y-45000000D02*
X116757000Y-45000000D01*
X122093500Y-50336500D02*
X125000000Y-53243000D01*
X114260400Y-42733200D02*
X114260400Y-44693700D01*
X127525000Y-44905000D02*
X122093500Y-50336500D01*
%TO.N,SENSOR_CH3*%
X71098000Y-75814500D02*
X70000000Y-76912500D01*
X71137500Y-70775000D02*
X71000000Y-70912500D01*
X75000000Y-70775000D02*
X71137500Y-70775000D01*
X64825000Y-70912500D02*
X63912500Y-70000000D01*
X65540000Y-75000000D02*
X65540000Y-70912500D01*
X56250000Y-11550000D02*
X54930700Y-11550000D01*
X71000000Y-70912500D02*
X65540000Y-70912500D01*
X70000000Y-76912500D02*
X71087500Y-78000000D01*
X71000000Y-70912500D02*
X71098000Y-71010500D01*
X65540000Y-70912500D02*
X64825000Y-70912500D01*
X71087500Y-78000000D02*
X76937500Y-78000000D01*
X71098000Y-71010500D02*
X71098000Y-75814500D01*
X54930700Y-11550000D02*
X54894900Y-11585800D01*
%TO.N,/Power/EF_DVDT*%
X166198500Y-81325000D02*
X166576100Y-80947400D01*
X168000000Y-94950000D02*
X166548000Y-94950000D01*
X164862500Y-81325000D02*
X166198500Y-81325000D01*
%TO.N,/Power/EF_RTN*%
X162000000Y-81600000D02*
X161962100Y-81637900D01*
X160800000Y-81600000D02*
X160800000Y-81850600D01*
X161406100Y-97328300D02*
X156912500Y-92834700D01*
X156912500Y-85500000D02*
X159137500Y-83275000D01*
X161381100Y-83150600D02*
X161649400Y-83150600D01*
X168000000Y-93050000D02*
X167150000Y-93050000D01*
D71*
X161962100Y-83150600D02*
X161649400Y-83150600D01*
X160800000Y-81850600D02*
X159261900Y-81850600D01*
D70*
X162000000Y-79200000D02*
X160800000Y-79200000D01*
X156912500Y-88000000D02*
X156912500Y-85500000D01*
X163200000Y-82800000D02*
X162000000Y-82800000D01*
D71*
X160800000Y-83150600D02*
X159261900Y-83150600D01*
D70*
X166000000Y-90087500D02*
X168000000Y-92087500D01*
X163200000Y-80400000D02*
X162000000Y-80400000D01*
X163200000Y-79200000D02*
X162000000Y-79200000D01*
X167912500Y-88175000D02*
X166000000Y-90087500D01*
D71*
X161381100Y-83150600D02*
X160800000Y-83150600D01*
X159261900Y-83150600D02*
X159137500Y-83275000D01*
D70*
X161962100Y-81637900D02*
X161962100Y-81850600D01*
X168000000Y-92087500D02*
X168000000Y-93050000D01*
X152581700Y-77966200D02*
X153000000Y-78384500D01*
X162000000Y-80400000D02*
X162000000Y-81000000D01*
X167150000Y-93050000D02*
X162871700Y-97328300D01*
D71*
X159261900Y-81850600D02*
X159137500Y-81975000D01*
D70*
X160800000Y-82800000D02*
X160800000Y-83150600D01*
X162871700Y-97328300D02*
X161406100Y-97328300D01*
X161962100Y-83150600D02*
X161962100Y-82837900D01*
X163200000Y-81600000D02*
X162000000Y-81600000D01*
X169000000Y-88175000D02*
X167912500Y-88175000D01*
X161962100Y-82837900D02*
X162000000Y-82800000D01*
X153000000Y-78384500D02*
X153000000Y-79087500D01*
X156912500Y-92834700D02*
X156912500Y-88000000D01*
D71*
X161962100Y-81850600D02*
X160800000Y-81850600D01*
%TO.N,/MCU/LED_PWR*%
D70*
X93404600Y-15682900D02*
X79172900Y-15682900D01*
X95087500Y-14000000D02*
X93404600Y-15682900D01*
X73750000Y-19170000D02*
X75502900Y-19170000D01*
%TO.N,/Sensors & LORA/net_CH5_SIG*%
X44000000Y-100000000D02*
X44000000Y-98823300D01*
X43087500Y-97910800D02*
X43087500Y-95000000D01*
X44000000Y-98823300D02*
X43087500Y-97910800D01*
%TO.N,/Power/net_USB_VBUS*%
X36692100Y-10270600D02*
X36400000Y-9978500D01*
X23000000Y-11000000D02*
X29667900Y-11000000D01*
X31600000Y-7495200D02*
X31600000Y-6680000D01*
X32597700Y-11034000D02*
X33501000Y-11034000D01*
X31115800Y-9552100D02*
X32597700Y-11034000D01*
X36400000Y-9978500D02*
X36400000Y-6680000D01*
X31425800Y-9242100D02*
X31425800Y-7669400D01*
X31425800Y-7669400D02*
X31600000Y-7495200D01*
X29667900Y-11000000D02*
X31115800Y-9552100D01*
X31115800Y-9552100D02*
X31425800Y-9242100D01*
%TO.N,/Power/EF_SHDN*%
X158302200Y-82625000D02*
X157727100Y-83200100D01*
X156031000Y-91719500D02*
X155750500Y-92000000D01*
X159137500Y-82625000D02*
X158302200Y-82625000D01*
X155750500Y-92000000D02*
X154912500Y-92000000D01*
%TO.N,Net-(D_LINK1-A)*%
X92937500Y-5000000D02*
X92912500Y-5025000D01*
X92912500Y-5025000D02*
X92912500Y-9000000D01*
%TO.N,/Power/EF_UVLO*%
X154120400Y-80149400D02*
X154120400Y-80025000D01*
X153259300Y-80912500D02*
X154022400Y-80149400D01*
D71*
X154022400Y-80149400D02*
X154120400Y-80149400D01*
D70*
X159137500Y-80025000D02*
X154120400Y-80025000D01*
X151953100Y-76460600D02*
X151953100Y-75134400D01*
X152754600Y-77111400D02*
X152603900Y-77111400D01*
X154120400Y-78477200D02*
X152754600Y-77111400D01*
X151953100Y-75134400D02*
X153000000Y-74087500D01*
X154120400Y-80025000D02*
X154120400Y-78477200D01*
X152603900Y-77111400D02*
X151953100Y-76460600D01*
X153000000Y-80912500D02*
X153259300Y-80912500D01*
%TO.N,/Sensors & LORA/net_CH3_SIG*%
X40964700Y-74209900D02*
X42931500Y-76176700D01*
X42931500Y-76176700D02*
X47027500Y-76176700D01*
X30633100Y-74209900D02*
X40964700Y-74209900D01*
X24683000Y-80160000D02*
X30633100Y-74209900D01*
X62087500Y-72910800D02*
X62087500Y-70000000D01*
X63000000Y-75000000D02*
X63000000Y-73823300D01*
X50293400Y-72910800D02*
X62087500Y-72910800D01*
X63000000Y-73823300D02*
X62087500Y-72910800D01*
X7000000Y-80160000D02*
X24683000Y-80160000D01*
X47027500Y-76176700D02*
X50293400Y-72910800D01*
%TO.N,RS485_DE*%
D71*
X105922100Y-43095000D02*
X106350000Y-43095000D01*
D70*
X103192100Y-45825000D02*
X103801000Y-45216100D01*
X75820000Y-15360000D02*
X79465000Y-19005000D01*
X85409400Y-23716700D02*
X96440300Y-34747600D01*
D71*
X103801000Y-45216100D02*
X105922100Y-43095000D01*
D70*
X107749100Y-42155600D02*
X106809700Y-43095000D01*
X79465000Y-20690800D02*
X82490900Y-23716700D01*
X82490900Y-23716700D02*
X85409400Y-23716700D01*
X106809700Y-43095000D02*
X106350000Y-43095000D01*
X96440300Y-34747600D02*
X102310700Y-34747600D01*
X73750000Y-15360000D02*
X75820000Y-15360000D01*
X102310700Y-34747600D02*
X107749100Y-40186000D01*
X79465000Y-19005000D02*
X79465000Y-20690800D01*
X107749100Y-40186000D02*
X107749100Y-42155600D01*
X103000000Y-45825000D02*
X103192100Y-45825000D01*
%TO.N,Net-(D_FLT1-A)*%
X99912500Y-5025000D02*
X99912500Y-9000000D01*
X99937500Y-5000000D02*
X99912500Y-5025000D01*
%TO.N,SENSOR_CH4*%
X33000000Y-99247300D02*
X33058300Y-99305600D01*
X32000000Y-101912500D02*
X33272100Y-103184600D01*
X37000000Y-95775000D02*
X33137500Y-95775000D01*
X55173300Y-13338100D02*
X48704600Y-19806800D01*
X33000000Y-95912500D02*
X26825000Y-95912500D01*
X33272100Y-103184600D02*
X38752900Y-103184600D01*
X28292700Y-99247300D02*
X33000000Y-99247300D01*
X33000000Y-95912500D02*
X33000000Y-99247300D01*
X33058300Y-99305600D02*
X33058300Y-100854200D01*
X33137500Y-95775000D02*
X33000000Y-95912500D01*
X56250000Y-12820000D02*
X55173300Y-12820000D01*
X48704600Y-19806800D02*
X44483800Y-19806800D01*
X26825000Y-95912500D02*
X25912500Y-95000000D01*
X27540000Y-100000000D02*
X28292700Y-99247300D01*
X33058300Y-100854200D02*
X32000000Y-101912500D01*
X38752900Y-103184600D02*
X38937500Y-103000000D01*
X55173300Y-12820000D02*
X55173300Y-13338100D01*
%TO.N,Net-(JP_IGND3-Pin_1)*%
X69000000Y-81823300D02*
X68929800Y-81753100D01*
X68929800Y-76157700D02*
X70000000Y-75087500D01*
X69000000Y-83000000D02*
X69000000Y-81823300D01*
X68929800Y-81753100D02*
X68929800Y-76157700D01*
%TO.N,net_USB_DP*%
D78*
X55250000Y-24250000D02*
X56250000Y-24250000D01*
X34400000Y-7650000D02*
X34400000Y-8700000D01*
X53000000Y-22000000D02*
X55250000Y-24250000D01*
X44896447Y-22000000D02*
X53000000Y-22000000D01*
X33250000Y-6680000D02*
X33250000Y-7550000D01*
X32939999Y-8700000D02*
X34400000Y-8700000D01*
X34250000Y-6680000D02*
X34250000Y-7500000D01*
X35000000Y-12103553D02*
X44896447Y-22000000D01*
X33250000Y-7550000D02*
X32939999Y-7900000D01*
X35000000Y-9300000D02*
X35000000Y-12103553D01*
X32939999Y-7900000D02*
X32939999Y-8700000D01*
X34250000Y-7500000D02*
X34400000Y-7650000D01*
X34400000Y-8700000D02*
X35000000Y-9300000D01*
%TO.N,net_USB_DM*%
X34750000Y-6680000D02*
X34750000Y-7600000D01*
X35250000Y-8100000D02*
X35250000Y-12000000D01*
X35250000Y-12000000D02*
X45000000Y-21750000D01*
X45000000Y-21750000D02*
X54020000Y-21750000D01*
X55250000Y-22980000D02*
X56250000Y-22980000D01*
X54020000Y-21750000D02*
X55250000Y-22980000D01*
X33750000Y-6680000D02*
X33750000Y-7800000D01*
X34750000Y-7600000D02*
X35250000Y-8100000D01*
%TO.N,/Sensors & LORA/net_CH4_SIG*%
D70*
X14327500Y-85240000D02*
X7000000Y-85240000D01*
X24087500Y-97910800D02*
X24087500Y-95000000D01*
X25000000Y-98823300D02*
X24087500Y-97910800D01*
X24087500Y-95000000D02*
X14327500Y-85240000D01*
X25000000Y-100000000D02*
X25000000Y-98823300D01*
%TO.N,/Motor Valve/COIL_LOW8*%
D77*
X110123400Y-104024900D02*
X102176500Y-104024900D01*
X119665600Y-113567100D02*
X110123400Y-104024900D01*
X171965400Y-113567100D02*
X119665600Y-113567100D01*
X99190000Y-107011400D02*
X99190000Y-107650000D01*
X176398300Y-118000000D02*
X171965400Y-113567100D01*
X178000000Y-118000000D02*
X176398300Y-118000000D01*
X102176500Y-104024900D02*
X99190000Y-107011400D01*
%TO.N,/Motor Valve/COIL_LOW7*%
X102759600Y-104726600D02*
X100460000Y-107026200D01*
X150095000Y-115696700D02*
X120682500Y-115696700D01*
X100460000Y-107026200D02*
X100460000Y-107650000D01*
X120682500Y-115696700D02*
X109712400Y-104726600D01*
X154000000Y-118000000D02*
X152398300Y-118000000D01*
X109712400Y-104726600D02*
X102759600Y-104726600D01*
X152398300Y-118000000D02*
X150095000Y-115696700D01*
%TO.N,/Motor Valve/COIL_LOW6*%
X103327700Y-105428300D02*
X101730000Y-107026000D01*
X121400400Y-118000000D02*
X108828700Y-105428300D01*
X108828700Y-105428300D02*
X103327700Y-105428300D01*
X130000000Y-118000000D02*
X121400400Y-118000000D01*
X101730000Y-107026000D02*
X101730000Y-107650000D01*
%TO.N,/Motor Valve/COIL_LOW5*%
X103000000Y-107003900D02*
X103873900Y-106130000D01*
X108874100Y-113524200D02*
X106000000Y-116398300D01*
X108874100Y-106495300D02*
X108874100Y-113524200D01*
X108508800Y-106130000D02*
X108874100Y-106495300D01*
X103000000Y-107650000D02*
X103000000Y-107003900D01*
X103873900Y-106130000D02*
X108508800Y-106130000D01*
X106000000Y-118000000D02*
X106000000Y-116398300D01*
%TO.N,/Motor Valve/COIL_LOW4*%
X104270000Y-108264400D02*
X96136100Y-116398300D01*
X104270000Y-107650000D02*
X104270000Y-108264400D01*
X82000000Y-118000000D02*
X83601700Y-118000000D01*
X85203400Y-116398300D02*
X83601700Y-118000000D01*
X96136100Y-116398300D02*
X85203400Y-116398300D01*
%TO.N,/Motor Valve/COIL_LOW3*%
X105540000Y-108287100D02*
X93135900Y-120691200D01*
X93135900Y-120691200D02*
X62292900Y-120691200D01*
X62292900Y-120691200D02*
X59601700Y-118000000D01*
X58000000Y-118000000D02*
X59601700Y-118000000D01*
X105540000Y-107650000D02*
X105540000Y-108287100D01*
%TO.N,/Motor Valve/COIL_LOW2*%
X106810000Y-107650000D02*
X106810000Y-108280100D01*
X39008100Y-121406400D02*
X38820000Y-121218300D01*
X93683700Y-121406400D02*
X39008100Y-121406400D01*
X106810000Y-108280100D02*
X93683700Y-121406400D01*
%TO.N,/Sensors & LORA/net_CH6_SIG*%
D70*
X63000000Y-100000000D02*
X63000000Y-98823300D01*
X63000000Y-98823300D02*
X62087500Y-97910800D01*
X62087500Y-97910800D02*
X62087500Y-95000000D01*
%TO.N,SENSOR_CH1*%
X26825000Y-70912500D02*
X25912500Y-70000000D01*
X32396100Y-77308500D02*
X32543700Y-77456200D01*
X37000000Y-70775000D02*
X33137500Y-70775000D01*
X33087600Y-78000000D02*
X38937500Y-78000000D01*
X72673300Y-9010000D02*
X69750100Y-11933200D01*
X32543700Y-77456200D02*
X32543800Y-77456200D01*
X27540000Y-70912500D02*
X26825000Y-70912500D01*
X32396100Y-77308500D02*
X31676900Y-78027700D01*
X73750000Y-9010000D02*
X72673300Y-9010000D01*
X32543800Y-77456200D02*
X33087600Y-78000000D01*
X27540000Y-75000000D02*
X27540000Y-70912500D01*
X33000000Y-70912500D02*
X27540000Y-70912500D01*
X33137500Y-70775000D02*
X33000000Y-70912500D01*
X32000000Y-76912500D02*
X32396100Y-77308500D01*
%TO.N,Net-(JP_IGND1-Pin_1)*%
X30929800Y-76157700D02*
X32000000Y-75087500D01*
X30929800Y-81753100D02*
X30929800Y-76157700D01*
X31000000Y-81823300D02*
X30929800Y-81753100D01*
X31000000Y-83000000D02*
X31000000Y-81823300D01*
%TO.N,/Sensors & LORA/net_LORA_RST*%
X94124300Y-50357900D02*
X94124300Y-48595300D01*
X99845900Y-48066600D02*
X100912500Y-47000000D01*
X102766400Y-59000000D02*
X94124300Y-50357900D01*
X95466600Y-48066600D02*
X99845900Y-48066600D01*
X95400000Y-48000000D02*
X95466600Y-48066600D01*
X104000000Y-59000000D02*
X102766400Y-59000000D01*
X94719600Y-48000000D02*
X95400000Y-48000000D01*
X94124300Y-48595300D02*
X94719600Y-48000000D01*
%TO.N,/Sensors & LORA/LORA_RF*%
D79*
X80600000Y-57000000D02*
X72000000Y-57000000D01*
%TO.N,/Power/EF_OVP*%
D70*
X155087500Y-86175000D02*
X155087500Y-88000000D01*
X159137500Y-81325000D02*
X155762500Y-81325000D01*
X153000000Y-84087500D02*
X155087500Y-86175000D01*
X155762500Y-81325000D02*
X153000000Y-84087500D01*
%TO.N,/RS-485/net_IN_A_RAW*%
X123725000Y-17198000D02*
X124500000Y-17973000D01*
X115080000Y-9873300D02*
X120736100Y-9873300D01*
X115080000Y-12000000D02*
X115080000Y-9873300D01*
X123725000Y-12862200D02*
X123725000Y-17198000D01*
X124500000Y-17973000D02*
X124500000Y-20650000D01*
X115080000Y-18967500D02*
X118050000Y-21937500D01*
X120736100Y-9873300D02*
X123725000Y-12862200D01*
X115080000Y-12000000D02*
X115080000Y-18967500D01*
%TO.N,/RS-485/net_IN_B_RAW*%
X122212500Y-21937500D02*
X123500000Y-20650000D01*
X120160000Y-14126700D02*
X120160000Y-17310000D01*
X119950000Y-21937500D02*
X122212500Y-21937500D01*
X120160000Y-17310000D02*
X123500000Y-20650000D01*
X120160000Y-12000000D02*
X120160000Y-14126700D01*
%TO.N,Net-(JP_IGND2-Pin_1)*%
X49929800Y-76157700D02*
X51000000Y-75087500D01*
X50000000Y-83000000D02*
X50000000Y-81823300D01*
X49929800Y-81753100D02*
X49929800Y-76157700D01*
X50000000Y-81823300D02*
X49929800Y-81753100D01*
%TO.N,/Motor Valve/RLY3_COM*%
D76*
X55000000Y-143000000D02*
X57000000Y-145000000D01*
X55000000Y-131160000D02*
X55000000Y-143000000D01*
X58000000Y-128160000D02*
X55000000Y-131160000D01*
%TO.N,/Motor Valve/RLY3_NO*%
X58000000Y-135780000D02*
X62080000Y-139860000D01*
X62080000Y-139860000D02*
X62080000Y-145000000D01*
%TO.N,/Motor Valve/RLY3_NC*%
X65620000Y-133240000D02*
X68160000Y-135780000D01*
X68160000Y-143900000D02*
X67160000Y-145000000D01*
X68160000Y-135780000D02*
X68160000Y-143900000D01*
%TO.N,/Motor Valve/RLY4_COM*%
X82000000Y-128160000D02*
X79000000Y-131160000D01*
X79000000Y-131160000D02*
X79000000Y-143000000D01*
X79000000Y-143000000D02*
X81000000Y-145000000D01*
%TO.N,/Motor Valve/RLY4_NO*%
X82000000Y-135780000D02*
X86080000Y-139860000D01*
X86080000Y-139860000D02*
X86080000Y-145000000D01*
%TO.N,/Motor Valve/RLY4_NC*%
X92160000Y-135780000D02*
X92160000Y-143900000D01*
X92160000Y-143900000D02*
X91160000Y-145000000D01*
X89620000Y-133240000D02*
X92160000Y-135780000D01*
%TO.N,/Power/EF_FLT_N*%
D70*
X164862500Y-80025000D02*
X166401300Y-80025000D01*
X168426300Y-78000000D02*
X171644800Y-78000000D01*
X172549400Y-77095400D02*
X172549400Y-73636900D01*
X172549400Y-73636900D02*
X171912500Y-73000000D01*
X174912500Y-70000000D02*
X171912500Y-73000000D01*
X176000000Y-70000000D02*
X174912500Y-70000000D01*
X166401300Y-80025000D02*
X168426300Y-78000000D01*
X171644800Y-78000000D02*
X172549400Y-77095400D01*
%TO.N,Net-(JP_IGND5-Pin_1)*%
X49929800Y-106753100D02*
X49929800Y-101157700D01*
X50000000Y-106823300D02*
X49929800Y-106753100D01*
X49929800Y-101157700D02*
X51000000Y-100087500D01*
X50000000Y-108000000D02*
X50000000Y-106823300D01*
%TO.N,/Motor Valve/RLY2_COM*%
D76*
X31000000Y-143000000D02*
X33000000Y-145000000D01*
X34000000Y-128160000D02*
X31000000Y-131160000D01*
X31000000Y-131160000D02*
X31000000Y-143000000D01*
%TO.N,/Motor Valve/RLY2_NO*%
X34000000Y-135780000D02*
X38080000Y-139860000D01*
X38080000Y-139860000D02*
X38080000Y-145000000D01*
%TO.N,/Motor Valve/RLY2_NC*%
X44160000Y-143900000D02*
X43160000Y-145000000D01*
X44160000Y-135780000D02*
X44160000Y-143900000D01*
X41620000Y-133240000D02*
X44160000Y-135780000D01*
%TO.N,/Power/LED_3V3_K*%
D70*
X153062500Y-102850000D02*
X154000000Y-101912500D01*
X153062500Y-105000000D02*
X153062500Y-102850000D01*
%TO.N,/RS-485/net_ISO_RO*%
X124407100Y-55107100D02*
X127892900Y-55107100D01*
X129000000Y-42149300D02*
X129000000Y-54000000D01*
X115650000Y-48175000D02*
X117475000Y-48175000D01*
X117475000Y-48175000D02*
X124407100Y-55107100D01*
X127892900Y-55107100D02*
X129000000Y-54000000D01*
X127525000Y-41095000D02*
X127945700Y-41095000D01*
X127945700Y-41095000D02*
X129000000Y-42149300D01*
%TO.N,/Sensors & LORA/net_CH1_SIG*%
X24087500Y-70000000D02*
X7000000Y-70000000D01*
X24087500Y-72910800D02*
X24087500Y-70000000D01*
X25000000Y-73823300D02*
X24087500Y-72910800D01*
X25000000Y-75000000D02*
X25000000Y-73823300D01*
%TO.N,/Motor Valve/RLY6_COM*%
D76*
X127000000Y-131160000D02*
X127000000Y-143000000D01*
X127000000Y-143000000D02*
X129000000Y-145000000D01*
X130000000Y-128160000D02*
X127000000Y-131160000D01*
%TO.N,/Motor Valve/RLY6_NO*%
X134080000Y-139860000D02*
X134080000Y-145000000D01*
X130000000Y-135780000D02*
X134080000Y-139860000D01*
%TO.N,/Motor Valve/RLY6_NC*%
X140160000Y-143900000D02*
X139160000Y-145000000D01*
X140160000Y-135780000D02*
X140160000Y-143900000D01*
X137620000Y-133240000D02*
X140160000Y-135780000D01*
%TO.N,/Power/EF_ILIM*%
D70*
X164862500Y-81975000D02*
X166596800Y-81975000D01*
X166596800Y-81975000D02*
X166598400Y-81976600D01*
X169000000Y-89825000D02*
X167981200Y-89825000D01*
X167981200Y-89825000D02*
X167914400Y-89758200D01*
%TO.N,/MCU/net_CHIP_EN*%
X49525000Y-15525000D02*
X48000000Y-15525000D01*
X56250000Y-10280000D02*
X54770000Y-10280000D01*
X48000000Y-15525000D02*
X48000000Y-17087500D01*
X54770000Y-10280000D02*
X51050000Y-14000000D01*
X41300000Y-23823300D02*
X42544000Y-23823300D01*
X42544000Y-23823300D02*
X43216400Y-23150900D01*
X41300000Y-25000000D02*
X41300000Y-23823300D01*
X51050000Y-14000000D02*
X49525000Y-15525000D01*
X48000000Y-15525000D02*
X47720900Y-15525000D01*
%TO.N,Net-(JP_IGND4-Pin_1)*%
X30929800Y-101157700D02*
X32000000Y-100087500D01*
X31000000Y-106823300D02*
X30929800Y-106753100D01*
X30929800Y-106753100D02*
X30929800Y-101157700D01*
X31000000Y-108000000D02*
X31000000Y-106823300D01*
%TO.N,/MCU/SETUP_BTN*%
X70300000Y-32000000D02*
X71076700Y-32000000D01*
X71076700Y-32000000D02*
X71076700Y-29835800D01*
X66905000Y-29381700D02*
X66905000Y-25500000D01*
X70300000Y-32000000D02*
X69523300Y-32000000D01*
X71076700Y-29835800D02*
X72912500Y-28000000D01*
X69523300Y-32000000D02*
X66905000Y-29381700D01*
%TO.N,/Motor Valve/RLY7_COM*%
D76*
X154000000Y-128160000D02*
X151000000Y-131160000D01*
X151000000Y-131160000D02*
X151000000Y-143000000D01*
X151000000Y-143000000D02*
X153000000Y-145000000D01*
%TO.N,/Motor Valve/RLY7_NO*%
X158080000Y-139860000D02*
X158080000Y-145000000D01*
X154000000Y-135780000D02*
X158080000Y-139860000D01*
%TO.N,/Motor Valve/RLY7_NC*%
X161620000Y-133240000D02*
X164160000Y-135780000D01*
X164160000Y-135780000D02*
X164160000Y-143900000D01*
X164160000Y-143900000D02*
X163160000Y-145000000D01*
%TO.N,/MCU/LED_FAULT*%
D70*
X84799000Y-10688600D02*
X96398900Y-10688600D01*
X96398900Y-10688600D02*
X98087500Y-9000000D01*
X76028500Y-16630000D02*
X77551400Y-18152900D01*
X73750000Y-16630000D02*
X76028500Y-16630000D01*
%TO.N,/MCU/net_BOOT*%
X74826700Y-24250000D02*
X74826700Y-24580200D01*
X70858900Y-33221400D02*
X69759300Y-33221400D01*
X66537900Y-30000000D02*
X55912500Y-30000000D01*
X55912500Y-30000000D02*
X54827400Y-28914900D01*
X69759300Y-33221400D02*
X66537900Y-30000000D01*
X73750000Y-24250000D02*
X74826700Y-24250000D01*
X71752400Y-31961000D02*
X71752400Y-32327900D01*
X54827400Y-28914900D02*
X53595300Y-28914900D01*
X71752400Y-32327900D02*
X70858900Y-33221400D01*
X74826700Y-24580200D02*
X74753600Y-24653300D01*
X73964000Y-25318200D02*
X73964000Y-29749400D01*
X73964000Y-29749400D02*
X71752400Y-31961000D01*
X74628900Y-24653300D02*
X73964000Y-25318200D01*
X74753600Y-24653300D02*
X74628900Y-24653300D01*
X51333500Y-31176700D02*
X49253400Y-31176700D01*
X53595300Y-28914900D02*
X51333500Y-31176700D01*
X49253400Y-31176700D02*
X48076700Y-30000000D01*
X47300000Y-30000000D02*
X48076700Y-30000000D01*
%TO.N,RS485_TX*%
X105210500Y-41825000D02*
X104729000Y-42306500D01*
X61414600Y-13183300D02*
X57967900Y-16630000D01*
X69764400Y-13183300D02*
X61414600Y-13183300D01*
X57967900Y-16630000D02*
X56250000Y-16630000D01*
X71822600Y-11125100D02*
X69764400Y-13183300D01*
X106350000Y-41825000D02*
X105210500Y-41825000D01*
%TO.N,RS485_RX*%
X72830800Y-34749700D02*
X79209300Y-41128200D01*
X106350000Y-48175000D02*
X107987400Y-48175000D01*
X79209300Y-41128200D02*
X98126800Y-41128200D01*
X56250000Y-17900000D02*
X61135600Y-17900000D01*
%TO.N,LORA_UART_TX*%
X75783900Y-43154000D02*
X77754000Y-43154000D01*
X56250000Y-19170000D02*
X69259700Y-19170000D01*
X77754000Y-43154000D02*
X80600000Y-46000000D01*
X69259700Y-19170000D02*
X71034800Y-20945100D01*
%TO.N,LORA_UART_RX*%
X80600000Y-47000000D02*
X73367100Y-47000000D01*
X56250000Y-20440000D02*
X59335000Y-20440000D01*
%TO.N,/MCU/LED_LINK*%
X74826700Y-17900000D02*
X75050500Y-17900000D01*
X75050500Y-17900000D02*
X75119000Y-17831500D01*
X91087500Y-9000000D02*
X82971700Y-9000000D01*
X73750000Y-17900000D02*
X74826700Y-17900000D01*
%TD*%
M02*
