M48
; DRILL file KiCad 10.0.5 date 2026-09-26T15:00:44
; FORMAT={-:-/ absolute / metric / decimal}
; #@! TF.CreationDate,2026-09-26T15:00:44-04:00
; #@! TF.GenerationSoftware,Kicad,Pcbnew,10.0.5
; #@! TF.FileFunction,Plated,1,4,PTH
FMAT,2
METRIC
; #@! TA.AperFunction,Plated,PTH,ViaDrill
T1C0.300
; #@! TA.AperFunction,Plated,PTH,ComponentDrill
T2C0.300
; #@! TA.AperFunction,Plated,PTH,ComponentDrill
T3C0.600
; #@! TA.AperFunction,Plated,PTH,ComponentDrill
T4C0.800
; #@! TA.AperFunction,Plated,PTH,ComponentDrill
T5C1.000
; #@! TA.AperFunction,Plated,PTH,ComponentDrill
T6C1.200
; #@! TA.AperFunction,Plated,PTH,ComponentDrill
T7C1.300
; #@! TA.AperFunction,Plated,PTH,ComponentDrill
T8C1.400
; #@! TA.AperFunction,Plated,PTH,ComponentDrill
T9C1.500
; #@! TA.AperFunction,Plated,PTH,ComponentDrill
T10C1.700
%
G90
G05
T1
X30.306Y-11.651
X31.677Y-78.028
X32.25Y-5.202
X32.251Y-7.872
X32.65Y-9.705
X33.501Y-11.034
X33.75Y-7.8
X33.806Y-4.706
X35.25Y-8.1
X35.935Y-10.964
X36.692Y-10.271
X37.062Y-76.15
X37.062Y-100.05
X37.15Y-8.1
X38.172Y-68.953
X38.2Y-94.225
X38.25Y-8.1
X38.82Y-121.218
X43.216Y-23.151
X44.484Y-19.807
X47.721Y-15.525
X49.287Y-29.364
X51.0Y-78.035
X54.011Y-12.939
X54.87Y-14.996
X54.895Y-11.586
X56.062Y-76.15
X56.062Y-100.85
X57.2Y-94.225
X57.857Y-15.36
X59.335Y-20.44
X59.557Y-46.491
X60.975Y-32.0
X61.136Y-17.9
X61.901Y-26.884
X62.865Y-52.766
X63.022Y-26.856
X65.153Y-56.563
X66.28Y-24.131
X68.279Y-9.01
X68.938Y-27.424
X69.75Y-11.933
X70.602Y-23.273
X71.035Y-20.945
X71.823Y-11.125
X72.299Y-23.267
X72.831Y-34.75
X73.367Y-47.0
X74.209Y-42.249
X75.062Y-76.15
X75.062Y-101.15
X75.065Y-68.26
X75.119Y-17.831
X75.503Y-19.17
X75.784Y-43.154
X76.74Y-62.06
X77.225Y-11.813
X77.273Y-25.866
X77.551Y-18.153
X78.536Y-69.886
X79.173Y-15.683
X80.675Y-14.0
X82.972Y-9.0
X84.034Y-76.43
X84.799Y-10.689
X90.51Y-7.254
X91.0Y-93.275
X91.357Y-47.0
X91.929Y-113.642
X93.013Y-84.636
X93.194Y-95.019
X95.4Y-57.9
X95.981Y-98.086
X96.015Y-88.65
X96.13Y-96.577
X96.838Y-98.646
X98.127Y-41.128
X98.779Y-37.969
X98.887Y-96.712
X98.975Y-110.0
X101.617Y-88.243
X102.975Y-24.0
X103.0Y-93.275
X103.012Y-85.174
X103.387Y-51.0
X104.729Y-42.306
X107.441Y-95.835
X107.987Y-48.175
X108.481Y-88.298
X108.948Y-96.848
X109.985Y-88.313
X112.0Y-93.275
X114.533Y-88.01
X114.533Y-94.418
X115.65Y-50.345
X121.9Y-42.275
X129.133Y-22.409
X130.897Y-42.46
X132.0Y-79.725
X132.0Y-96.725
X134.57Y-46.489
X136.069Y-44.905
X140.366Y-91.214
X149.9Y-20.062
X150.637Y-95.525
X152.582Y-77.966
X156.031Y-91.719
X157.727Y-83.2
X158.761Y-109.591
X164.111Y-75.552
X164.862Y-84.175
X166.548Y-94.95
X166.576Y-80.947
X166.598Y-81.977
X167.914Y-89.758
X169.0Y-75.85
T2
X62.1Y-14.76
X62.1Y-16.16
X62.8Y-14.06
X62.8Y-15.46
X62.8Y-16.86
X63.5Y-14.76
X63.5Y-16.16
X64.2Y-14.06
X64.2Y-15.46
X64.2Y-16.86
X64.9Y-14.76
X64.9Y-16.16
X160.8Y-79.2
X160.8Y-80.4
X160.8Y-81.6
X160.8Y-82.8
X162.0Y-79.2
X162.0Y-80.4
X162.0Y-81.6
X162.0Y-82.8
X163.2Y-79.2
X163.2Y-80.4
X163.2Y-81.6
X163.2Y-82.8
T4
X119.0Y-105.0
X121.5Y-105.0
T5
X25.0Y-75.0
X25.0Y-100.0
X27.54Y-75.0
X27.54Y-100.0
X31.0Y-83.0
X31.0Y-108.0
X33.54Y-83.0
X33.54Y-108.0
X44.0Y-75.0
X44.0Y-100.0
X46.54Y-75.0
X46.54Y-100.0
X50.0Y-83.0
X50.0Y-108.0
X52.54Y-83.0
X52.54Y-108.0
X63.0Y-75.0
X63.0Y-100.0
X65.54Y-75.0
X65.54Y-100.0
X69.0Y-83.0
X69.0Y-108.0
X71.54Y-83.0
X71.54Y-108.0
X83.0Y-20.0
X83.0Y-22.54
X83.0Y-25.08
X101.0Y-28.0
X103.54Y-28.0
X108.62Y-28.0
X113.7Y-28.0
T6
X138.0Y-79.0
X138.0Y-96.0
X140.54Y-79.0
X140.54Y-96.0
X143.08Y-79.0
X143.08Y-96.0
T7
X7.0Y-30.0
X7.0Y-35.08
X7.0Y-40.16
X7.0Y-45.24
X7.0Y-50.32
X7.0Y-55.4
X7.0Y-70.0
X7.0Y-75.08
X7.0Y-80.16
X7.0Y-85.24
X7.0Y-90.32
X7.0Y-95.4
X10.0Y-118.0
X10.0Y-128.16
X10.0Y-135.78
X17.62Y-118.0
X17.62Y-133.24
X34.0Y-118.0
X34.0Y-128.16
X34.0Y-135.78
X41.62Y-118.0
X41.62Y-133.24
X58.0Y-118.0
X58.0Y-128.16
X58.0Y-135.78
X65.62Y-118.0
X65.62Y-133.24
X82.0Y-118.0
X82.0Y-128.16
X82.0Y-135.78
X89.62Y-118.0
X89.62Y-133.24
X106.0Y-118.0
X106.0Y-128.16
X106.0Y-135.78
X113.62Y-118.0
X113.62Y-133.24
X130.0Y-118.0
X130.0Y-128.16
X130.0Y-135.78
X137.62Y-118.0
X137.62Y-133.24
X154.0Y-118.0
X154.0Y-128.16
X154.0Y-135.78
X161.62Y-118.0
X161.62Y-133.24
X178.0Y-118.0
X178.0Y-128.16
X178.0Y-135.78
X185.62Y-118.0
X185.62Y-133.24
T8
X9.0Y-145.0
X14.08Y-145.0
X19.16Y-145.0
X33.0Y-145.0
X38.08Y-145.0
X43.16Y-145.0
X57.0Y-145.0
X62.08Y-145.0
X67.16Y-145.0
X81.0Y-145.0
X86.08Y-145.0
X91.16Y-145.0
X105.0Y-145.0
X110.0Y-12.0
X110.08Y-145.0
X115.08Y-12.0
X115.16Y-145.0
X120.16Y-12.0
X125.24Y-12.0
X129.0Y-145.0
X130.32Y-12.0
X134.08Y-145.0
X139.16Y-145.0
X140.0Y-12.0
X145.08Y-12.0
X150.16Y-12.0
X153.0Y-145.0
X155.24Y-12.0
X158.08Y-145.0
X160.32Y-12.0
X163.16Y-145.0
X170.0Y-16.0
X175.08Y-16.0
X177.0Y-145.0
X180.16Y-16.0
X182.08Y-145.0
X185.24Y-16.0
X187.16Y-145.0
X190.0Y-77.0
X190.0Y-82.08
X190.0Y-98.0
X190.0Y-103.08
X190.32Y-16.0
T9
X72.0Y-57.0
T10
X69.46Y-54.46
X69.46Y-59.54
X74.54Y-54.46
X74.54Y-59.54
T3
G00X29.68Y-2.325
M15
G01X29.68Y-1.525
M16
G05
G00X29.68Y-6.655
M15
G01X29.68Y-5.555
M16
G05
G00X38.32Y-2.325
M15
G01X38.32Y-1.525
M16
G05
G00X38.32Y-6.655
M15
G01X38.32Y-5.555
M16
G05
M30
